G04*
G04 #@! TF.GenerationSoftware,Altium Limited,Altium Designer,21.0.9 (235)*
G04*
G04 Layer_Color=255*
%FSLAX25Y25*%
%MOIN*%
G70*
G04*
G04 #@! TF.SameCoordinates,0779874B-5586-4D04-955F-C3DAA35446A4*
G04*
G04*
G04 #@! TF.FilePolarity,Positive*
G04*
G01*
G75*
%ADD15R,0.04749X0.03765*%
%ADD16R,0.05906X0.05512*%
%ADD17R,0.02559X0.04331*%
%ADD18R,0.02756X0.03543*%
%ADD19R,0.03937X0.03150*%
%ADD20R,0.03150X0.03543*%
%ADD21R,0.03543X0.03150*%
%ADD22R,0.05512X0.05906*%
G04:AMPARAMS|DCode=23|XSize=25.59mil|YSize=64.96mil|CornerRadius=1.92mil|HoleSize=0mil|Usage=FLASHONLY|Rotation=180.000|XOffset=0mil|YOffset=0mil|HoleType=Round|Shape=RoundedRectangle|*
%AMROUNDEDRECTD23*
21,1,0.02559,0.06112,0,0,180.0*
21,1,0.02175,0.06496,0,0,180.0*
1,1,0.00384,-0.01088,0.03056*
1,1,0.00384,0.01088,0.03056*
1,1,0.00384,0.01088,-0.03056*
1,1,0.00384,-0.01088,-0.03056*
%
%ADD23ROUNDEDRECTD23*%
%ADD24R,0.03150X0.03740*%
%ADD25R,0.07700X0.12400*%
G04:AMPARAMS|DCode=26|XSize=21.65mil|YSize=57.09mil|CornerRadius=1.95mil|HoleSize=0mil|Usage=FLASHONLY|Rotation=0.000|XOffset=0mil|YOffset=0mil|HoleType=Round|Shape=RoundedRectangle|*
%AMROUNDEDRECTD26*
21,1,0.02165,0.05319,0,0,0.0*
21,1,0.01776,0.05709,0,0,0.0*
1,1,0.00390,0.00888,-0.02659*
1,1,0.00390,-0.00888,-0.02659*
1,1,0.00390,-0.00888,0.02659*
1,1,0.00390,0.00888,0.02659*
%
%ADD26ROUNDEDRECTD26*%
G04:AMPARAMS|DCode=27|XSize=21.65mil|YSize=57.09mil|CornerRadius=1.95mil|HoleSize=0mil|Usage=FLASHONLY|Rotation=90.000|XOffset=0mil|YOffset=0mil|HoleType=Round|Shape=RoundedRectangle|*
%AMROUNDEDRECTD27*
21,1,0.02165,0.05319,0,0,90.0*
21,1,0.01776,0.05709,0,0,90.0*
1,1,0.00390,0.02659,0.00888*
1,1,0.00390,0.02659,-0.00888*
1,1,0.00390,-0.02659,-0.00888*
1,1,0.00390,-0.02659,0.00888*
%
%ADD27ROUNDEDRECTD27*%
%ADD41C,0.02559*%
%ADD42R,0.02559X0.02559*%
G04:AMPARAMS|DCode=43|XSize=35.43mil|YSize=94.49mil|CornerRadius=17.72mil|HoleSize=0mil|Usage=FLASHONLY|Rotation=270.000|XOffset=0mil|YOffset=0mil|HoleType=Round|Shape=RoundedRectangle|*
%AMROUNDEDRECTD43*
21,1,0.03543,0.05906,0,0,270.0*
21,1,0.00000,0.09449,0,0,270.0*
1,1,0.03543,-0.02953,0.00000*
1,1,0.03543,-0.02953,0.00000*
1,1,0.03543,0.02953,0.00000*
1,1,0.03543,0.02953,0.00000*
%
%ADD43ROUNDEDRECTD43*%
G04:AMPARAMS|DCode=44|XSize=35.43mil|YSize=66.93mil|CornerRadius=17.72mil|HoleSize=0mil|Usage=FLASHONLY|Rotation=270.000|XOffset=0mil|YOffset=0mil|HoleType=Round|Shape=RoundedRectangle|*
%AMROUNDEDRECTD44*
21,1,0.03543,0.03150,0,0,270.0*
21,1,0.00000,0.06693,0,0,270.0*
1,1,0.03543,-0.01575,0.00000*
1,1,0.03543,-0.01575,0.00000*
1,1,0.03543,0.01575,0.00000*
1,1,0.03543,0.01575,0.00000*
%
%ADD44ROUNDEDRECTD44*%
%ADD46C,0.13780*%
%ADD47C,0.05591*%
%ADD48C,0.13583*%
D15*
X78740Y133760D02*
D03*
Y141831D02*
D03*
D16*
X88583Y141535D02*
D03*
Y134055D02*
D03*
D17*
X33661Y24803D02*
D03*
X37402D02*
D03*
X41142D02*
D03*
Y34252D02*
D03*
X37402D02*
D03*
X33661D02*
D03*
D18*
X38583Y17717D02*
D03*
X44094D02*
D03*
D19*
X82677Y111221D02*
D03*
Y117126D02*
D03*
X74803Y111221D02*
D03*
Y117126D02*
D03*
X66929Y111221D02*
D03*
Y117126D02*
D03*
D20*
X49213Y74803D02*
D03*
X52953Y66929D02*
D03*
X45472D02*
D03*
D21*
X28248Y66929D02*
D03*
X34941D02*
D03*
X21555Y74803D02*
D03*
X28248D02*
D03*
X105709Y149606D02*
D03*
X99016D02*
D03*
X51772D02*
D03*
X58465D02*
D03*
X105709Y7874D02*
D03*
X99016D02*
D03*
D22*
X9843Y66929D02*
D03*
X21654D02*
D03*
X133858Y151575D02*
D03*
X145669D02*
D03*
X23622D02*
D03*
X11811D02*
D03*
X133858Y5906D02*
D03*
X145669D02*
D03*
D23*
X96240Y89862D02*
D03*
X91240D02*
D03*
X86240D02*
D03*
X81240D02*
D03*
X76240D02*
D03*
X71240D02*
D03*
X66240D02*
D03*
X61240D02*
D03*
X96240Y67618D02*
D03*
X91240D02*
D03*
X86240D02*
D03*
X81240D02*
D03*
X76240D02*
D03*
X71240D02*
D03*
X66240D02*
D03*
X61240D02*
D03*
D24*
X34744Y53150D02*
D03*
X40059D02*
D03*
X34744Y47244D02*
D03*
X40059D02*
D03*
D25*
X29335Y10630D02*
D03*
X10035D02*
D03*
D26*
X55905Y56004D02*
D03*
X59055D02*
D03*
X62205D02*
D03*
X65354D02*
D03*
X68504D02*
D03*
X71653D02*
D03*
X74803D02*
D03*
X77953D02*
D03*
Y22736D02*
D03*
X74803D02*
D03*
X71653D02*
D03*
X68504D02*
D03*
X65354D02*
D03*
X62205D02*
D03*
X59055D02*
D03*
X55905D02*
D03*
D27*
X83563Y50394D02*
D03*
Y47244D02*
D03*
Y44094D02*
D03*
Y40945D02*
D03*
Y37795D02*
D03*
Y34646D02*
D03*
Y31496D02*
D03*
Y28346D02*
D03*
X50295D02*
D03*
Y31496D02*
D03*
Y34646D02*
D03*
Y37795D02*
D03*
Y40945D02*
D03*
Y44094D02*
D03*
Y47244D02*
D03*
Y50394D02*
D03*
D41*
X18406Y51083D02*
D03*
Y47736D02*
D03*
Y44390D02*
D03*
Y41043D02*
D03*
Y37697D02*
D03*
Y34350D02*
D03*
Y31004D02*
D03*
Y27657D02*
D03*
X23720D02*
D03*
Y31004D02*
D03*
Y34350D02*
D03*
Y37697D02*
D03*
Y41043D02*
D03*
Y44390D02*
D03*
Y47736D02*
D03*
D42*
Y51083D02*
D03*
D43*
X19862Y22343D02*
D03*
Y56398D02*
D03*
D44*
X6555Y22343D02*
D03*
Y56398D02*
D03*
D46*
X145669Y78740D02*
D03*
X11811D02*
D03*
D47*
X51142Y114173D02*
D03*
Y122047D02*
D03*
Y104331D02*
D03*
Y131890D02*
D03*
X106339Y122047D02*
D03*
Y114173D02*
D03*
Y131890D02*
D03*
Y104331D02*
D03*
Y43307D02*
D03*
Y35433D02*
D03*
Y53150D02*
D03*
Y25591D02*
D03*
D48*
X40472Y143976D02*
D03*
Y92244D02*
D03*
X117008D02*
D03*
Y143976D02*
D03*
Y13504D02*
D03*
Y65236D02*
D03*
M02*
