G04*
G04 #@! TF.GenerationSoftware,Altium Limited,Altium Designer,21.0.9 (235)*
G04*
G04 Layer_Physical_Order=1*
G04 Layer_Color=255*
%FSLAX25Y25*%
%MOIN*%
G70*
G04*
G04 #@! TF.SameCoordinates,DF5498ED-4C10-4E6D-B319-6E78A4A4F47C*
G04*
G04*
G04 #@! TF.FilePolarity,Positive*
G04*
G01*
G75*
%ADD13C,0.01000*%
%ADD15R,0.04749X0.03765*%
%ADD21R,0.03543X0.03150*%
%ADD25R,0.07700X0.12400*%
%ADD31C,0.02559*%
%ADD32R,0.02559X0.02559*%
G04:AMPARAMS|DCode=33|XSize=35.43mil|YSize=94.49mil|CornerRadius=17.72mil|HoleSize=0mil|Usage=FLASHONLY|Rotation=270.000|XOffset=0mil|YOffset=0mil|HoleType=Round|Shape=RoundedRectangle|*
%AMROUNDEDRECTD33*
21,1,0.03543,0.05906,0,0,270.0*
21,1,0.00000,0.09449,0,0,270.0*
1,1,0.03543,-0.02953,0.00000*
1,1,0.03543,-0.02953,0.00000*
1,1,0.03543,0.02953,0.00000*
1,1,0.03543,0.02953,0.00000*
%
%ADD33ROUNDEDRECTD33*%
G04:AMPARAMS|DCode=34|XSize=35.43mil|YSize=66.93mil|CornerRadius=17.72mil|HoleSize=0mil|Usage=FLASHONLY|Rotation=270.000|XOffset=0mil|YOffset=0mil|HoleType=Round|Shape=RoundedRectangle|*
%AMROUNDEDRECTD34*
21,1,0.03543,0.03150,0,0,270.0*
21,1,0.00000,0.06693,0,0,270.0*
1,1,0.03543,-0.01575,0.00000*
1,1,0.03543,-0.01575,0.00000*
1,1,0.03543,0.01575,0.00000*
1,1,0.03543,0.01575,0.00000*
%
%ADD34ROUNDEDRECTD34*%
%ADD36R,0.05906X0.05512*%
%ADD37R,0.02559X0.04331*%
%ADD38R,0.02756X0.03543*%
%ADD39R,0.03937X0.03150*%
%ADD40R,0.03150X0.03543*%
%ADD41R,0.05512X0.05906*%
G04:AMPARAMS|DCode=42|XSize=25.59mil|YSize=64.96mil|CornerRadius=1.92mil|HoleSize=0mil|Usage=FLASHONLY|Rotation=180.000|XOffset=0mil|YOffset=0mil|HoleType=Round|Shape=RoundedRectangle|*
%AMROUNDEDRECTD42*
21,1,0.02559,0.06112,0,0,180.0*
21,1,0.02175,0.06496,0,0,180.0*
1,1,0.00384,-0.01088,0.03056*
1,1,0.00384,0.01088,0.03056*
1,1,0.00384,0.01088,-0.03056*
1,1,0.00384,-0.01088,-0.03056*
%
%ADD42ROUNDEDRECTD42*%
%ADD43R,0.03150X0.03740*%
G04:AMPARAMS|DCode=44|XSize=21.65mil|YSize=57.09mil|CornerRadius=1.95mil|HoleSize=0mil|Usage=FLASHONLY|Rotation=0.000|XOffset=0mil|YOffset=0mil|HoleType=Round|Shape=RoundedRectangle|*
%AMROUNDEDRECTD44*
21,1,0.02165,0.05319,0,0,0.0*
21,1,0.01776,0.05709,0,0,0.0*
1,1,0.00390,0.00888,-0.02659*
1,1,0.00390,-0.00888,-0.02659*
1,1,0.00390,-0.00888,0.02659*
1,1,0.00390,0.00888,0.02659*
%
%ADD44ROUNDEDRECTD44*%
G04:AMPARAMS|DCode=45|XSize=21.65mil|YSize=57.09mil|CornerRadius=1.95mil|HoleSize=0mil|Usage=FLASHONLY|Rotation=90.000|XOffset=0mil|YOffset=0mil|HoleType=Round|Shape=RoundedRectangle|*
%AMROUNDEDRECTD45*
21,1,0.02165,0.05319,0,0,90.0*
21,1,0.01776,0.05709,0,0,90.0*
1,1,0.00390,0.02659,0.00888*
1,1,0.00390,0.02659,-0.00888*
1,1,0.00390,-0.02659,-0.00888*
1,1,0.00390,-0.02659,0.00888*
%
%ADD45ROUNDEDRECTD45*%
%ADD46C,0.13780*%
%ADD47C,0.05591*%
%ADD48C,0.13583*%
%ADD49C,0.01968*%
G36*
X142413Y152693D02*
X141142D01*
X140752Y152615D01*
X140421Y152394D01*
X137960Y149934D01*
X137739Y149603D01*
X137662Y149213D01*
Y145599D01*
X128416Y136354D01*
X120273D01*
X120173Y136854D01*
X120698Y137072D01*
X121975Y137925D01*
X123060Y139010D01*
X123913Y140286D01*
X124500Y141704D01*
X124799Y143209D01*
Y143476D01*
X117008D01*
X109216D01*
Y143209D01*
X109497Y141797D01*
X109305Y141601D01*
X109066Y141484D01*
X109052Y141493D01*
X108661Y141571D01*
X98454D01*
X96886Y143139D01*
Y146063D01*
X96808Y146453D01*
X96587Y146784D01*
X93339Y150032D01*
X93008Y150253D01*
X92618Y150331D01*
X68012D01*
X67622Y150253D01*
X67291Y150032D01*
X60228Y142969D01*
X59804Y143252D01*
X59949Y143602D01*
Y144193D01*
X59723Y144738D01*
X59484Y144977D01*
Y147531D01*
X60736D01*
Y151681D01*
X56193D01*
Y147531D01*
X57445D01*
Y144977D01*
X57206Y144738D01*
X56980Y144193D01*
Y143602D01*
X57206Y143057D01*
X57624Y142639D01*
X58169Y142413D01*
X58760D01*
X59110Y142559D01*
X59394Y142135D01*
X58830Y141571D01*
X51772D01*
X51381Y141493D01*
X51051Y141272D01*
X44952Y135173D01*
X37725D01*
X35716Y137183D01*
X36035Y137571D01*
X36782Y137072D01*
X38200Y136485D01*
X39705Y136185D01*
X39972D01*
Y143476D01*
X32681D01*
Y143209D01*
X32980Y141704D01*
X33568Y140286D01*
X34067Y139539D01*
X33679Y139220D01*
X33201Y139697D01*
X32871Y139918D01*
X32480Y139996D01*
X24340D01*
X19720Y144615D01*
Y149606D01*
X19643Y149996D01*
X19422Y150327D01*
X17453Y152296D01*
X17122Y152517D01*
X16732Y152594D01*
X15067D01*
Y154963D01*
X20366D01*
Y148122D01*
X26878D01*
Y150555D01*
X31299D01*
X31689Y150633D01*
X32020Y150854D01*
X33099Y151933D01*
X38064D01*
X38200Y151468D01*
X36782Y150881D01*
X35506Y150028D01*
X34420Y148943D01*
X33568Y147667D01*
X32980Y146249D01*
X32681Y144744D01*
Y144476D01*
X40472D01*
X48264D01*
Y144744D01*
X47964Y146249D01*
X47377Y147667D01*
X47051Y148154D01*
X47352Y148604D01*
X47441Y148587D01*
X49500D01*
Y147531D01*
X54043D01*
Y151681D01*
X49500D01*
Y150626D01*
X47863D01*
X44815Y153674D01*
X44485Y153895D01*
X44094Y153972D01*
X32677D01*
X32287Y153895D01*
X31956Y153674D01*
X30877Y152594D01*
X26878D01*
Y154963D01*
X130602D01*
Y152693D01*
X123552D01*
X122571Y153674D01*
X122241Y153895D01*
X121850Y153972D01*
X113484D01*
X113094Y153895D01*
X112763Y153674D01*
X109715Y150626D01*
X107980D01*
Y151681D01*
X103437D01*
Y147531D01*
X107980D01*
Y148587D01*
X110117D01*
X110170Y148533D01*
X110414Y148132D01*
X110103Y147667D01*
X109516Y146249D01*
X109216Y144744D01*
Y144476D01*
X117008D01*
X124799D01*
Y144744D01*
X124500Y146249D01*
X123913Y147667D01*
X123060Y148943D01*
X121975Y150028D01*
X120698Y150881D01*
X119281Y151468D01*
X119416Y151933D01*
X121428D01*
X122409Y150952D01*
X122740Y150731D01*
X123130Y150654D01*
X130602D01*
Y148122D01*
X137114D01*
Y154963D01*
X142413D01*
Y152693D01*
D02*
G37*
G36*
Y148122D02*
X148925D01*
Y150555D01*
X150365D01*
X152819Y148101D01*
Y142323D01*
Y83141D01*
X152319Y82989D01*
X151798Y83770D01*
X150699Y84869D01*
X149407Y85732D01*
X147971Y86327D01*
X146446Y86630D01*
X146169D01*
Y78740D01*
Y70850D01*
X146446D01*
X147971Y71154D01*
X149407Y71748D01*
X150699Y72612D01*
X151798Y73711D01*
X152319Y74491D01*
X152819Y74339D01*
Y7411D01*
X152334Y6925D01*
X148925D01*
Y9358D01*
X142413D01*
Y2517D01*
X137114D01*
Y9358D01*
X130602D01*
Y6925D01*
X126181D01*
X125791Y6848D01*
X125460Y6627D01*
X124578Y5744D01*
X119940D01*
X119841Y6244D01*
X120698Y6599D01*
X121975Y7452D01*
X123060Y8537D01*
X123913Y9813D01*
X124500Y11231D01*
X124799Y12737D01*
Y13004D01*
X117008D01*
X109216D01*
Y12737D01*
X109516Y11231D01*
X110103Y9813D01*
X110414Y9348D01*
X110170Y8947D01*
X110117Y8894D01*
X107980D01*
Y9949D01*
X103480D01*
Y16535D01*
X103403Y16926D01*
X103182Y17256D01*
X102693Y17745D01*
Y20771D01*
X102931Y21010D01*
X103157Y21555D01*
Y22146D01*
X102931Y22691D01*
X102514Y23109D01*
X101969Y23335D01*
X101378D01*
X100832Y23109D01*
X100535Y22812D01*
X100035Y22982D01*
Y24311D01*
X99958Y24701D01*
X99737Y25032D01*
X95701Y29067D01*
X95371Y29288D01*
X94980Y29366D01*
X90154D01*
X89916Y29605D01*
X89370Y29831D01*
X88780D01*
X88234Y29605D01*
X87995Y29366D01*
X86905D01*
X86877Y29505D01*
X86723Y29735D01*
Y30052D01*
X87039Y30476D01*
X98721D01*
X99111Y30554D01*
X99441Y30775D01*
X101902Y33236D01*
X102123Y33566D01*
X102201Y33957D01*
Y51997D01*
X102701Y52063D01*
X102802Y51685D01*
X103302Y50819D01*
X104008Y50113D01*
X104874Y49613D01*
X105839Y49354D01*
Y53150D01*
Y56945D01*
X104874Y56686D01*
X104008Y56187D01*
X103302Y55480D01*
X102802Y54615D01*
X102701Y54237D01*
X102201Y54302D01*
Y70177D01*
X102123Y70567D01*
X101902Y70898D01*
X93109Y79691D01*
X93151Y79899D01*
X93326Y80181D01*
X120345D01*
X125358Y75168D01*
Y31033D01*
X120936Y26610D01*
X109477D01*
X109409Y26862D01*
X108976Y27614D01*
X108362Y28227D01*
X107610Y28661D01*
X106772Y28886D01*
X105905D01*
X105067Y28661D01*
X104315Y28227D01*
X103702Y27614D01*
X103268Y26862D01*
X103043Y26024D01*
Y25157D01*
X103268Y24319D01*
X103702Y23567D01*
X104315Y22954D01*
X105067Y22520D01*
X105905Y22295D01*
X106772D01*
X107610Y22520D01*
X108362Y22954D01*
X108976Y23567D01*
X109409Y24319D01*
X109477Y24571D01*
X121358D01*
X121748Y24649D01*
X122079Y24870D01*
X127099Y29889D01*
X127320Y30220D01*
X127398Y30610D01*
Y75590D01*
X127320Y75981D01*
X127099Y76311D01*
X121489Y81922D01*
X121158Y82143D01*
X120768Y82220D01*
X93631D01*
X92260Y83592D01*
Y86101D01*
X92328D01*
X92598Y86154D01*
X92827Y86307D01*
X92980Y86536D01*
X93033Y86806D01*
Y92918D01*
X92980Y93188D01*
X92827Y93417D01*
X92598Y93570D01*
X92328Y93624D01*
X90153D01*
X89883Y93570D01*
X89654Y93417D01*
X89501Y93188D01*
X89447Y92918D01*
Y90882D01*
X88033D01*
Y92918D01*
X87980Y93188D01*
X87827Y93417D01*
X87598Y93570D01*
X87328Y93624D01*
X85153D01*
X84883Y93570D01*
X84654Y93417D01*
X84501Y93188D01*
X84447Y92918D01*
Y86806D01*
X84501Y86536D01*
X84654Y86307D01*
X84883Y86154D01*
X85153Y86101D01*
X87328D01*
X87598Y86154D01*
X87827Y86307D01*
X87980Y86536D01*
X88033Y86806D01*
Y88843D01*
X89447D01*
Y86806D01*
X89501Y86536D01*
X89654Y86307D01*
X89883Y86154D01*
X90153Y86101D01*
X90221D01*
Y83169D01*
X90298Y82779D01*
X90357Y82690D01*
X90246Y82428D01*
X90070Y82220D01*
X84379D01*
X82260Y84340D01*
Y86101D01*
X82328D01*
X82598Y86154D01*
X82827Y86307D01*
X82980Y86536D01*
X83033Y86806D01*
Y92918D01*
X82980Y93188D01*
X82827Y93417D01*
X82598Y93570D01*
X82328Y93624D01*
X82260D01*
Y94794D01*
X83198Y95732D01*
X94164D01*
X95221Y94676D01*
Y93624D01*
X95153D01*
X94883Y93570D01*
X94654Y93417D01*
X94501Y93188D01*
X94447Y92918D01*
Y86806D01*
X94501Y86536D01*
X94654Y86307D01*
X94883Y86154D01*
X95153Y86101D01*
X97328D01*
X97598Y86154D01*
X97827Y86307D01*
X97979Y86536D01*
X98033Y86806D01*
Y92918D01*
X97979Y93188D01*
X97827Y93417D01*
X97598Y93570D01*
X97328Y93624D01*
X97260D01*
Y95098D01*
X97182Y95489D01*
X96961Y95819D01*
X95308Y97473D01*
X94977Y97694D01*
X94587Y97772D01*
X82776D01*
X82677Y97752D01*
X82370Y97706D01*
X81961Y98008D01*
X79937Y100032D01*
X79903Y100055D01*
X80054Y100555D01*
X96949D01*
X97339Y100633D01*
X97670Y100854D01*
X100127Y103311D01*
X103200D01*
X103268Y103059D01*
X103702Y102307D01*
X104315Y101694D01*
X105067Y101260D01*
X105905Y101035D01*
X106772D01*
X107610Y101260D01*
X108362Y101694D01*
X108976Y102307D01*
X109409Y103059D01*
X109634Y103897D01*
Y104764D01*
X109409Y105603D01*
X108976Y106354D01*
X108362Y106968D01*
X107610Y107401D01*
X106772Y107626D01*
X105905D01*
X105067Y107401D01*
X104315Y106968D01*
X103702Y106354D01*
X103268Y105603D01*
X103200Y105350D01*
X99705D01*
X99314Y105273D01*
X98984Y105052D01*
X96526Y102594D01*
X73524D01*
X73133Y102517D01*
X72803Y102296D01*
X70519Y100012D01*
X70298Y99682D01*
X70221Y99291D01*
Y93624D01*
X70153D01*
X69883Y93570D01*
X69654Y93417D01*
X69501Y93188D01*
X69447Y92918D01*
Y86806D01*
X69501Y86536D01*
X69654Y86307D01*
X69883Y86154D01*
X70153Y86101D01*
X72328D01*
X72598Y86154D01*
X72827Y86307D01*
X72979Y86536D01*
X73033Y86806D01*
Y92918D01*
X72979Y93188D01*
X72827Y93417D01*
X72598Y93570D01*
X72328Y93624D01*
X72260D01*
Y96194D01*
X72760Y96401D01*
X72978Y96183D01*
X73524Y95957D01*
X73861D01*
X75221Y94597D01*
Y93624D01*
X75153D01*
X74883Y93570D01*
X74654Y93417D01*
X74501Y93188D01*
X74447Y92918D01*
Y86806D01*
X74501Y86536D01*
X74654Y86307D01*
X74883Y86154D01*
X75153Y86101D01*
X77328D01*
X77598Y86154D01*
X77827Y86307D01*
X77979Y86536D01*
X78033Y86806D01*
Y92918D01*
X77979Y93188D01*
X77827Y93417D01*
X77598Y93570D01*
X77328Y93624D01*
X77260D01*
Y95020D01*
X77182Y95410D01*
X76961Y95741D01*
X75352Y97350D01*
X75366Y97714D01*
X75516Y97851D01*
X75808Y98022D01*
X76280Y97827D01*
X76870D01*
X77416Y98053D01*
X77654Y98291D01*
X78794D01*
X80221Y96865D01*
Y93624D01*
X80153D01*
X79883Y93570D01*
X79654Y93417D01*
X79501Y93188D01*
X79447Y92918D01*
Y86806D01*
X79501Y86536D01*
X79654Y86307D01*
X79883Y86154D01*
X80153Y86101D01*
X80221D01*
Y83917D01*
X80298Y83527D01*
X80519Y83196D01*
X83236Y80480D01*
X83566Y80259D01*
X83957Y80181D01*
X89735D01*
X100162Y69755D01*
Y40078D01*
X99661Y39871D01*
X93682Y45850D01*
X93889Y46350D01*
X93996D01*
X94542Y46576D01*
X94959Y46994D01*
X95185Y47539D01*
Y47877D01*
X96961Y49653D01*
X97182Y49984D01*
X97260Y50374D01*
Y63857D01*
X97328D01*
X97598Y63910D01*
X97827Y64063D01*
X97979Y64292D01*
X98033Y64562D01*
Y70674D01*
X97979Y70944D01*
X97827Y71173D01*
X97598Y71326D01*
X97328Y71380D01*
X95153D01*
X94883Y71326D01*
X94654Y71173D01*
X94501Y70944D01*
X94447Y70674D01*
Y68638D01*
X93033D01*
Y70674D01*
X92980Y70944D01*
X92827Y71173D01*
X92598Y71326D01*
X92328Y71380D01*
X90153D01*
X89883Y71326D01*
X89654Y71173D01*
X89501Y70944D01*
X89447Y70674D01*
Y64562D01*
X89501Y64292D01*
X89654Y64063D01*
X89883Y63910D01*
X90153Y63857D01*
X92328D01*
X92598Y63910D01*
X92827Y64063D01*
X92980Y64292D01*
X93033Y64562D01*
Y66598D01*
X94447D01*
Y64562D01*
X94501Y64292D01*
X94654Y64063D01*
X94883Y63910D01*
X95153Y63857D01*
X95221D01*
Y50796D01*
X93743Y49319D01*
X93406D01*
X93055Y49174D01*
X92555Y49441D01*
Y57677D01*
X92477Y58067D01*
X92288Y58350D01*
X92334Y58535D01*
X92511Y58850D01*
X92618D01*
X93164Y59076D01*
X93581Y59494D01*
X93807Y60039D01*
Y60630D01*
X93581Y61175D01*
X93164Y61593D01*
X92618Y61819D01*
X92281D01*
X91124Y62975D01*
X90794Y63196D01*
X90403Y63274D01*
X83445D01*
X83315Y63490D01*
X83234Y63774D01*
X83451Y64097D01*
X83543Y64562D01*
Y67118D01*
X81240D01*
X78937D01*
Y64562D01*
X79030Y64097D01*
X79246Y63774D01*
X79165Y63490D01*
X79036Y63274D01*
X78129D01*
X77895Y63507D01*
X77827Y64063D01*
X77979Y64292D01*
X78033Y64562D01*
Y70674D01*
X77979Y70944D01*
X77827Y71173D01*
X77598Y71326D01*
X77328Y71380D01*
X77201D01*
Y71944D01*
X78745Y73488D01*
X82287D01*
X82525Y73250D01*
X83071Y73024D01*
X83661D01*
X84207Y73250D01*
X84624Y73667D01*
X84721Y73899D01*
X85221Y73800D01*
Y71380D01*
X85153D01*
X84883Y71326D01*
X84654Y71173D01*
X84501Y70944D01*
X84447Y70674D01*
Y64562D01*
X84501Y64292D01*
X84654Y64063D01*
X84883Y63910D01*
X85153Y63857D01*
X87328D01*
X87598Y63910D01*
X87827Y64063D01*
X87980Y64292D01*
X88033Y64562D01*
Y70674D01*
X87980Y70944D01*
X87827Y71173D01*
X87598Y71326D01*
X87328Y71380D01*
X87260D01*
Y75571D01*
X87182Y75961D01*
X86961Y76292D01*
X84133Y79120D01*
X84117Y79160D01*
X83699Y79577D01*
X83153Y79803D01*
X82563D01*
X82017Y79577D01*
X81905Y79465D01*
X71949D01*
X71559Y79387D01*
X71228Y79166D01*
X65519Y73457D01*
X65298Y73126D01*
X65221Y72736D01*
Y71889D01*
X65102Y71825D01*
X64602Y72122D01*
Y80020D01*
X64566Y80203D01*
X64625Y80343D01*
X64860Y80621D01*
X64943Y80673D01*
X77464D01*
X77702Y80435D01*
X78248Y80209D01*
X78838D01*
X79384Y80435D01*
X79802Y80852D01*
X80028Y81398D01*
Y81988D01*
X79802Y82534D01*
X79384Y82951D01*
X78838Y83177D01*
X78248D01*
X77702Y82951D01*
X77464Y82713D01*
X65186D01*
X62298Y85601D01*
X62328Y86101D01*
X62598Y86154D01*
X62827Y86307D01*
X62980Y86536D01*
X63033Y86806D01*
Y92918D01*
X62980Y93188D01*
X62827Y93417D01*
X62598Y93570D01*
X62328Y93624D01*
X62260D01*
Y99980D01*
X62182Y100371D01*
X61961Y100701D01*
X60736Y101926D01*
Y102264D01*
X60510Y102809D01*
X60093Y103227D01*
X59547Y103453D01*
X58957D01*
X58411Y103227D01*
X58114Y102930D01*
X57614Y103100D01*
Y125277D01*
X57634Y125291D01*
X58134Y125023D01*
Y108071D01*
X58212Y107681D01*
X58433Y107350D01*
X65221Y100562D01*
Y93624D01*
X65153D01*
X64883Y93570D01*
X64654Y93417D01*
X64501Y93188D01*
X64447Y92918D01*
Y86806D01*
X64501Y86536D01*
X64654Y86307D01*
X64883Y86154D01*
X65153Y86101D01*
X67328D01*
X67598Y86154D01*
X67827Y86307D01*
X67980Y86536D01*
X68033Y86806D01*
Y92918D01*
X67980Y93188D01*
X67827Y93417D01*
X67598Y93570D01*
X67328Y93624D01*
X67260D01*
Y100984D01*
X67182Y101374D01*
X66961Y101705D01*
X60173Y108493D01*
Y128937D01*
X60096Y129327D01*
X59874Y129658D01*
X56922Y132611D01*
X56591Y132832D01*
X56201Y132909D01*
X54280D01*
X54212Y133162D01*
X53779Y133913D01*
X53165Y134527D01*
X52414Y134960D01*
X51576Y135185D01*
X50708D01*
X49870Y134960D01*
X49118Y134527D01*
X48505Y133913D01*
X48071Y133162D01*
X47846Y132324D01*
Y131456D01*
X48071Y130618D01*
X48505Y129866D01*
X49118Y129253D01*
X49870Y128819D01*
X50708Y128595D01*
X51576D01*
X52414Y128819D01*
X53165Y129253D01*
X53779Y129866D01*
X54212Y130618D01*
X54280Y130870D01*
X55778D01*
X58050Y128599D01*
X58006Y128238D01*
X57514Y128049D01*
X57435Y128128D01*
X56890Y128354D01*
X56299D01*
X55754Y128128D01*
X55336Y127711D01*
X55110Y127165D01*
Y126575D01*
X55336Y126029D01*
X55575Y125791D01*
Y87008D01*
X55652Y86618D01*
X55874Y86287D01*
X62563Y79597D01*
Y72083D01*
X62328Y71890D01*
X61740D01*
Y67618D01*
Y63347D01*
X62328D01*
X62371Y63311D01*
X62395Y62722D01*
X62324Y62652D01*
X62182Y62309D01*
X61682Y62150D01*
X61619Y62156D01*
X61315Y62359D01*
X60925Y62437D01*
X57312D01*
X57193Y62556D01*
Y62894D01*
X56967Y63439D01*
X56549Y63857D01*
X56004Y64083D01*
X55413D01*
X54868Y63857D01*
X54450Y63439D01*
X54224Y62894D01*
Y62303D01*
X54450Y61758D01*
X54868Y61340D01*
X55413Y61114D01*
X55751D01*
X56169Y60696D01*
X56500Y60475D01*
X56890Y60398D01*
X60246D01*
X60282Y60324D01*
X59943Y59882D01*
X59943Y59882D01*
X59555D01*
Y56004D01*
Y52126D01*
X59943D01*
X60409Y52219D01*
X60804Y52483D01*
X60975Y52738D01*
X61046Y52690D01*
X61317Y52636D01*
X63092D01*
X63364Y52690D01*
X63594Y52843D01*
X63966D01*
X64195Y52690D01*
X64467Y52636D01*
X66242D01*
X66513Y52690D01*
X66585Y52738D01*
X66755Y52483D01*
X67150Y52219D01*
X67616Y52126D01*
X68004D01*
Y56004D01*
X69004D01*
Y52126D01*
X69392D01*
X69858Y52219D01*
X70253Y52483D01*
X70423Y52738D01*
X70495Y52690D01*
X70766Y52636D01*
X72541D01*
X72812Y52690D01*
X73042Y52843D01*
X73414D01*
X73644Y52690D01*
X73915Y52636D01*
X75691D01*
X75962Y52690D01*
X76192Y52843D01*
X76508D01*
X76933Y52528D01*
Y51210D01*
X70237Y44514D01*
X60814D01*
X60575Y44752D01*
X60030Y44978D01*
X59439D01*
X58894Y44752D01*
X58655Y44514D01*
X57027D01*
X56725Y44815D01*
X56394Y45037D01*
X56004Y45114D01*
X53637D01*
X53609Y45253D01*
X53456Y45483D01*
Y45855D01*
X53609Y46085D01*
X53663Y46356D01*
Y48132D01*
X53609Y48403D01*
X53456Y48633D01*
Y49005D01*
X53609Y49235D01*
X53663Y49506D01*
Y51281D01*
X53609Y51553D01*
X53456Y51783D01*
X53226Y51936D01*
X52955Y51990D01*
X51315D01*
Y52461D01*
X51237Y52851D01*
X51016Y53182D01*
X50327Y53871D01*
X49997Y54092D01*
X49606Y54169D01*
X45912D01*
X45673Y54408D01*
X45489Y54484D01*
X45588Y54984D01*
X54309D01*
Y53345D01*
X54363Y53073D01*
X54517Y52843D01*
X54747Y52690D01*
X55018Y52636D01*
X56793D01*
X57064Y52690D01*
X57136Y52738D01*
X57306Y52483D01*
X57701Y52219D01*
X58167Y52126D01*
X58555D01*
Y56004D01*
Y59882D01*
X58167D01*
X57701Y59789D01*
X57306Y59525D01*
X57136Y59270D01*
X57064Y59318D01*
X56793Y59372D01*
X55018D01*
X54747Y59318D01*
X54517Y59164D01*
X54363Y58934D01*
X54309Y58663D01*
Y57024D01*
X45206D01*
X41764Y60465D01*
X41434Y60686D01*
X41043Y60764D01*
X31350D01*
X31082Y61264D01*
X31095Y61284D01*
X39567D01*
X39957Y61361D01*
X40288Y61582D01*
X40312Y61606D01*
X40650D01*
X41195Y61832D01*
X41613Y62250D01*
X41839Y62795D01*
Y63386D01*
X41613Y63931D01*
X41195Y64349D01*
X40650Y64575D01*
X40059D01*
X39514Y64349D01*
X39096Y63931D01*
X38870Y63386D01*
Y63323D01*
X30582D01*
X30344Y63561D01*
X29798Y63787D01*
X29465D01*
X29190Y64275D01*
X29268Y64665D01*
Y64854D01*
X30520D01*
Y69004D01*
X25976D01*
Y67949D01*
X24909D01*
Y70382D01*
X19086D01*
X18879Y70882D01*
X20725Y72728D01*
X23827D01*
Y76878D01*
X19879D01*
X19562Y77264D01*
X19701Y77963D01*
Y78240D01*
X11811D01*
Y78740D01*
X11311D01*
Y86630D01*
X11034D01*
X9510Y86327D01*
X8074Y85732D01*
X6782Y84869D01*
X5683Y83770D01*
X4819Y82477D01*
X4669Y82115D01*
X4169Y82215D01*
Y83436D01*
X8592Y87858D01*
X22708D01*
X27228Y83337D01*
Y76878D01*
X25976D01*
Y72728D01*
X30520D01*
Y73784D01*
X32747D01*
X36484Y70047D01*
X36814Y69826D01*
X37205Y69748D01*
X47904D01*
X48095Y69558D01*
Y67815D01*
X48172Y67425D01*
X48393Y67094D01*
X49279Y66208D01*
X49610Y65987D01*
X50000Y65910D01*
X50878D01*
Y64657D01*
X55028D01*
Y69201D01*
X50878D01*
Y68383D01*
X50378Y68163D01*
X50134Y68386D01*
Y69980D01*
X50056Y70371D01*
X49835Y70701D01*
X49048Y71489D01*
X48717Y71710D01*
X48327Y71787D01*
X37627D01*
X36131Y73284D01*
X36338Y73784D01*
X47138D01*
Y72531D01*
X51287D01*
Y77075D01*
X47138D01*
Y75823D01*
X36446D01*
X31531Y80737D01*
Y84153D01*
X31454Y84544D01*
X31233Y84874D01*
X24835Y91272D01*
X24504Y91493D01*
X24114Y91571D01*
X7017D01*
X3988Y94599D01*
Y147527D01*
X7017Y150555D01*
X8555D01*
Y148122D01*
X15067D01*
Y150555D01*
X16310D01*
X17681Y149184D01*
Y144193D01*
X17759Y143803D01*
X17980Y143472D01*
X23196Y138255D01*
X23527Y138034D01*
X23917Y137957D01*
X32058D01*
X36582Y133433D01*
X36913Y133212D01*
X37303Y133134D01*
X45374D01*
X45764Y133212D01*
X46095Y133433D01*
X52194Y139532D01*
X59252D01*
X59642Y139609D01*
X59973Y139830D01*
X68434Y148291D01*
X92196D01*
X94847Y145641D01*
Y142717D01*
X94924Y142326D01*
X95145Y141996D01*
X97311Y139830D01*
X97641Y139609D01*
X98032Y139532D01*
X108239D01*
X113157Y134614D01*
X113488Y134393D01*
X113878Y134315D01*
X128839D01*
X129229Y134393D01*
X129560Y134614D01*
X139402Y144456D01*
X139623Y144787D01*
X139701Y145177D01*
Y148790D01*
X141564Y150654D01*
X142413D01*
Y148122D01*
D02*
G37*
G36*
X58411Y100710D02*
X58957Y100484D01*
X59294D01*
X60221Y99558D01*
Y93624D01*
X60153D01*
X59883Y93570D01*
X59654Y93417D01*
X59501Y93188D01*
X59447Y92918D01*
Y86806D01*
X59501Y86536D01*
X59654Y86307D01*
X59883Y86154D01*
X60153Y86101D01*
X60221D01*
Y85531D01*
X59721Y85324D01*
X57614Y87430D01*
Y100837D01*
X58114Y101007D01*
X58411Y100710D01*
D02*
G37*
G36*
X82017Y77061D02*
X82563Y76835D01*
X83153D01*
X83423Y76946D01*
X83959Y76410D01*
X83676Y75986D01*
X83661Y75992D01*
X83071D01*
X82525Y75766D01*
X82287Y75528D01*
X78323D01*
X77933Y75450D01*
X77602Y75229D01*
X75460Y73087D01*
X75239Y72756D01*
X75161Y72366D01*
Y71380D01*
X75153D01*
X74883Y71326D01*
X74654Y71173D01*
X74501Y70944D01*
X74447Y70674D01*
Y64562D01*
X74067Y64110D01*
X73414D01*
X73033Y64562D01*
Y70674D01*
X72979Y70944D01*
X72827Y71173D01*
X72598Y71326D01*
X72328Y71380D01*
X70153D01*
X69883Y71326D01*
X69654Y71173D01*
X69501Y70944D01*
X69447Y70674D01*
Y65821D01*
X69401Y65812D01*
X69070Y65591D01*
X68533Y65054D01*
X68033Y65261D01*
Y70674D01*
X67980Y70944D01*
X67827Y71173D01*
X67598Y71326D01*
X67328Y71380D01*
X67260D01*
Y72314D01*
X72371Y77425D01*
X81653D01*
X82017Y77061D01*
D02*
G37*
G36*
X4819Y75003D02*
X5683Y73711D01*
X6782Y72612D01*
X8074Y71748D01*
X9510Y71154D01*
X10876Y70882D01*
X10826Y70382D01*
X6587D01*
Y63476D01*
X13098D01*
Y66008D01*
X14862D01*
X15252Y66086D01*
X15583Y66307D01*
X16764Y67488D01*
X16985Y67818D01*
X17063Y68209D01*
Y69066D01*
X17898Y69901D01*
X18398Y69693D01*
Y63476D01*
X24909D01*
Y65909D01*
X25976D01*
Y64854D01*
X26342D01*
X26533Y64392D01*
X26051Y63910D01*
X25830Y63579D01*
X25752Y63189D01*
Y60827D01*
X25830Y60437D01*
X26051Y60106D01*
X26796Y59360D01*
X26699Y58870D01*
X26620Y58837D01*
X26202Y58420D01*
X25976Y57874D01*
Y57284D01*
X25514Y57123D01*
X25236Y57795D01*
X24792Y58374D01*
X24213Y58819D01*
X23539Y59098D01*
X22815Y59193D01*
X20362D01*
Y56898D01*
X25545D01*
X25515Y57121D01*
X25977Y57282D01*
X26202Y56738D01*
X26620Y56321D01*
X27165Y56094D01*
X27503D01*
X27626Y55972D01*
X27956Y55751D01*
X28346Y55673D01*
X31429D01*
X31819Y55751D01*
X32150Y55972D01*
X32836Y56658D01*
X38062D01*
X38547Y56172D01*
Y55520D01*
X37984D01*
Y50779D01*
X42134D01*
Y52130D01*
X43753D01*
X43992Y51891D01*
X44537Y51665D01*
X45128D01*
X45673Y51891D01*
X45912Y52130D01*
X46812D01*
X46833Y52106D01*
X47033Y51630D01*
X46981Y51553D01*
X46927Y51281D01*
Y49506D01*
X46981Y49235D01*
X47135Y49005D01*
Y48689D01*
X46819Y48264D01*
X46257D01*
X46018Y48502D01*
X45472Y48728D01*
X44882D01*
X44336Y48502D01*
X44098Y48264D01*
X42134D01*
Y49614D01*
X37984D01*
Y44874D01*
X42134D01*
Y46224D01*
X44098D01*
X44336Y45986D01*
X44882Y45760D01*
X45472D01*
X46018Y45986D01*
X46257Y46224D01*
X46954D01*
X46981Y46085D01*
X47135Y45855D01*
Y45539D01*
X46819Y45114D01*
X44685D01*
X44295Y45037D01*
X43964Y44815D01*
X43279Y44130D01*
X37697D01*
X37307Y44052D01*
X36976Y43831D01*
X33704Y40559D01*
X33366D01*
X32821Y40333D01*
X32403Y39916D01*
X32177Y39370D01*
Y38780D01*
X32403Y38234D01*
X32642Y37995D01*
Y36917D01*
X31882D01*
Y31587D01*
X35441D01*
Y31587D01*
X35622D01*
Y31587D01*
X36284D01*
Y30934D01*
X35897Y30547D01*
X30020D01*
X29629Y30470D01*
X29299Y30248D01*
X28118Y29067D01*
X27897Y28737D01*
X27819Y28346D01*
Y24111D01*
X27580Y23872D01*
X27354Y23327D01*
Y22736D01*
X27580Y22191D01*
X27998Y21773D01*
X28543Y21547D01*
X29134D01*
X29679Y21773D01*
X30097Y22191D01*
X30323Y22736D01*
Y23327D01*
X30097Y23872D01*
X29858Y24111D01*
Y27924D01*
X30442Y28508D01*
X36319D01*
X36709Y28586D01*
X37040Y28807D01*
X38024Y29791D01*
X38245Y30122D01*
X38323Y30512D01*
Y31587D01*
X39181D01*
Y31587D01*
X39362D01*
Y31587D01*
X42090D01*
X42281Y31125D01*
X40421Y29264D01*
X40200Y28934D01*
X40122Y28543D01*
Y28111D01*
X39681Y27968D01*
Y27968D01*
X37902D01*
Y24803D01*
Y21638D01*
X39681D01*
Y22138D01*
X42921D01*
X43075Y21701D01*
Y19988D01*
X42217D01*
Y15445D01*
X45972D01*
Y19988D01*
X45114D01*
Y23720D01*
X45037Y24111D01*
X44815Y24441D01*
X44028Y25229D01*
X43697Y25450D01*
X43307Y25528D01*
X42921D01*
Y27468D01*
X42161D01*
Y28121D01*
X45209Y31169D01*
X45430Y31500D01*
X45508Y31890D01*
Y33338D01*
X45796Y33626D01*
X46473D01*
X46546Y33533D01*
X46695Y33126D01*
X46510Y32850D01*
X46417Y32384D01*
Y31996D01*
X50295D01*
X54173D01*
Y32384D01*
X54080Y32850D01*
X53816Y33245D01*
X53562Y33415D01*
X53609Y33487D01*
X53663Y33758D01*
Y35533D01*
X53609Y35805D01*
X53456Y36034D01*
Y36406D01*
X53609Y36636D01*
X53663Y36908D01*
Y38683D01*
X53609Y38954D01*
X53456Y39184D01*
Y39556D01*
X53609Y39786D01*
X53663Y40057D01*
Y41833D01*
X53609Y42104D01*
X53456Y42334D01*
Y42650D01*
X53772Y43075D01*
X55582D01*
X55883Y42773D01*
X56214Y42552D01*
X56604Y42474D01*
X58655D01*
X58894Y42236D01*
X59439Y42010D01*
X60030D01*
X60575Y42236D01*
X60814Y42474D01*
X66833D01*
X66926Y42018D01*
X66917Y41974D01*
X66602Y41764D01*
X55185Y30347D01*
X54963Y30016D01*
X54886Y29626D01*
Y26078D01*
X54747Y26050D01*
X54517Y25897D01*
X54363Y25667D01*
X54309Y25396D01*
Y20077D01*
X54363Y19806D01*
X54517Y19576D01*
X54747Y19422D01*
X55018Y19368D01*
X56793D01*
X57064Y19422D01*
X57294Y19576D01*
X57666D01*
X57896Y19422D01*
X58167Y19368D01*
X59943D01*
X60214Y19422D01*
X60444Y19576D01*
X60816D01*
X61046Y19422D01*
X61317Y19368D01*
X63092D01*
X63364Y19422D01*
X63594Y19576D01*
X63966D01*
X64195Y19422D01*
X64467Y19368D01*
X66242D01*
X66513Y19422D01*
X66743Y19576D01*
X67115D01*
X67345Y19422D01*
X67616Y19368D01*
X69392D01*
X69663Y19422D01*
X69893Y19576D01*
X70265D01*
X70495Y19422D01*
X70766Y19368D01*
X72541D01*
X72812Y19422D01*
X73042Y19576D01*
X73414D01*
X73644Y19422D01*
X73915Y19368D01*
X75691D01*
X75962Y19422D01*
X76192Y19576D01*
X76564D01*
X76794Y19422D01*
X77065Y19368D01*
X78841D01*
X79112Y19422D01*
X79342Y19576D01*
X79495Y19806D01*
X79549Y20077D01*
Y25396D01*
X79495Y25667D01*
X79342Y25897D01*
X79112Y26050D01*
X78972Y26078D01*
Y27169D01*
X79211Y27407D01*
X79437Y27953D01*
Y28543D01*
X79211Y29089D01*
X78794Y29506D01*
X78248Y29732D01*
X77658D01*
X77112Y29506D01*
X76695Y29089D01*
X76649Y28978D01*
X76107D01*
X76061Y29089D01*
X75644Y29506D01*
X75098Y29732D01*
X74508D01*
X73962Y29506D01*
X73545Y29089D01*
X73319Y28543D01*
Y27953D01*
X73545Y27407D01*
X73784Y27169D01*
Y26078D01*
X73644Y26050D01*
X73414Y25897D01*
X73098D01*
X72673Y26212D01*
Y30909D01*
X72912Y31147D01*
X73138Y31693D01*
Y32283D01*
X72912Y32829D01*
X72494Y33246D01*
X72060Y33426D01*
X71862Y33803D01*
X71817Y33972D01*
X71848Y34020D01*
X74016D01*
X74406Y34097D01*
X74737Y34318D01*
X76508Y36090D01*
X76729Y36421D01*
X76807Y36811D01*
Y41145D01*
X77046Y41384D01*
X77272Y41929D01*
Y42520D01*
X77046Y43065D01*
X76628Y43483D01*
X76083Y43709D01*
X75976D01*
X75769Y44209D01*
X76631Y45071D01*
X76968D01*
X77514Y45297D01*
X77931Y45714D01*
X78158Y46260D01*
Y46850D01*
X77931Y47396D01*
X77514Y47813D01*
X77241Y47927D01*
X77109Y48501D01*
X78674Y50066D01*
X78895Y50397D01*
X78972Y50787D01*
Y52662D01*
X79112Y52690D01*
X79342Y52843D01*
X79495Y53073D01*
X79549Y53345D01*
Y54984D01*
X81020D01*
X81410Y55062D01*
X81741Y55283D01*
X83225Y56768D01*
X83563D01*
X84109Y56994D01*
X84526Y57411D01*
X84752Y57957D01*
Y58547D01*
X84682Y58717D01*
X84984Y59169D01*
X85474Y59150D01*
X85653Y58717D01*
X85553Y58616D01*
X85327Y58071D01*
Y57480D01*
X85553Y56935D01*
X85970Y56517D01*
X86516Y56291D01*
X86853D01*
X88547Y54597D01*
Y45472D01*
X88625Y45082D01*
X88846Y44752D01*
X93818Y39779D01*
X93611Y39279D01*
X93406D01*
X92860Y39054D01*
X92621Y38815D01*
X87385D01*
X87312Y38908D01*
X87164Y39315D01*
X87348Y39591D01*
X87441Y40057D01*
Y40445D01*
X83563D01*
X79685D01*
Y40057D01*
X79778Y39591D01*
X80042Y39196D01*
X80297Y39026D01*
X80249Y38954D01*
X80195Y38683D01*
Y36908D01*
X80249Y36636D01*
X80403Y36406D01*
Y36034D01*
X80249Y35805D01*
X80195Y35533D01*
Y33758D01*
X80249Y33487D01*
X80403Y33257D01*
Y32885D01*
X80249Y32655D01*
X80195Y32384D01*
Y30608D01*
X80249Y30337D01*
X80403Y30107D01*
Y29735D01*
X80249Y29505D01*
X80195Y29234D01*
Y27459D01*
X80249Y27187D01*
X80403Y26958D01*
X80632Y26804D01*
X80904Y26750D01*
X86222D01*
X86494Y26804D01*
X86723Y26958D01*
X86877Y27187D01*
X86905Y27327D01*
X87995D01*
X88234Y27088D01*
X88780Y26862D01*
X89370D01*
X89916Y27088D01*
X90154Y27327D01*
X91723D01*
X91847Y26940D01*
X91854Y26827D01*
X91458Y26431D01*
X91232Y25886D01*
Y25295D01*
X91458Y24750D01*
X91876Y24332D01*
X92421Y24106D01*
X92759D01*
X94453Y22412D01*
Y8100D01*
X93082Y6728D01*
X83264D01*
X83026Y6967D01*
X82480Y7193D01*
X81890D01*
X81344Y6967D01*
X80927Y6549D01*
X80701Y6004D01*
Y5413D01*
X80887Y4964D01*
X80677Y4465D01*
X54940D01*
X54733Y4964D01*
X57217Y7448D01*
X57438Y7779D01*
X57516Y8169D01*
Y13881D01*
X57754Y14120D01*
X57980Y14665D01*
Y15256D01*
X57754Y15801D01*
X57337Y16219D01*
X56791Y16445D01*
X56201D01*
X55655Y16219D01*
X55238Y15801D01*
X55012Y15256D01*
Y14665D01*
X55238Y14120D01*
X55476Y13881D01*
Y8592D01*
X53121Y6236D01*
X50660D01*
X50072Y6823D01*
X49742Y7044D01*
X49352Y7122D01*
X43796D01*
X43557Y7361D01*
X43012Y7587D01*
X42421D01*
X41876Y7361D01*
X41458Y6943D01*
X41232Y6398D01*
Y5807D01*
X41458Y5262D01*
X41755Y4964D01*
X41585Y4465D01*
X40481D01*
X38462Y6484D01*
Y9560D01*
X38701Y9799D01*
X38927Y10345D01*
Y10935D01*
X38701Y11480D01*
X38283Y11898D01*
X37738Y12124D01*
X37147D01*
X36601Y11898D01*
X36363Y11659D01*
X33685D01*
Y17315D01*
X34049Y17659D01*
X34712Y16996D01*
X35043Y16775D01*
X35433Y16697D01*
X36705D01*
Y15445D01*
X40461D01*
Y19988D01*
X36705D01*
Y18736D01*
X35855D01*
X34681Y19910D01*
Y21495D01*
X35122Y21638D01*
Y21638D01*
X36902D01*
Y24803D01*
Y27968D01*
X35122D01*
Y27468D01*
X31882D01*
Y22138D01*
X32642D01*
Y19488D01*
X32719Y19098D01*
X32940Y18767D01*
X34014Y17694D01*
X33671Y17330D01*
X24985D01*
Y3930D01*
X33685D01*
Y9620D01*
X36363D01*
X36423Y9560D01*
Y6062D01*
X36500Y5672D01*
X36721Y5341D01*
X39045Y3017D01*
X38838Y2517D01*
X7874D01*
X7739Y2490D01*
X6476Y2656D01*
X5173Y3196D01*
X4054Y4054D01*
X3196Y5173D01*
X2656Y6476D01*
X2490Y7739D01*
X2517Y7874D01*
Y20179D01*
X2954Y20347D01*
X3017Y20356D01*
X3582Y19921D01*
X4257Y19642D01*
X4980Y19547D01*
X6055D01*
Y22343D01*
Y25138D01*
X6040D01*
X5712Y25638D01*
X5815Y25886D01*
Y26476D01*
X5589Y27022D01*
X5350Y27261D01*
Y47904D01*
X11646Y54200D01*
X11867Y54531D01*
X11945Y54921D01*
Y59350D01*
X11867Y59741D01*
X11646Y60071D01*
X10170Y61548D01*
X9839Y61769D01*
X9449Y61846D01*
X6525D01*
X4169Y64202D01*
Y75266D01*
X4669Y75365D01*
X4819Y75003D01*
D02*
G37*
G36*
X7055Y53602D02*
X7457D01*
X7664Y53102D01*
X3610Y49048D01*
X3389Y48717D01*
X3311Y48327D01*
Y27261D01*
X3072Y27022D01*
X3017Y26888D01*
X2517Y26987D01*
Y54234D01*
X2954Y54402D01*
X3017Y54411D01*
X3582Y53977D01*
X4257Y53697D01*
X4980Y53602D01*
X6055D01*
Y56398D01*
X7055D01*
Y53602D01*
D02*
G37*
G36*
X72110Y42796D02*
Y39792D01*
X65030Y32713D01*
X61141D01*
X60966Y32995D01*
X60924Y33202D01*
X67745Y40024D01*
X67917D01*
X68155Y39785D01*
X68701Y39559D01*
X69291D01*
X69837Y39785D01*
X70254Y40203D01*
X70480Y40748D01*
Y41339D01*
X70254Y41884D01*
X70164Y41974D01*
X70371Y42474D01*
X70659D01*
X71050Y42552D01*
X71380Y42773D01*
X71610Y43003D01*
X72110Y42796D01*
D02*
G37*
G36*
X97996Y23889D02*
Y9949D01*
X96744D01*
X96492Y10344D01*
Y22835D01*
X96414Y23225D01*
X96193Y23556D01*
X94201Y25548D01*
Y25886D01*
X93975Y26431D01*
X93579Y26827D01*
X93586Y26940D01*
X93710Y27327D01*
X94558D01*
X97996Y23889D01*
D02*
G37*
G36*
X112566Y4003D02*
X112897Y3782D01*
X113287Y3705D01*
X125000D01*
X125390Y3782D01*
X125721Y4003D01*
X126603Y4886D01*
X130602D01*
Y2517D01*
X101418D01*
X101211Y3017D01*
X103182Y4988D01*
X103403Y5319D01*
X103480Y5709D01*
Y5799D01*
X107980D01*
Y6854D01*
X109715D01*
X112566Y4003D01*
D02*
G37*
%LPC*%
G36*
X101287Y151681D02*
X96744D01*
Y147531D01*
X97996D01*
Y145636D01*
X98074Y145246D01*
X98295Y144915D01*
X98420Y144790D01*
X98417Y144783D01*
Y144193D01*
X98643Y143647D01*
X99061Y143230D01*
X99606Y143004D01*
X100197D01*
X100742Y143230D01*
X101160Y143647D01*
X101386Y144193D01*
Y144783D01*
X101160Y145329D01*
X100742Y145747D01*
X100197Y145972D01*
X100121D01*
X100035Y146058D01*
Y147531D01*
X101287D01*
Y151681D01*
D02*
G37*
G36*
X48264Y143476D02*
X40972D01*
Y136185D01*
X41240D01*
X42745Y136485D01*
X44163Y137072D01*
X45439Y137925D01*
X46524Y139010D01*
X47377Y140286D01*
X47964Y141704D01*
X48264Y143209D01*
Y143476D01*
D02*
G37*
G36*
X82115Y144713D02*
X79240D01*
Y142331D01*
X82115D01*
Y144713D01*
D02*
G37*
G36*
X78240D02*
X75366D01*
Y142331D01*
X78240D01*
Y144713D01*
D02*
G37*
G36*
X92535Y145291D02*
X89083D01*
Y142035D01*
X92535D01*
Y145291D01*
D02*
G37*
G36*
X88083D02*
X84630D01*
Y142035D01*
X88083D01*
Y145291D01*
D02*
G37*
G36*
X82115Y141331D02*
X79240D01*
Y138948D01*
X82115D01*
Y141331D01*
D02*
G37*
G36*
X78240D02*
X75366D01*
Y138948D01*
X78240D01*
Y141331D01*
D02*
G37*
G36*
X92535Y141035D02*
X84630D01*
Y137779D01*
X85054D01*
X85130Y137311D01*
X85130Y137279D01*
Y134681D01*
X81615D01*
Y136142D01*
X75866D01*
Y131378D01*
X77819D01*
Y130017D01*
X77482Y129679D01*
X77256Y129134D01*
Y128543D01*
X77482Y127998D01*
X77899Y127580D01*
X78445Y127354D01*
X79035D01*
X79581Y127580D01*
X79998Y127998D01*
X80224Y128543D01*
Y129134D01*
X79998Y129679D01*
X79858Y129820D01*
Y131378D01*
X81615D01*
Y132642D01*
X85130D01*
Y130799D01*
X92035D01*
Y137279D01*
X92035Y137311D01*
X92111Y137779D01*
X92535D01*
Y141035D01*
D02*
G37*
G36*
X106839Y135685D02*
Y132390D01*
X110134D01*
X109875Y133355D01*
X109376Y134220D01*
X108669Y134927D01*
X107803Y135426D01*
X106839Y135685D01*
D02*
G37*
G36*
X105839D02*
X104874Y135426D01*
X104008Y134927D01*
X103302Y134220D01*
X102802Y133355D01*
X102543Y132390D01*
X105839D01*
Y135685D01*
D02*
G37*
G36*
X110134Y131390D02*
X106839D01*
Y128095D01*
X107803Y128353D01*
X108669Y128853D01*
X109376Y129559D01*
X109875Y130425D01*
X110134Y131390D01*
D02*
G37*
G36*
X105839D02*
X102543D01*
X102802Y130425D01*
X103302Y129559D01*
X104008Y128853D01*
X104874Y128353D01*
X105839Y128095D01*
Y131390D01*
D02*
G37*
G36*
X106772Y125343D02*
X105905D01*
X105067Y125118D01*
X104315Y124684D01*
X103702Y124071D01*
X103268Y123319D01*
X103043Y122481D01*
Y121613D01*
X103268Y120775D01*
X103702Y120024D01*
X104315Y119410D01*
X105067Y118976D01*
X105905Y118752D01*
X106772D01*
X107610Y118976D01*
X108362Y119410D01*
X108976Y120024D01*
X109409Y120775D01*
X109634Y121613D01*
Y122481D01*
X109409Y123319D01*
X108976Y124071D01*
X108362Y124684D01*
X107610Y125118D01*
X106772Y125343D01*
D02*
G37*
G36*
X51576D02*
X50708D01*
X49870Y125118D01*
X49118Y124684D01*
X48505Y124071D01*
X48071Y123319D01*
X47846Y122481D01*
Y121613D01*
X48071Y120775D01*
X48505Y120024D01*
X49118Y119410D01*
X49870Y118976D01*
X50708Y118752D01*
X51576D01*
X52414Y118976D01*
X53165Y119410D01*
X53779Y120024D01*
X54212Y120775D01*
X54437Y121613D01*
Y122481D01*
X54212Y123319D01*
X53779Y124071D01*
X53165Y124684D01*
X52414Y125118D01*
X51576Y125343D01*
D02*
G37*
G36*
X79232Y126583D02*
X78642D01*
X78096Y126357D01*
X77679Y125939D01*
X77453Y125394D01*
Y124803D01*
X77679Y124258D01*
X78096Y123840D01*
X78642Y123614D01*
X78979D01*
X81658Y120936D01*
Y119201D01*
X80209D01*
Y118146D01*
X77272D01*
Y119201D01*
X72335D01*
Y118146D01*
X69398D01*
Y119201D01*
X64461D01*
Y115051D01*
X69398D01*
Y116106D01*
X72335D01*
Y115051D01*
X77272D01*
Y116106D01*
X80209D01*
Y115051D01*
X85146D01*
Y119201D01*
X83697D01*
Y121358D01*
X83619Y121748D01*
X83398Y122079D01*
X80421Y125056D01*
Y125394D01*
X80195Y125939D01*
X79778Y126357D01*
X79232Y126583D01*
D02*
G37*
G36*
X106772Y117469D02*
X105905D01*
X105067Y117244D01*
X104315Y116810D01*
X103702Y116197D01*
X103268Y115445D01*
X103043Y114607D01*
Y113739D01*
X103268Y112901D01*
X103702Y112150D01*
X104315Y111536D01*
X105067Y111102D01*
X105905Y110878D01*
X106772D01*
X107610Y111102D01*
X108362Y111536D01*
X108976Y112150D01*
X109409Y112901D01*
X109634Y113739D01*
Y114607D01*
X109409Y115445D01*
X108976Y116197D01*
X108362Y116810D01*
X107610Y117244D01*
X106772Y117469D01*
D02*
G37*
G36*
X51576D02*
X50708D01*
X49870Y117244D01*
X49118Y116810D01*
X48505Y116197D01*
X48071Y115445D01*
X47846Y114607D01*
Y113739D01*
X48071Y112901D01*
X48505Y112150D01*
X49118Y111536D01*
X49870Y111102D01*
X50708Y110878D01*
X51576D01*
X52414Y111102D01*
X53165Y111536D01*
X53779Y112150D01*
X54212Y112901D01*
X54437Y113739D01*
Y114607D01*
X54212Y115445D01*
X53779Y116197D01*
X53165Y116810D01*
X52414Y117244D01*
X51576Y117469D01*
D02*
G37*
G36*
X85146Y113295D02*
X80209D01*
Y109146D01*
X81658D01*
Y107477D01*
X81419Y107238D01*
X81193Y106693D01*
Y106102D01*
X81419Y105557D01*
X81836Y105139D01*
X82382Y104913D01*
X82972D01*
X83518Y105139D01*
X83935Y105557D01*
X84161Y106102D01*
Y106693D01*
X83935Y107238D01*
X83697Y107477D01*
Y109146D01*
X85146D01*
Y113295D01*
D02*
G37*
G36*
X77272D02*
X72335D01*
Y109146D01*
X73784D01*
Y107477D01*
X73545Y107238D01*
X73319Y106693D01*
Y106102D01*
X73545Y105557D01*
X73962Y105139D01*
X74508Y104913D01*
X75098D01*
X75644Y105139D01*
X76061Y105557D01*
X76287Y106102D01*
Y106693D01*
X76061Y107238D01*
X75823Y107477D01*
Y109146D01*
X77272D01*
Y113295D01*
D02*
G37*
G36*
X69398D02*
X64461D01*
Y109146D01*
X65909D01*
Y107477D01*
X65671Y107238D01*
X65445Y106693D01*
Y106102D01*
X65671Y105557D01*
X66088Y105139D01*
X66634Y104913D01*
X67224D01*
X67770Y105139D01*
X68187Y105557D01*
X68413Y106102D01*
Y106693D01*
X68187Y107238D01*
X67949Y107477D01*
Y109146D01*
X69398D01*
Y113295D01*
D02*
G37*
G36*
X51642Y108126D02*
Y104831D01*
X54937D01*
X54678Y105796D01*
X54179Y106661D01*
X53472Y107368D01*
X52607Y107867D01*
X51642Y108126D01*
D02*
G37*
G36*
X50642D02*
X49677Y107867D01*
X48811Y107368D01*
X48105Y106661D01*
X47605Y105796D01*
X47347Y104831D01*
X50642D01*
Y108126D01*
D02*
G37*
G36*
Y103831D02*
X47347D01*
X47605Y102866D01*
X48105Y102000D01*
X48811Y101294D01*
X49677Y100794D01*
X50642Y100536D01*
Y103831D01*
D02*
G37*
G36*
X54937D02*
X51642D01*
Y100536D01*
X52607Y100794D01*
X53472Y101294D01*
X54179Y102000D01*
X54678Y102866D01*
X54937Y103831D01*
D02*
G37*
G36*
X117775Y100035D02*
X117508D01*
Y92744D01*
X124799D01*
Y93011D01*
X124500Y94517D01*
X123913Y95935D01*
X123060Y97211D01*
X121975Y98296D01*
X120698Y99149D01*
X119281Y99736D01*
X117775Y100035D01*
D02*
G37*
G36*
X41240D02*
X40972D01*
Y92744D01*
X48264D01*
Y93011D01*
X47964Y94517D01*
X47377Y95935D01*
X46524Y97211D01*
X45439Y98296D01*
X44163Y99149D01*
X42745Y99736D01*
X41240Y100035D01*
D02*
G37*
G36*
X39972D02*
X39705D01*
X38200Y99736D01*
X36782Y99149D01*
X35506Y98296D01*
X34420Y97211D01*
X33568Y95935D01*
X32980Y94517D01*
X32681Y93011D01*
Y92744D01*
X39972D01*
Y100035D01*
D02*
G37*
G36*
X116508D02*
X116241D01*
X114735Y99736D01*
X113317Y99149D01*
X112041Y98296D01*
X110956Y97211D01*
X110103Y95935D01*
X109516Y94517D01*
X109216Y93011D01*
Y92744D01*
X116508D01*
Y100035D01*
D02*
G37*
G36*
X124799Y91744D02*
X117508D01*
Y84453D01*
X117775D01*
X119281Y84752D01*
X120698Y85339D01*
X121975Y86192D01*
X123060Y87277D01*
X123913Y88554D01*
X124500Y89972D01*
X124799Y91477D01*
Y91744D01*
D02*
G37*
G36*
X116508D02*
X109216D01*
Y91477D01*
X109516Y89972D01*
X110103Y88554D01*
X110956Y87277D01*
X112041Y86192D01*
X113317Y85339D01*
X114735Y84752D01*
X116241Y84453D01*
X116508D01*
Y91744D01*
D02*
G37*
G36*
X48264D02*
X40972D01*
Y84453D01*
X41240D01*
X42745Y84752D01*
X44163Y85339D01*
X45439Y86192D01*
X46524Y87277D01*
X47377Y88554D01*
X47964Y89972D01*
X48264Y91477D01*
Y91744D01*
D02*
G37*
G36*
X39972D02*
X32681D01*
Y91477D01*
X32980Y89972D01*
X33568Y88554D01*
X34420Y87277D01*
X35506Y86192D01*
X36782Y85339D01*
X38200Y84752D01*
X39705Y84453D01*
X39972D01*
Y91744D01*
D02*
G37*
G36*
X145169Y86630D02*
X144892D01*
X143368Y86327D01*
X141932Y85732D01*
X140640Y84869D01*
X139541Y83770D01*
X138678Y82477D01*
X138083Y81042D01*
X137779Y79517D01*
Y79240D01*
X145169D01*
Y86630D01*
D02*
G37*
G36*
X12588D02*
X12311D01*
Y79240D01*
X19701D01*
Y79517D01*
X19398Y81042D01*
X18803Y82477D01*
X17939Y83770D01*
X16840Y84869D01*
X15548Y85732D01*
X14112Y86327D01*
X12588Y86630D01*
D02*
G37*
G36*
X145169Y78240D02*
X137779D01*
Y77963D01*
X138083Y76439D01*
X138678Y75003D01*
X139541Y73711D01*
X140640Y72612D01*
X141932Y71748D01*
X143368Y71154D01*
X144892Y70850D01*
X145169D01*
Y78240D01*
D02*
G37*
G36*
X82328Y71890D02*
X81740D01*
Y68118D01*
X83543D01*
Y70674D01*
X83451Y71139D01*
X83187Y71534D01*
X82793Y71797D01*
X82328Y71890D01*
D02*
G37*
G36*
X80740D02*
X80153D01*
X79688Y71797D01*
X79293Y71534D01*
X79030Y71139D01*
X78937Y70674D01*
Y68118D01*
X80740D01*
Y71890D01*
D02*
G37*
G36*
X60740D02*
X60153D01*
X59688Y71797D01*
X59293Y71534D01*
X59030Y71139D01*
X58937Y70674D01*
Y68118D01*
X60740D01*
Y71890D01*
D02*
G37*
G36*
X47547Y69201D02*
X43398D01*
Y67949D01*
X37213D01*
Y69004D01*
X32669D01*
Y64854D01*
X37213D01*
Y65909D01*
X43398D01*
Y64657D01*
X47547D01*
Y69201D01*
D02*
G37*
G36*
X117775Y73028D02*
X117508D01*
Y65736D01*
X124799D01*
Y66004D01*
X124500Y67509D01*
X123913Y68927D01*
X123060Y70203D01*
X121975Y71288D01*
X120698Y72141D01*
X119281Y72728D01*
X117775Y73028D01*
D02*
G37*
G36*
X116508D02*
X116241D01*
X114735Y72728D01*
X113317Y72141D01*
X112041Y71288D01*
X110956Y70203D01*
X110103Y68927D01*
X109516Y67509D01*
X109216Y66004D01*
Y65736D01*
X116508D01*
Y73028D01*
D02*
G37*
G36*
X60740Y67118D02*
X58937D01*
Y64562D01*
X59030Y64097D01*
X59293Y63703D01*
X59688Y63439D01*
X60153Y63347D01*
X60740D01*
Y67118D01*
D02*
G37*
G36*
X124799Y64736D02*
X117508D01*
Y57445D01*
X117775D01*
X119281Y57744D01*
X120698Y58332D01*
X121975Y59184D01*
X123060Y60269D01*
X123913Y61546D01*
X124500Y62964D01*
X124799Y64469D01*
Y64736D01*
D02*
G37*
G36*
X116508D02*
X109216D01*
Y64469D01*
X109516Y62964D01*
X110103Y61546D01*
X110956Y60269D01*
X112041Y59184D01*
X113317Y58332D01*
X114735Y57744D01*
X116241Y57445D01*
X116508D01*
Y64736D01*
D02*
G37*
G36*
X106839Y56945D02*
Y53650D01*
X110134D01*
X109875Y54615D01*
X109376Y55480D01*
X108669Y56187D01*
X107803Y56686D01*
X106839Y56945D01*
D02*
G37*
G36*
X110134Y52650D02*
X106839D01*
Y49354D01*
X107803Y49613D01*
X108669Y50113D01*
X109376Y50819D01*
X109875Y51685D01*
X110134Y52650D01*
D02*
G37*
G36*
X106772Y46602D02*
X105905D01*
X105067Y46378D01*
X104315Y45944D01*
X103702Y45330D01*
X103268Y44579D01*
X103043Y43741D01*
Y42873D01*
X103268Y42035D01*
X103702Y41284D01*
X104315Y40670D01*
X105067Y40236D01*
X105905Y40012D01*
X106772D01*
X107610Y40236D01*
X108362Y40670D01*
X108976Y41284D01*
X109409Y42035D01*
X109634Y42873D01*
Y43741D01*
X109409Y44579D01*
X108976Y45330D01*
X108362Y45944D01*
X107610Y46378D01*
X106772Y46602D01*
D02*
G37*
G36*
Y38728D02*
X105905D01*
X105067Y38504D01*
X104315Y38070D01*
X103702Y37456D01*
X103268Y36705D01*
X103043Y35867D01*
Y34999D01*
X103268Y34161D01*
X103702Y33410D01*
X104315Y32796D01*
X105067Y32362D01*
X105905Y32138D01*
X106772D01*
X107610Y32362D01*
X108362Y32796D01*
X108976Y33410D01*
X109409Y34161D01*
X109634Y34999D01*
Y35867D01*
X109409Y36705D01*
X108976Y37456D01*
X108362Y38070D01*
X107610Y38504D01*
X106772Y38728D01*
D02*
G37*
G36*
X117775Y21295D02*
X117508D01*
Y14004D01*
X124799D01*
Y14271D01*
X124500Y15777D01*
X123913Y17195D01*
X123060Y18471D01*
X121975Y19556D01*
X120698Y20409D01*
X119281Y20996D01*
X117775Y21295D01*
D02*
G37*
G36*
X116508D02*
X116241D01*
X114735Y20996D01*
X113317Y20409D01*
X112041Y19556D01*
X110956Y18471D01*
X110103Y17195D01*
X109516Y15777D01*
X109216Y14271D01*
Y14004D01*
X116508D01*
Y21295D01*
D02*
G37*
G36*
X19362Y59193D02*
X16909D01*
X16186Y59098D01*
X15512Y58819D01*
X14933Y58374D01*
X14488Y57795D01*
X14209Y57121D01*
X14180Y56898D01*
X19362D01*
Y59193D01*
D02*
G37*
G36*
X86222Y52500D02*
X84063D01*
Y50894D01*
X87441D01*
Y51281D01*
X87348Y51748D01*
X87084Y52143D01*
X86689Y52407D01*
X86222Y52500D01*
D02*
G37*
G36*
X83063D02*
X80904D01*
X80437Y52407D01*
X80042Y52143D01*
X79778Y51748D01*
X79685Y51281D01*
Y50894D01*
X83063D01*
Y52500D01*
D02*
G37*
G36*
X25545Y55898D02*
X19862D01*
X14180D01*
X14209Y55674D01*
X14488Y55000D01*
X14933Y54421D01*
X15512Y53977D01*
X16186Y53697D01*
X16909Y53602D01*
X17225D01*
X17324Y53102D01*
X17114Y53015D01*
X16473Y52374D01*
X16145Y51583D01*
X18406D01*
Y50583D01*
X16145D01*
X16473Y49791D01*
X17079Y49185D01*
X16873Y48783D01*
X16855Y48756D01*
X14862D01*
X14472Y48678D01*
X14141Y48457D01*
X10893Y45209D01*
X10672Y44878D01*
X10595Y44488D01*
Y28346D01*
Y24505D01*
X10152Y24337D01*
X10095Y24329D01*
X9528Y24764D01*
X8854Y25043D01*
X8130Y25138D01*
X7055D01*
Y22343D01*
Y19547D01*
X8130D01*
X8398Y19582D01*
X8688Y19116D01*
X8605Y18993D01*
X8528Y18602D01*
Y17330D01*
X5685D01*
Y3930D01*
X14385D01*
Y17330D01*
X10567D01*
Y18180D01*
X12335Y19948D01*
X12556Y20279D01*
X12634Y20669D01*
Y27924D01*
X14694Y29984D01*
X16855D01*
X16873Y29957D01*
X17079Y29555D01*
X16473Y28949D01*
X16145Y28157D01*
X18406D01*
Y27158D01*
X16145D01*
X16473Y26366D01*
X17114Y25725D01*
X17324Y25638D01*
X17225Y25138D01*
X16909D01*
X16186Y25043D01*
X15512Y24764D01*
X14933Y24319D01*
X14488Y23740D01*
X14209Y23066D01*
X14180Y22842D01*
X19862D01*
X25545D01*
X25515Y23066D01*
X25236Y23740D01*
X24792Y24319D01*
X24213Y24764D01*
X23937Y24878D01*
X24036Y25378D01*
X24174D01*
X25012Y25725D01*
X25653Y26366D01*
X25981Y27158D01*
X23720D01*
Y28157D01*
X25981D01*
X25653Y28949D01*
X25012Y29590D01*
X25219Y29981D01*
X25229Y29996D01*
X25229Y29996D01*
X25500Y30650D01*
Y31358D01*
X25229Y32012D01*
X24878Y32363D01*
X24780Y32677D01*
X24878Y32992D01*
X25229Y33342D01*
X25500Y33996D01*
Y34704D01*
X25229Y35358D01*
X24878Y35709D01*
X24780Y36024D01*
X24878Y36338D01*
X25218Y36677D01*
X27264D01*
X27654Y36755D01*
X27985Y36976D01*
X31430Y40421D01*
X31651Y40751D01*
X31728Y41142D01*
Y45444D01*
X32169Y45885D01*
X32669Y45678D01*
Y44874D01*
X36819D01*
Y49614D01*
X32669D01*
Y48264D01*
X32087D01*
X31696Y48186D01*
X31366Y47965D01*
X30161Y46761D01*
X29661Y46968D01*
Y50660D01*
X31131Y52130D01*
X32669D01*
Y50779D01*
X36819D01*
Y55520D01*
X32669D01*
Y54169D01*
X30709D01*
X30318Y54092D01*
X29988Y53871D01*
X27921Y51804D01*
X27700Y51473D01*
X27622Y51083D01*
Y42548D01*
X27137Y42063D01*
X25218D01*
X24878Y42402D01*
X24780Y42717D01*
X24878Y43031D01*
X25229Y43382D01*
X25500Y44036D01*
Y44744D01*
X25229Y45398D01*
X24878Y45748D01*
X24780Y46063D01*
X24878Y46378D01*
X25229Y46728D01*
X25500Y47382D01*
Y48090D01*
X25412Y48303D01*
X25746Y48803D01*
X26000D01*
Y50583D01*
X23720D01*
Y51583D01*
X26000D01*
Y53362D01*
X24036D01*
X23937Y53862D01*
X24213Y53977D01*
X24792Y54421D01*
X25236Y55000D01*
X25515Y55674D01*
X25545Y55898D01*
D02*
G37*
G36*
X87441Y49894D02*
X83563D01*
X79685D01*
Y49506D01*
X79778Y49040D01*
X79926Y48819D01*
X79778Y48598D01*
X79685Y48132D01*
Y47744D01*
X83563D01*
X87441D01*
Y48132D01*
X87348Y48598D01*
X87200Y48819D01*
X87348Y49040D01*
X87441Y49506D01*
Y49894D01*
D02*
G37*
G36*
Y46744D02*
X83563D01*
X79685D01*
Y46356D01*
X79778Y45890D01*
X79926Y45669D01*
X79778Y45448D01*
X79685Y44982D01*
Y44594D01*
X83563D01*
X87441D01*
Y44982D01*
X87348Y45448D01*
X87200Y45669D01*
X87348Y45890D01*
X87441Y46356D01*
Y46744D01*
D02*
G37*
G36*
Y43595D02*
X83563D01*
X79685D01*
Y43207D01*
X79778Y42740D01*
X79926Y42520D01*
X79778Y42299D01*
X79685Y41833D01*
Y41445D01*
X83563D01*
X87441D01*
Y41833D01*
X87348Y42299D01*
X87200Y42520D01*
X87348Y42740D01*
X87441Y43207D01*
Y43595D01*
D02*
G37*
G36*
X29339Y35799D02*
Y34358D01*
X30779D01*
X30521Y34982D01*
X29963Y35540D01*
X29339Y35799D01*
D02*
G37*
G36*
X28339D02*
X27715Y35540D01*
X27156Y34982D01*
X26898Y34358D01*
X28339D01*
Y35799D01*
D02*
G37*
G36*
X30779Y33358D02*
X29339D01*
Y31918D01*
X29963Y32176D01*
X30521Y32734D01*
X30779Y33358D01*
D02*
G37*
G36*
X28339D02*
X26898D01*
X27156Y32734D01*
X27715Y32176D01*
X28339Y31918D01*
Y33358D01*
D02*
G37*
G36*
X54173Y30996D02*
X50295D01*
X46417D01*
Y30608D01*
X46510Y30142D01*
X46658Y29921D01*
X46510Y29700D01*
X46417Y29234D01*
Y28846D01*
X50295D01*
Y28346D01*
D01*
Y28846D01*
X54173D01*
Y29234D01*
X54080Y29700D01*
X53933Y29921D01*
X54080Y30142D01*
X54173Y30608D01*
Y30996D01*
D02*
G37*
G36*
Y27847D02*
X50795D01*
Y26240D01*
X52955D01*
X53421Y26333D01*
X53816Y26597D01*
X54080Y26992D01*
X54173Y27459D01*
Y27847D01*
D02*
G37*
G36*
X49795D02*
X46417D01*
Y27459D01*
X46510Y26992D01*
X46774Y26597D01*
X47170Y26333D01*
X47636Y26240D01*
X49795D01*
Y27847D01*
D02*
G37*
G36*
X25545Y21843D02*
X20362D01*
Y19547D01*
X22815D01*
X23539Y19642D01*
X24213Y19921D01*
X24792Y20366D01*
X25236Y20945D01*
X25515Y21619D01*
X25545Y21843D01*
D02*
G37*
G36*
X19362D02*
X14180D01*
X14209Y21619D01*
X14488Y20945D01*
X14933Y20366D01*
X15512Y19921D01*
X16186Y19642D01*
X16909Y19547D01*
X19362D01*
Y21843D01*
D02*
G37*
%LPD*%
G36*
X17248Y46378D02*
X17346Y46063D01*
X17248Y45748D01*
X16897Y45398D01*
X16626Y44744D01*
Y44036D01*
X16897Y43382D01*
X17248Y43031D01*
X17346Y42717D01*
X17248Y42402D01*
X16897Y42051D01*
X16626Y41397D01*
Y40689D01*
X16897Y40035D01*
X17248Y39685D01*
X17346Y39370D01*
X17248Y39056D01*
X16897Y38705D01*
X16626Y38051D01*
Y37343D01*
X16897Y36689D01*
X17248Y36338D01*
X17346Y36024D01*
X17248Y35709D01*
X16897Y35358D01*
X16626Y34704D01*
Y33996D01*
X16897Y33342D01*
X17248Y32992D01*
X17346Y32677D01*
X17248Y32363D01*
X16908Y32024D01*
X14272D01*
X13882Y31946D01*
X13551Y31725D01*
X13096Y31270D01*
X12634Y31461D01*
Y44066D01*
X15284Y46717D01*
X16908D01*
X17248Y46378D01*
D02*
G37*
D13*
X70177Y63090D02*
X76870D01*
X90403Y62254D02*
X92323Y60335D01*
X76870Y63090D02*
X77707Y62254D01*
X90403D01*
X75101Y59650D02*
X75687Y60236D01*
X88976D01*
X75101Y56302D02*
Y59650D01*
X81020Y56004D02*
X83268Y58252D01*
X88976Y60236D02*
X91535Y57677D01*
X77953Y56004D02*
X81020D01*
X74803D02*
X75101Y56302D01*
X41437Y24508D02*
X43307D01*
X41142Y24803D02*
X41437Y24508D01*
X43307D02*
X44094Y23720D01*
Y17717D02*
Y23720D01*
X92716Y25591D02*
X95472Y22835D01*
Y7677D02*
Y22835D01*
X82185Y5709D02*
X93504D01*
X95472Y7677D01*
X45177Y47244D02*
X50295D01*
X40059D02*
X45177D01*
X32413Y57677D02*
X38484D01*
X39567Y53642D02*
Y56595D01*
Y53642D02*
X40059Y53150D01*
X38484Y57677D02*
X39567Y56595D01*
X40059Y53150D02*
X44833D01*
X31429Y56693D02*
X32413Y57677D01*
X28346Y56693D02*
X31429D01*
X27461Y57579D02*
X28346Y56693D01*
X44833Y53150D02*
X49606D01*
X49352Y6102D02*
X50237Y5217D01*
X42717Y6102D02*
X49352D01*
X37442Y6062D02*
Y10640D01*
Y6062D02*
X40059Y3445D01*
X50237Y5217D02*
X53543D01*
X40059Y3445D02*
X100197D01*
X102461Y5709D01*
Y16535D01*
X101673Y17323D02*
X102461Y16535D01*
X101673Y17323D02*
Y21850D01*
X82858Y78445D02*
X83366D01*
X96949Y36811D02*
Y38091D01*
X89567Y45472D02*
X96949Y38091D01*
X89567Y45472D02*
Y55020D01*
X86811Y57776D02*
X89567Y55020D01*
X82732Y78445D02*
X82858Y78319D01*
X78323Y74508D02*
X83366D01*
X95866Y142717D02*
X98032Y140551D01*
X108661D01*
X95866Y142717D02*
Y146063D01*
X92618Y149311D02*
X95866Y146063D01*
X68012Y149311D02*
X92618D01*
X59252Y140551D02*
X68012Y149311D01*
X51772Y140551D02*
X59252D01*
X45374Y134153D02*
X51772Y140551D01*
X37303Y134153D02*
X45374D01*
X32480Y138976D02*
X37303Y134153D01*
X23917Y138976D02*
X32480D01*
X18701Y144193D02*
X23917Y138976D01*
X18701Y144193D02*
Y149606D01*
X16732Y151575D02*
X18701Y149606D01*
X11811Y151575D02*
X16732D01*
X99902Y144488D02*
Y144750D01*
X99016Y145636D02*
Y149606D01*
Y145636D02*
X99902Y144750D01*
X71949Y78445D02*
X82732D01*
X79216Y99311D02*
X81240Y97287D01*
X76575Y99311D02*
X79216D01*
X73819Y97441D02*
X76240Y95020D01*
Y89862D02*
Y95020D01*
X58465Y143898D02*
Y149606D01*
X56595Y87008D02*
Y126870D01*
X61240Y85216D02*
Y89862D01*
Y99980D01*
X59252Y101969D02*
X61240Y99980D01*
X63583Y61811D02*
Y80020D01*
X56595Y87008D02*
X63583Y80020D01*
X78839Y133661D02*
X88189D01*
X88583Y134055D01*
X78839Y128937D02*
Y133661D01*
X78740Y133760D02*
X78839Y133661D01*
X78740Y128839D02*
X78839Y128937D01*
X78937Y125098D02*
X82677Y121358D01*
X81240Y95217D02*
Y97287D01*
X83366Y78445D02*
X86240Y75571D01*
X28839Y23031D02*
Y28346D01*
X33661Y19488D02*
Y24803D01*
X35433Y17717D02*
X38583D01*
X33661Y19488D02*
X35433Y17717D01*
X82677Y117126D02*
Y121358D01*
X74803Y117126D02*
X82677D01*
X66929D02*
X74803D01*
X64764Y81693D02*
X78543D01*
X76181Y67677D02*
Y72366D01*
X78323Y74508D01*
X76181Y67677D02*
X76240Y67618D01*
X81240Y95217D02*
X82776Y96752D01*
X94587D01*
X73524Y101575D02*
X96949D01*
X99705Y104331D01*
X71240Y99291D02*
X73524Y101575D01*
X99705Y104331D02*
X106339D01*
X82677Y106398D02*
Y111221D01*
X74803Y106398D02*
Y111221D01*
X66929Y106398D02*
Y111221D01*
X59153Y108071D02*
Y128937D01*
Y108071D02*
X66240Y100984D01*
X56201Y131890D02*
X59153Y128937D01*
X51142Y131890D02*
X56201D01*
X4331Y26181D02*
Y48327D01*
X61240Y85216D02*
X64764Y81693D01*
X55905Y29626D02*
X67323Y41043D01*
X68996D01*
X55905Y22736D02*
Y29626D01*
X73130Y43012D02*
X76673Y46555D01*
X73130Y39370D02*
Y43012D01*
X65453Y31693D02*
X73130Y39370D01*
X61024Y31693D02*
X65453D01*
X59055Y29724D02*
X61024Y31693D01*
X59055Y22736D02*
Y29724D01*
X62205Y22736D02*
Y28248D01*
X93602Y33957D02*
X98327D01*
X99311Y34941D01*
Y38780D01*
X91535Y46555D02*
X99311Y38780D01*
X91535Y46555D02*
Y57677D01*
X96240Y50374D02*
Y67618D01*
X93701Y47835D02*
X96240Y50374D01*
X74016Y35039D02*
X75787Y36811D01*
X70965Y35039D02*
X74016D01*
X68504Y32579D02*
X70965Y35039D01*
X63583Y61811D02*
X65059Y63287D01*
X68209D01*
X66535Y61713D02*
X68799D01*
X65256Y60433D02*
X66535Y61713D01*
X68799D02*
X70177Y63090D01*
X69791Y64870D02*
X70461D01*
X71240Y65650D02*
Y67618D01*
X70461Y64870D02*
X71240Y65650D01*
X68209Y63287D02*
X69791Y64870D01*
X65256Y56102D02*
Y60433D01*
Y56102D02*
X65354Y56004D01*
X71653D02*
X71703Y56053D01*
Y60974D02*
X71752Y61024D01*
X71703Y56053D02*
Y60974D01*
X75787Y36811D02*
Y42224D01*
X71653Y22736D02*
Y31988D01*
X55709Y62598D02*
X56890Y61417D01*
X39567Y62303D02*
X40354Y63090D01*
X29503Y62303D02*
X39567D01*
X26772Y60827D02*
Y63189D01*
X28248Y64665D01*
X26772Y60827D02*
X27854Y59744D01*
X41043D01*
X44783Y56004D01*
X55905D01*
X29345Y10640D02*
X37442D01*
X29335Y10630D02*
X29345Y10640D01*
X56890Y61417D02*
X60925D01*
X62205Y60138D01*
Y56004D02*
Y60138D01*
X28248Y74803D02*
X33169D01*
X37205Y70768D01*
X48327D01*
X49114Y69980D01*
Y67815D02*
Y69980D01*
Y67815D02*
X50000Y66929D01*
X52953D01*
X6594Y151575D02*
X11811D01*
X2968Y147949D02*
X6594Y151575D01*
X2968Y94177D02*
Y147949D01*
Y94177D02*
X6594Y90551D01*
X24114D01*
X30512Y84153D01*
X23130Y88878D02*
X28248Y83760D01*
X8169Y88878D02*
X23130D01*
X28248Y74803D02*
Y83760D01*
X30512Y80315D02*
X36024Y74803D01*
X30512Y80315D02*
Y84153D01*
X36024Y74803D02*
X49213D01*
X45472Y66929D02*
X45472Y66929D01*
X34941Y66929D02*
X45472D01*
X68504Y22736D02*
Y32579D01*
X56496Y8169D02*
Y14961D01*
X53543Y5217D02*
X56496Y8169D01*
X4331Y48327D02*
X10925Y54921D01*
Y59350D01*
X9449Y60827D02*
X10925Y59350D01*
X6102Y60827D02*
X9449D01*
X3150Y63779D02*
Y83858D01*
Y63779D02*
X6102Y60827D01*
X3150Y83858D02*
X8169Y88878D01*
X28248Y64665D02*
Y66929D01*
X21654D02*
X28248D01*
X16043Y69488D02*
X21358Y74803D01*
X16043Y68209D02*
Y69488D01*
X21358Y74803D02*
X21555D01*
X10531Y67028D02*
X14862D01*
X16043Y68209D01*
X9843Y66929D02*
X10433D01*
X10531Y67028D01*
X83563Y37795D02*
X93701D01*
X70659Y43494D02*
X77953Y50787D01*
Y56004D01*
X59734Y43494D02*
X70659D01*
X86240Y67618D02*
Y75571D01*
X66240Y72736D02*
X71949Y78445D01*
X66240Y67618D02*
Y72736D01*
X28839Y28346D02*
X30020Y29528D01*
X36319D01*
X37303Y30512D02*
Y33169D01*
X36319Y29528D02*
X37303Y30512D01*
Y33169D02*
X37402Y33268D01*
Y34252D01*
X99016Y7874D02*
Y24311D01*
X94980Y28346D02*
X99016Y24311D01*
X89075Y28346D02*
X94980D01*
X105709Y7874D02*
X110138D01*
X113287Y4724D01*
X105709Y149606D02*
X110138D01*
X113484Y152953D01*
X47441Y149606D02*
X51772D01*
X44094Y152953D02*
X47441Y149606D01*
X108661Y140551D02*
X113878Y135335D01*
X128839D01*
X138681Y145177D01*
Y149213D01*
X141142Y151673D01*
X144587D01*
X144685Y151575D02*
X145669D01*
X144587Y151673D02*
X144685Y151575D01*
X153839Y142323D02*
Y148524D01*
X150787Y151575D02*
X153839Y148524D01*
Y142323D02*
X153839Y6988D01*
X152756Y5906D02*
X153839Y6988D01*
X145669Y5906D02*
X152756D01*
X11614Y44488D02*
X14862Y47736D01*
X18406D01*
X11614Y28346D02*
Y44488D01*
X14272Y31004D02*
X18406D01*
X11614Y28346D02*
X14272Y31004D01*
X9547Y18602D02*
X11614Y20669D01*
Y28346D01*
X9547Y11713D02*
Y18602D01*
Y11713D02*
X10035Y11225D01*
Y10630D02*
Y11225D01*
X145669Y151575D02*
X150787D01*
X123130Y151673D02*
X133760D01*
X133858Y151575D01*
X121850Y152953D02*
X123130Y151673D01*
X113484Y152953D02*
X121850D01*
X32677D02*
X44094D01*
X23622Y151575D02*
X31299D01*
X32677Y152953D01*
X125000Y4724D02*
X126181Y5906D01*
X133858D01*
X113287Y4724D02*
X125000D01*
X83563Y28346D02*
X89075D01*
X83563Y31496D02*
X98721D01*
X101181Y33957D01*
Y70177D01*
X90158Y81201D02*
X101181Y70177D01*
X83957Y81201D02*
X90158D01*
X81240Y83917D02*
Y89862D01*
Y83917D02*
X83957Y81201D01*
X106339Y25591D02*
X121358D01*
X126378Y30610D01*
Y75590D01*
X120768Y81201D02*
X126378Y75590D01*
X93209Y81201D02*
X120768D01*
X91240Y83169D02*
X93209Y81201D01*
X91240Y83169D02*
Y89862D01*
X71240D02*
Y99291D01*
X66240Y89862D02*
Y100984D01*
X94587Y96752D02*
X96240Y95098D01*
Y89862D02*
Y95098D01*
X81240Y89862D02*
Y95217D01*
X91240Y67618D02*
X96240D01*
X86240Y89862D02*
X91240D01*
X56604Y43494D02*
X59734D01*
X56004Y44094D02*
X56604Y43494D01*
X50295Y44094D02*
X56004D01*
X44685D02*
X50295D01*
X43701Y43110D02*
X44685Y44094D01*
X33661Y39075D02*
X37697Y43110D01*
X43701D01*
X40551Y40945D02*
X50295D01*
X37402Y37795D02*
X40551Y40945D01*
X33661Y34252D02*
Y39075D01*
X37402Y34252D02*
Y37795D01*
X50098Y37992D02*
X50295Y37795D01*
X41732Y37992D02*
X50098D01*
X41142Y34252D02*
Y37402D01*
X41732Y37992D01*
X41142Y28543D02*
X44488Y31890D01*
Y33760D02*
X45374Y34646D01*
X41142Y24803D02*
Y28543D01*
X45374Y34646D02*
X50295D01*
X44488Y31890D02*
Y33760D01*
X74803Y22736D02*
Y28248D01*
X77953Y22736D02*
Y28248D01*
X65354Y22736D02*
Y28248D01*
X83563Y34646D02*
X89075D01*
X40059Y47244D02*
X40059Y47244D01*
X50295Y50394D02*
Y52461D01*
X49606Y53150D02*
X50295Y52461D01*
X32087Y47244D02*
X34744D01*
X30709Y45866D02*
X32087Y47244D01*
X30709Y41142D02*
Y45866D01*
X27264Y37697D02*
X30709Y41142D01*
X28642Y42126D02*
Y51083D01*
X27559Y41043D02*
X28642Y42126D01*
Y51083D02*
X30709Y53150D01*
X23720Y37697D02*
X27264D01*
X21752D02*
X23720D01*
Y41043D02*
X27559D01*
X30709Y53150D02*
X34744D01*
X18406Y41043D02*
X21752Y37697D01*
X18406Y47736D02*
X23720D01*
X18406Y31004D02*
X23720D01*
D15*
X78740Y133760D02*
D03*
Y141831D02*
D03*
D21*
X28248Y66929D02*
D03*
X34941D02*
D03*
X21555Y74803D02*
D03*
X28248D02*
D03*
X105709Y149606D02*
D03*
X99016D02*
D03*
X51772D02*
D03*
X58465D02*
D03*
X105709Y7874D02*
D03*
X99016D02*
D03*
D25*
X29335Y10630D02*
D03*
X10035D02*
D03*
D31*
X18406Y51083D02*
D03*
Y47736D02*
D03*
Y44390D02*
D03*
Y41043D02*
D03*
Y37697D02*
D03*
Y34350D02*
D03*
Y31004D02*
D03*
Y27657D02*
D03*
X23720D02*
D03*
Y31004D02*
D03*
Y34350D02*
D03*
Y37697D02*
D03*
Y41043D02*
D03*
Y44390D02*
D03*
Y47736D02*
D03*
D32*
Y51083D02*
D03*
D33*
X19862Y22343D02*
D03*
Y56398D02*
D03*
D34*
X6555Y22343D02*
D03*
Y56398D02*
D03*
D36*
X88583Y141535D02*
D03*
Y134055D02*
D03*
D37*
X33661Y24803D02*
D03*
X37402D02*
D03*
X41142D02*
D03*
Y34252D02*
D03*
X37402D02*
D03*
X33661D02*
D03*
D38*
X38583Y17717D02*
D03*
X44094D02*
D03*
D39*
X82677Y111221D02*
D03*
Y117126D02*
D03*
X74803Y111221D02*
D03*
Y117126D02*
D03*
X66929Y111221D02*
D03*
Y117126D02*
D03*
D40*
X49213Y74803D02*
D03*
X52953Y66929D02*
D03*
X45472D02*
D03*
D41*
X9843Y66929D02*
D03*
X21654D02*
D03*
X133858Y151575D02*
D03*
X145669D02*
D03*
X23622D02*
D03*
X11811D02*
D03*
X133858Y5906D02*
D03*
X145669D02*
D03*
D42*
X96240Y89862D02*
D03*
X91240D02*
D03*
X86240D02*
D03*
X81240D02*
D03*
X76240D02*
D03*
X71240D02*
D03*
X66240D02*
D03*
X61240D02*
D03*
X96240Y67618D02*
D03*
X91240D02*
D03*
X86240D02*
D03*
X81240D02*
D03*
X76240D02*
D03*
X71240D02*
D03*
X66240D02*
D03*
X61240D02*
D03*
D43*
X34744Y53150D02*
D03*
X40059D02*
D03*
X34744Y47244D02*
D03*
X40059D02*
D03*
D44*
X55905Y56004D02*
D03*
X59055D02*
D03*
X62205D02*
D03*
X65354D02*
D03*
X68504D02*
D03*
X71653D02*
D03*
X74803D02*
D03*
X77953D02*
D03*
Y22736D02*
D03*
X74803D02*
D03*
X71653D02*
D03*
X68504D02*
D03*
X65354D02*
D03*
X62205D02*
D03*
X59055D02*
D03*
X55905D02*
D03*
D45*
X83563Y50394D02*
D03*
Y47244D02*
D03*
Y44094D02*
D03*
Y40945D02*
D03*
Y37795D02*
D03*
Y34646D02*
D03*
Y31496D02*
D03*
Y28346D02*
D03*
X50295D02*
D03*
Y31496D02*
D03*
Y34646D02*
D03*
Y37795D02*
D03*
Y40945D02*
D03*
Y44094D02*
D03*
Y47244D02*
D03*
Y50394D02*
D03*
D46*
X145669Y78740D02*
D03*
X11811D02*
D03*
D47*
X51142Y114173D02*
D03*
Y122047D02*
D03*
Y104331D02*
D03*
Y131890D02*
D03*
X106339Y122047D02*
D03*
Y114173D02*
D03*
Y131890D02*
D03*
Y104331D02*
D03*
Y43307D02*
D03*
Y35433D02*
D03*
Y53150D02*
D03*
Y25591D02*
D03*
D48*
X40472Y143976D02*
D03*
Y92244D02*
D03*
X117008D02*
D03*
Y143976D02*
D03*
Y13504D02*
D03*
Y65236D02*
D03*
D49*
X83268Y58252D02*
D03*
X28839Y33858D02*
D03*
X82185Y5709D02*
D03*
X92716Y25591D02*
D03*
X27461Y57579D02*
D03*
X45177Y47244D02*
D03*
X44833Y53150D02*
D03*
X42717Y6102D02*
D03*
X101673Y21850D02*
D03*
X96949Y36811D02*
D03*
X86811Y57776D02*
D03*
X83366Y74508D02*
D03*
X99902Y144488D02*
D03*
X82858Y78319D02*
D03*
X76575Y99311D02*
D03*
X73819Y97441D02*
D03*
X58465Y143898D02*
D03*
X56595Y126870D02*
D03*
X59252Y101969D02*
D03*
X78740Y128839D02*
D03*
X78937Y125098D02*
D03*
X28839Y23031D02*
D03*
X33661Y39075D02*
D03*
X78543Y81693D02*
D03*
X82677Y106398D02*
D03*
X74803D02*
D03*
X66929D02*
D03*
X4331Y26181D02*
D03*
X68996Y41043D02*
D03*
X76673Y46555D02*
D03*
X62205Y28248D02*
D03*
X93602Y33957D02*
D03*
X93701Y47835D02*
D03*
X71653Y31988D02*
D03*
X63583Y61811D02*
D03*
X92323Y60335D02*
D03*
X71752Y61024D02*
D03*
X75787Y42224D02*
D03*
X55709Y62598D02*
D03*
X40354Y63090D02*
D03*
X29503Y62303D02*
D03*
X37442Y10640D02*
D03*
X56496Y14961D02*
D03*
X93701Y37795D02*
D03*
X89075Y28346D02*
D03*
X59734Y43494D02*
D03*
X74803Y28248D02*
D03*
X77953D02*
D03*
X65354D02*
D03*
X89075Y34646D02*
D03*
M02*
