M48
;Layer_Color=9474304
;FILE_FORMAT=2:4
INCH,TZ
;TYPE=PLATED
T1F00S00C0.0157
T3F00S00C0.0362
T4F00S00C0.0906
T5F00S00C0.0984
%
T01
X1841Y2766
Y3100
Y3435
Y3770
Y4104
Y4439
Y4774
Y5108
X2372
Y4774
Y4439
Y4104
Y3770
Y3435
Y3100
Y2766
T03
X10634Y2559
Y3543
Y4331
Y5315
Y10433
Y11417
Y12205
Y13189
X5114
Y12205
Y11417
Y10433
T04
X11701Y1350
Y6524
Y9224
Y14398
X4047
Y9224
T05
X14567Y7874
X1181
M30
