G04*
G04 #@! TF.GenerationSoftware,Altium Limited,Altium Designer,21.0.9 (235)*
G04*
G04 Layer_Color=32768*
%FSLAX25Y25*%
%MOIN*%
G70*
G04*
G04 #@! TF.SameCoordinates,0779874B-5586-4D04-955F-C3DAA35446A4*
G04*
G04*
G04 #@! TF.FilePolarity,Positive*
G04*
G01*
G75*
%ADD12C,0.00787*%
%ADD76C,0.00394*%
%ADD78C,0.00197*%
D12*
X74397Y129909D02*
Y145682D01*
X83083D01*
Y129909D02*
Y145682D01*
X74397Y129909D02*
X83083D01*
X26083Y69095D02*
X37106D01*
Y64764D02*
Y69095D01*
X26083Y64764D02*
X37106D01*
X26083D02*
Y69095D01*
X19390Y76968D02*
X30413D01*
Y72638D02*
Y76968D01*
X19390Y72638D02*
X30413D01*
X19390D02*
Y76968D01*
X96850Y147441D02*
Y151772D01*
Y147441D02*
X107874D01*
Y151772D01*
X96850D02*
X107874D01*
X60630Y147441D02*
Y151772D01*
X49606D02*
X60630D01*
X49606Y147441D02*
Y151772D01*
Y147441D02*
X60630D01*
X96850Y5709D02*
Y10039D01*
Y5709D02*
X107874D01*
Y10039D01*
X96850D02*
X107874D01*
X5791Y4036D02*
Y17224D01*
Y4036D02*
X33579D01*
Y17224D01*
X5791D02*
X33579D01*
X-11161Y58563D02*
X26909D01*
X-11161Y20177D02*
Y58563D01*
Y20177D02*
X26909D01*
Y58563D01*
D76*
X88583Y135827D02*
Y139764D01*
X86614Y137795D02*
X90551D01*
X37402Y27559D02*
Y31496D01*
X35433Y29528D02*
X39370D01*
X41339Y15945D02*
Y19488D01*
X39567Y17717D02*
X43110D01*
X82677Y112402D02*
Y115945D01*
X80905Y114173D02*
X84449D01*
X74803Y112402D02*
Y115945D01*
X73032Y114173D02*
X76575D01*
X66929Y112402D02*
Y115945D01*
X65158Y114173D02*
X68701D01*
X47244Y70866D02*
X51181D01*
X49213Y68898D02*
Y72835D01*
X15748Y64961D02*
Y68898D01*
X13780Y66929D02*
X17717D01*
X6693Y70866D02*
X24803D01*
X6693Y62992D02*
X24803D01*
X6693D02*
Y70866D01*
X24803Y62992D02*
Y70866D01*
X130709Y147638D02*
Y155512D01*
X148819Y147638D02*
Y155512D01*
X130709D02*
X148819D01*
X130709Y147638D02*
X148819D01*
X137795Y151575D02*
X141732D01*
X139764Y149606D02*
Y153543D01*
X26772Y147638D02*
Y155512D01*
X8661Y147638D02*
Y155512D01*
Y147638D02*
X26772D01*
X8661Y155512D02*
X26772D01*
X15748Y151575D02*
X19685D01*
X17717Y149606D02*
Y153543D01*
X130709Y1969D02*
Y9843D01*
X148819Y1969D02*
Y9843D01*
X130709D02*
X148819D01*
X130709Y1969D02*
X148819D01*
X137795Y5906D02*
X141732D01*
X139764Y3937D02*
Y7874D01*
X76772Y78740D02*
X80709D01*
X78740Y76772D02*
Y80709D01*
X35531Y53150D02*
X39272D01*
X37402Y51279D02*
Y55020D01*
X35531Y47244D02*
X39272D01*
X37402Y45374D02*
Y49114D01*
X66929Y37402D02*
Y41339D01*
X64961Y39370D02*
X68898D01*
D78*
X83661Y146260D02*
X93504D01*
X83661Y129331D02*
X93504D01*
Y146260D01*
X83661Y129331D02*
Y146260D01*
X30315Y21654D02*
X44488D01*
X30315Y37402D02*
X44488D01*
X30315Y21654D02*
Y37402D01*
X44488Y21654D02*
Y37402D01*
X36220Y20472D02*
X46457D01*
X36220Y14961D02*
X46457D01*
X36220D02*
Y20472D01*
X46457Y14961D02*
Y20472D01*
X78740Y107677D02*
X86614D01*
X78740Y120669D02*
X86614D01*
X78740Y107677D02*
Y120669D01*
X86614Y107677D02*
Y120669D01*
X70866Y107677D02*
X78740D01*
X70866Y120669D02*
X78740D01*
X70866Y107677D02*
Y120669D01*
X78740Y107677D02*
Y120669D01*
X62992Y107677D02*
X70866D01*
X62992Y120669D02*
X70866D01*
X62992Y107677D02*
Y120669D01*
X70866Y107677D02*
Y120669D01*
X55354Y64764D02*
Y76968D01*
X43071Y64764D02*
Y76968D01*
X55354D01*
X43071Y64764D02*
X55354D01*
X100394Y62402D02*
Y95079D01*
X57087Y62402D02*
Y95079D01*
X100394D01*
X57087Y62402D02*
X100394D01*
X32087Y50197D02*
Y56102D01*
X42717Y50197D02*
Y56102D01*
X32087D02*
X42717D01*
X32087Y50197D02*
X42717D01*
X32087Y44291D02*
Y50197D01*
X42717Y44291D02*
Y50197D01*
X32087D02*
X42717D01*
X32087Y44291D02*
X42717D01*
X46457Y18898D02*
X87402D01*
X46457Y59842D02*
X87402D01*
Y18898D02*
Y59842D01*
X46457Y18898D02*
Y59842D01*
X25591Y118110D02*
X29528D01*
X27559Y116142D02*
Y120079D01*
X127953Y118110D02*
X131890D01*
X129921Y116142D02*
Y120079D01*
X127953Y39370D02*
X131890D01*
X129921Y37402D02*
Y41339D01*
M02*
