G04*
G04 #@! TF.GenerationSoftware,Altium Limited,Altium Designer,21.0.9 (235)*
G04*
G04 Layer_Color=128*
%FSLAX25Y25*%
%MOIN*%
G70*
G04*
G04 #@! TF.SameCoordinates,0779874B-5586-4D04-955F-C3DAA35446A4*
G04*
G04*
G04 #@! TF.FilePolarity,Positive*
G04*
G01*
G75*
%ADD19R,0.03937X0.03150*%
%ADD24R,0.03150X0.03740*%
%ADD50R,0.03740X0.04134*%
%ADD51R,0.03347X0.03347*%
%ADD52R,0.05315X0.03740*%
%ADD53R,0.03150X0.03937*%
%ADD54R,0.02362X0.03150*%
%ADD55R,0.03765X0.04749*%
%ADD56R,0.07103X0.05328*%
%ADD57R,0.05315X0.04331*%
%ADD58R,0.03543X0.03150*%
%ADD59R,0.04134X0.03740*%
%ADD60R,0.05328X0.07103*%
%ADD61R,0.22047X0.08268*%
%ADD62R,0.05151X0.03960*%
G04:AMPARAMS|DCode=63|XSize=39.54mil|YSize=125.28mil|CornerRadius=17.2mil|HoleSize=0mil|Usage=FLASHONLY|Rotation=90.000|XOffset=0mil|YOffset=0mil|HoleType=Round|Shape=RoundedRectangle|*
%AMROUNDEDRECTD63*
21,1,0.03954,0.09088,0,0,90.0*
21,1,0.00514,0.12528,0,0,90.0*
1,1,0.03440,0.04544,0.00257*
1,1,0.03440,0.04544,-0.00257*
1,1,0.03440,-0.04544,-0.00257*
1,1,0.03440,-0.04544,0.00257*
%
%ADD63ROUNDEDRECTD63*%
G04:AMPARAMS|DCode=64|XSize=39.54mil|YSize=34.34mil|CornerRadius=17.17mil|HoleSize=0mil|Usage=FLASHONLY|Rotation=90.000|XOffset=0mil|YOffset=0mil|HoleType=Round|Shape=RoundedRectangle|*
%AMROUNDEDRECTD64*
21,1,0.03954,0.00000,0,0,90.0*
21,1,0.00520,0.03434,0,0,90.0*
1,1,0.03434,0.00000,0.00260*
1,1,0.03434,0.00000,-0.00260*
1,1,0.03434,0.00000,-0.00260*
1,1,0.03434,0.00000,0.00260*
%
%ADD64ROUNDEDRECTD64*%
%ADD65R,0.03434X0.03954*%
D19*
X98425Y10827D02*
D03*
Y16732D02*
D03*
X106299Y16732D02*
D03*
Y10827D02*
D03*
X41339Y108268D02*
D03*
Y114173D02*
D03*
Y127953D02*
D03*
Y122047D02*
D03*
X116142Y35433D02*
D03*
Y29528D02*
D03*
X116142Y43307D02*
D03*
Y49213D02*
D03*
Y122047D02*
D03*
Y127953D02*
D03*
Y114173D02*
D03*
Y108268D02*
D03*
X82677Y16732D02*
D03*
Y10827D02*
D03*
D24*
X34154Y122047D02*
D03*
X28839D02*
D03*
X34154Y114173D02*
D03*
X28839D02*
D03*
X128642Y35433D02*
D03*
X123327D02*
D03*
X128642Y43307D02*
D03*
X123327D02*
D03*
X128642Y122047D02*
D03*
X123327D02*
D03*
X128642Y114173D02*
D03*
X123327D02*
D03*
D50*
X35531Y53150D02*
D03*
X29823D02*
D03*
X35531Y47244D02*
D03*
X29823D02*
D03*
D51*
X84350Y94488D02*
D03*
X88878D02*
D03*
X64567D02*
D03*
X60039D02*
D03*
D52*
X33661Y29134D02*
D03*
Y23228D02*
D03*
D53*
X12795Y44390D02*
D03*
X6890D02*
D03*
X12795Y34350D02*
D03*
X6890D02*
D03*
X46260Y66929D02*
D03*
X40354D02*
D03*
D54*
X92323Y65236D02*
D03*
X97441D02*
D03*
D55*
X49311Y51181D02*
D03*
X41240D02*
D03*
X49311Y43307D02*
D03*
X41240D02*
D03*
D56*
X11811Y134939D02*
D03*
Y144588D02*
D03*
X145669Y22541D02*
D03*
Y12892D02*
D03*
D57*
X19685Y142520D02*
D03*
Y137008D02*
D03*
X137795Y93701D02*
D03*
Y99213D02*
D03*
Y14961D02*
D03*
Y20472D02*
D03*
X74803Y11024D02*
D03*
Y16535D02*
D03*
D58*
X27559Y136811D02*
D03*
Y142717D02*
D03*
X129921Y99410D02*
D03*
Y93504D02*
D03*
X129921Y20669D02*
D03*
Y14764D02*
D03*
X90551Y10827D02*
D03*
Y16732D02*
D03*
D59*
X19685Y114075D02*
D03*
Y108366D02*
D03*
Y122146D02*
D03*
Y127854D02*
D03*
X137795Y29626D02*
D03*
Y35335D02*
D03*
Y49114D02*
D03*
Y43406D02*
D03*
Y127854D02*
D03*
Y122146D02*
D03*
Y108366D02*
D03*
Y114075D02*
D03*
D60*
X106399Y94488D02*
D03*
X96750D02*
D03*
D61*
X97441Y78740D02*
D03*
X60039D02*
D03*
D62*
X29528Y7771D02*
D03*
Y13489D02*
D03*
X19685Y7771D02*
D03*
Y13489D02*
D03*
D63*
X56398Y36595D02*
D03*
D64*
X47382Y10650D02*
D03*
X56398D02*
D03*
D65*
X65413D02*
D03*
M02*
