G04*
G04 #@! TF.GenerationSoftware,Altium Limited,Altium Designer,21.0.9 (235)*
G04*
G04 Layer_Color=16711935*
%FSLAX25Y25*%
%MOIN*%
G70*
G04*
G04 #@! TF.SameCoordinates,0779874B-5586-4D04-955F-C3DAA35446A4*
G04*
G04*
G04 #@! TF.FilePolarity,Positive*
G04*
G01*
G75*
%ADD79C,0.03937*%
D79*
X0Y7874D02*
X67Y6846D01*
X268Y5836D01*
X599Y4861D01*
X1055Y3937D01*
X1627Y3081D01*
X2306Y2306D01*
X3081Y1627D01*
X3937Y1055D01*
X4861Y599D01*
X5836Y268D01*
X6846Y67D01*
X7874Y0D01*
X7874Y157480D02*
X6846Y157413D01*
X5836Y157212D01*
X4861Y156881D01*
X3937Y156425D01*
X3081Y155853D01*
X2306Y155174D01*
X1627Y154400D01*
X1055Y153543D01*
X599Y152620D01*
X268Y151644D01*
X67Y150634D01*
X0Y149606D01*
X157480Y149606D02*
X157413Y150634D01*
X157212Y151644D01*
X156881Y152620D01*
X156425Y153543D01*
X155853Y154400D01*
X155174Y155174D01*
X154400Y155853D01*
X153543Y156425D01*
X152620Y156881D01*
X151644Y157212D01*
X150634Y157413D01*
X149606Y157480D01*
Y0D02*
X150634Y67D01*
X151644Y268D01*
X152620Y599D01*
X153543Y1055D01*
X154400Y1627D01*
X155174Y2306D01*
X155853Y3081D01*
X156425Y3937D01*
X156881Y4861D01*
X157212Y5836D01*
X157413Y6846D01*
X157480Y7874D01*
X7874Y0D02*
X149606D01*
X0Y7874D02*
Y149606D01*
X7874Y157480D02*
X149606D01*
X157480Y7874D02*
Y149606D01*
M02*
