G04*
G04 #@! TF.GenerationSoftware,Altium Limited,Altium Designer,21.0.9 (235)*
G04*
G04 Layer_Physical_Order=2*
G04 Layer_Color=16711680*
%FSLAX25Y25*%
%MOIN*%
G70*
G04*
G04 #@! TF.SameCoordinates,DF5498ED-4C10-4E6D-B319-6E78A4A4F47C*
G04*
G04*
G04 #@! TF.FilePolarity,Positive*
G04*
G01*
G75*
%ADD13C,0.01000*%
%ADD31C,0.02559*%
%ADD32R,0.02559X0.02559*%
G04:AMPARAMS|DCode=33|XSize=35.43mil|YSize=94.49mil|CornerRadius=17.72mil|HoleSize=0mil|Usage=FLASHONLY|Rotation=270.000|XOffset=0mil|YOffset=0mil|HoleType=Round|Shape=RoundedRectangle|*
%AMROUNDEDRECTD33*
21,1,0.03543,0.05906,0,0,270.0*
21,1,0.00000,0.09449,0,0,270.0*
1,1,0.03543,-0.02953,0.00000*
1,1,0.03543,-0.02953,0.00000*
1,1,0.03543,0.02953,0.00000*
1,1,0.03543,0.02953,0.00000*
%
%ADD33ROUNDEDRECTD33*%
G04:AMPARAMS|DCode=34|XSize=35.43mil|YSize=66.93mil|CornerRadius=17.72mil|HoleSize=0mil|Usage=FLASHONLY|Rotation=270.000|XOffset=0mil|YOffset=0mil|HoleType=Round|Shape=RoundedRectangle|*
%AMROUNDEDRECTD34*
21,1,0.03543,0.03150,0,0,270.0*
21,1,0.00000,0.06693,0,0,270.0*
1,1,0.03543,-0.01575,0.00000*
1,1,0.03543,-0.01575,0.00000*
1,1,0.03543,0.01575,0.00000*
1,1,0.03543,0.01575,0.00000*
%
%ADD34ROUNDEDRECTD34*%
%ADD39R,0.03937X0.03150*%
%ADD43R,0.03150X0.03740*%
%ADD46C,0.13780*%
%ADD47C,0.05591*%
%ADD48C,0.13583*%
%ADD49C,0.01968*%
%ADD50R,0.03740X0.04134*%
%ADD51R,0.03347X0.03347*%
%ADD52R,0.05315X0.03740*%
%ADD53R,0.03150X0.03937*%
%ADD54R,0.02362X0.03150*%
%ADD55R,0.03765X0.04749*%
%ADD56R,0.07103X0.05328*%
%ADD57R,0.05315X0.04331*%
%ADD58R,0.03543X0.03150*%
%ADD59R,0.04134X0.03740*%
%ADD60R,0.05328X0.07103*%
%ADD61R,0.22047X0.08268*%
%ADD62R,0.05151X0.03960*%
G04:AMPARAMS|DCode=63|XSize=39.54mil|YSize=125.28mil|CornerRadius=17.2mil|HoleSize=0mil|Usage=FLASHONLY|Rotation=90.000|XOffset=0mil|YOffset=0mil|HoleType=Round|Shape=RoundedRectangle|*
%AMROUNDEDRECTD63*
21,1,0.03954,0.09088,0,0,90.0*
21,1,0.00514,0.12528,0,0,90.0*
1,1,0.03440,0.04544,0.00257*
1,1,0.03440,0.04544,-0.00257*
1,1,0.03440,-0.04544,-0.00257*
1,1,0.03440,-0.04544,0.00257*
%
%ADD63ROUNDEDRECTD63*%
G04:AMPARAMS|DCode=64|XSize=39.54mil|YSize=34.34mil|CornerRadius=17.17mil|HoleSize=0mil|Usage=FLASHONLY|Rotation=90.000|XOffset=0mil|YOffset=0mil|HoleType=Round|Shape=RoundedRectangle|*
%AMROUNDEDRECTD64*
21,1,0.03954,0.00000,0,0,90.0*
21,1,0.00520,0.03434,0,0,90.0*
1,1,0.03434,0.00000,0.00260*
1,1,0.03434,0.00000,-0.00260*
1,1,0.03434,0.00000,-0.00260*
1,1,0.03434,0.00000,0.00260*
%
%ADD64ROUNDEDRECTD64*%
%ADD65R,0.03434X0.03954*%
%ADD66C,0.00500*%
G36*
X149606Y154963D02*
X150098Y154943D01*
X151004Y154824D01*
X152307Y154284D01*
X153426Y153426D01*
X154284Y152307D01*
X154824Y151004D01*
X154943Y150098D01*
X154963Y149606D01*
X154963Y149606D01*
X154963Y149111D01*
Y8371D01*
X154963Y8367D01*
X154963Y7874D01*
X154943Y7382D01*
X154824Y6476D01*
X154284Y5173D01*
X153426Y4054D01*
X152307Y3196D01*
X151004Y2656D01*
X150098Y2537D01*
X149606Y2517D01*
X149606Y2517D01*
X149114Y2517D01*
X81125D01*
X81037Y2640D01*
X80935Y3017D01*
X82143Y4224D01*
X82480D01*
X83026Y4450D01*
X83443Y4868D01*
X83669Y5413D01*
Y6004D01*
X83443Y6549D01*
X83026Y6967D01*
X82480Y7193D01*
X81890D01*
X81344Y6967D01*
X80927Y6549D01*
X80701Y6004D01*
Y5666D01*
X79696Y4661D01*
X74035D01*
X73828Y5161D01*
X75524Y6858D01*
X75745Y7189D01*
X75823Y7579D01*
Y8358D01*
X77961D01*
Y10004D01*
X80209D01*
Y8752D01*
X85146D01*
Y9807D01*
X85728D01*
X86119Y9885D01*
X86449Y10106D01*
X87279Y10936D01*
X87508Y10900D01*
X87779Y10757D01*
Y8252D01*
X90051D01*
Y10827D01*
X91051D01*
Y8252D01*
X93323D01*
Y11269D01*
X93823Y11318D01*
X93841Y11224D01*
X94063Y10893D01*
X94648Y10307D01*
X94979Y10086D01*
X95369Y10009D01*
X95957D01*
Y8752D01*
X100894D01*
Y12902D01*
X95957D01*
X95582Y13204D01*
X95504Y13319D01*
X94323Y14501D01*
X93993Y14721D01*
X93602Y14799D01*
X92823D01*
Y18807D01*
X91571D01*
Y23003D01*
X92674Y24106D01*
X93012D01*
X93557Y24332D01*
X93975Y24750D01*
X94201Y25295D01*
Y25886D01*
X93975Y26431D01*
X93557Y26849D01*
X93012Y27075D01*
X92421D01*
X91876Y26849D01*
X91458Y26431D01*
X91232Y25886D01*
Y25548D01*
X89830Y24146D01*
X89609Y23815D01*
X89532Y23425D01*
Y18807D01*
X88279D01*
Y17752D01*
X85146D01*
Y18807D01*
X80209D01*
Y14658D01*
X85146D01*
Y15713D01*
X88279D01*
Y14799D01*
X87894D01*
X87503Y14721D01*
X87173Y14501D01*
X85893Y13221D01*
X85672Y12890D01*
X85646Y12757D01*
X85146Y12806D01*
Y12902D01*
X80209D01*
Y12043D01*
X77961D01*
Y13370D01*
X78461D01*
Y16035D01*
X74803D01*
X71146D01*
Y13370D01*
X71646D01*
Y8358D01*
X73439D01*
X73641Y7858D01*
X72444Y6661D01*
X58351D01*
X57417Y7595D01*
Y8405D01*
X57996Y8791D01*
X58486Y9525D01*
X58658Y10389D01*
Y10910D01*
X58486Y11775D01*
X57996Y12508D01*
X57417Y12895D01*
Y13783D01*
X57754Y14120D01*
X57980Y14665D01*
Y15256D01*
X57754Y15801D01*
X57417Y16138D01*
Y34074D01*
X60942D01*
X61808Y34246D01*
X62542Y34737D01*
X63033Y35471D01*
X63047Y35544D01*
X63547Y35495D01*
Y34527D01*
X61484Y32463D01*
X61263Y32132D01*
X61185Y31742D01*
Y29327D01*
X60946Y29089D01*
X60720Y28543D01*
Y27953D01*
X60946Y27407D01*
X61364Y26990D01*
X61910Y26764D01*
X62500D01*
X63046Y26990D01*
X63463Y27407D01*
X63509Y27518D01*
X64050D01*
X64096Y27407D01*
X64514Y26990D01*
X65059Y26764D01*
X65650D01*
X66195Y26990D01*
X66613Y27407D01*
X66839Y27953D01*
Y28543D01*
X66613Y29089D01*
X66472Y29229D01*
Y31467D01*
X67158Y32153D01*
X67379Y32484D01*
X67457Y32874D01*
Y39777D01*
X67957Y39984D01*
X68155Y39785D01*
X68701Y39559D01*
X69291D01*
X69837Y39785D01*
X70134Y40082D01*
X70634Y39912D01*
Y33068D01*
X70395Y32829D01*
X70169Y32283D01*
Y31693D01*
X70395Y31147D01*
X70813Y30730D01*
X71358Y30504D01*
X71949D01*
X72494Y30730D01*
X72912Y31147D01*
X73138Y31693D01*
Y32283D01*
X72912Y32829D01*
X72673Y33068D01*
Y56566D01*
X74934Y58826D01*
X75155Y59157D01*
X75654Y59103D01*
Y47635D01*
X75415Y47396D01*
X75189Y46850D01*
Y46260D01*
X75415Y45714D01*
X75832Y45297D01*
X76378Y45071D01*
X76485D01*
X76692Y44571D01*
X75830Y43709D01*
X75492D01*
X74947Y43483D01*
X74529Y43065D01*
X74303Y42520D01*
Y41929D01*
X74529Y41384D01*
X74947Y40966D01*
X75492Y40740D01*
X75599D01*
X75806Y40240D01*
X74082Y38516D01*
X73861Y38185D01*
X73784Y37795D01*
Y29327D01*
X73545Y29089D01*
X73319Y28543D01*
Y27953D01*
X73545Y27407D01*
X73962Y26990D01*
X74508Y26764D01*
X75098D01*
X75644Y26990D01*
X76061Y27407D01*
X76107Y27518D01*
X76649D01*
X76695Y27407D01*
X77112Y26990D01*
X77658Y26764D01*
X78248D01*
X78794Y26990D01*
X79211Y27407D01*
X79437Y27953D01*
Y28543D01*
X79211Y29089D01*
X78972Y29327D01*
Y38062D01*
X81294Y40384D01*
X81756Y40192D01*
Y30906D01*
X81834Y30515D01*
X82055Y30185D01*
X84614Y27626D01*
X84944Y27404D01*
X85335Y27327D01*
X87995D01*
X88234Y27088D01*
X88780Y26862D01*
X89370D01*
X89916Y27088D01*
X90333Y27506D01*
X90559Y28051D01*
Y28642D01*
X90333Y29187D01*
X89916Y29605D01*
X89370Y29831D01*
X88780D01*
X88234Y29605D01*
X87995Y29366D01*
X85757D01*
X83795Y31328D01*
Y40719D01*
X89891Y46815D01*
X92621D01*
X92860Y46576D01*
X93406Y46350D01*
X93996D01*
X94542Y46576D01*
X94959Y46994D01*
X95185Y47539D01*
Y48130D01*
X94959Y48675D01*
X94542Y49093D01*
X93996Y49319D01*
X93406D01*
X92860Y49093D01*
X92621Y48854D01*
X90418D01*
X90227Y49316D01*
X96512Y55602D01*
X97012Y55394D01*
Y47568D01*
X88551Y39107D01*
X88330Y38776D01*
X88252Y38386D01*
Y36464D01*
X88240Y36406D01*
Y35907D01*
X88234Y35904D01*
X87817Y35486D01*
X87590Y34941D01*
Y34350D01*
X87817Y33805D01*
X88234Y33387D01*
X88780Y33161D01*
X89370D01*
X89916Y33387D01*
X90333Y33805D01*
X90559Y34350D01*
Y34941D01*
X90333Y35486D01*
X90280Y35540D01*
Y36359D01*
X90291Y36417D01*
Y37964D01*
X98223Y45895D01*
X98685Y45704D01*
Y44221D01*
X93743Y39279D01*
X93406D01*
X92860Y39054D01*
X92443Y38636D01*
X92216Y38091D01*
Y37500D01*
X92443Y36955D01*
X92860Y36537D01*
X93406Y36311D01*
X93996D01*
X94542Y36537D01*
X94959Y36955D01*
X94965Y36968D01*
X95465Y36868D01*
Y36516D01*
X95691Y35970D01*
X96108Y35553D01*
X96293Y35476D01*
X96193Y34976D01*
X94682D01*
X94443Y35215D01*
X93898Y35441D01*
X93307D01*
X92762Y35215D01*
X92344Y34797D01*
X92118Y34252D01*
Y33661D01*
X92344Y33116D01*
X92762Y32698D01*
X93307Y32472D01*
X93898D01*
X94443Y32698D01*
X94682Y32937D01*
X96330D01*
X97455Y31812D01*
Y18807D01*
X95957D01*
Y14658D01*
X100894D01*
Y15614D01*
X103831D01*
Y14658D01*
X108768D01*
Y18807D01*
X103831D01*
Y17653D01*
X100894D01*
Y18807D01*
X99494D01*
Y21617D01*
X99994Y21850D01*
X100189Y21686D01*
Y21555D01*
X100415Y21010D01*
X100832Y20592D01*
X101378Y20366D01*
X101969D01*
X102514Y20592D01*
X102931Y21010D01*
X103157Y21555D01*
Y22146D01*
X102931Y22691D01*
X102514Y23109D01*
X101969Y23335D01*
X101807D01*
Y32972D01*
X101729Y33363D01*
X101508Y33693D01*
X98433Y36769D01*
Y37106D01*
X98207Y37652D01*
X97790Y38069D01*
X97244Y38295D01*
X96654D01*
X96108Y38069D01*
X95781Y38434D01*
X100426Y43078D01*
X100647Y43409D01*
X100724Y43799D01*
Y54007D01*
X103473Y56756D01*
X103995D01*
X104129Y56256D01*
X104008Y56187D01*
X103302Y55480D01*
X102802Y54615D01*
X102543Y53650D01*
X106339D01*
X110134D01*
X109875Y54615D01*
X109376Y55480D01*
X108805Y56051D01*
X108920Y56543D01*
X108948Y56582D01*
X109164Y56619D01*
X112173Y53610D01*
X112504Y53389D01*
X112894Y53311D01*
X139932D01*
X140759Y52484D01*
X140552Y51984D01*
X138295D01*
Y49114D01*
X137795D01*
Y48614D01*
X134728D01*
Y46244D01*
X135152D01*
X135228Y45776D01*
X135228Y45744D01*
Y44327D01*
X130717D01*
Y45677D01*
X126567D01*
Y40937D01*
X130717D01*
Y42287D01*
X135228D01*
Y41035D01*
X140362D01*
Y42386D01*
X143701D01*
X144091Y42463D01*
X144422Y42685D01*
X145724Y43987D01*
X146224Y43780D01*
Y39300D01*
X143278Y36354D01*
X140362D01*
Y37705D01*
X135228D01*
Y36453D01*
X130717D01*
Y37803D01*
X126567D01*
Y33063D01*
X130717D01*
Y34413D01*
X135228D01*
Y32996D01*
X135228Y32965D01*
X135152Y32496D01*
X134728D01*
Y30126D01*
X140862D01*
Y32496D01*
X140438D01*
X140362Y32965D01*
X140362Y32996D01*
Y34315D01*
X143701D01*
X144091Y34393D01*
X144422Y34614D01*
X147965Y38157D01*
X148186Y38488D01*
X148264Y38878D01*
Y50098D01*
X148186Y50489D01*
X147965Y50819D01*
X142060Y56725D01*
X141729Y56946D01*
X141339Y57024D01*
X118220D01*
X118171Y57524D01*
X119281Y57744D01*
X120698Y58332D01*
X121975Y59184D01*
X123060Y60269D01*
X123913Y61546D01*
X124500Y62964D01*
X124799Y64469D01*
Y64736D01*
X117008D01*
Y65236D01*
X116508D01*
Y73028D01*
X116241D01*
X114735Y72728D01*
X114070Y72453D01*
X113787Y72877D01*
X114891Y73980D01*
X130020D01*
X130410Y74058D01*
X130741Y74279D01*
X137590Y81129D01*
X138051Y80882D01*
X137779Y79517D01*
Y79240D01*
X145169D01*
Y86630D01*
X144892D01*
X143527Y86358D01*
X143281Y86819D01*
X149146Y92685D01*
X149367Y93015D01*
X149445Y93405D01*
Y118405D01*
X149367Y118796D01*
X149146Y119126D01*
X145406Y122867D01*
X145075Y123088D01*
X144685Y123165D01*
X140362D01*
Y124484D01*
X140362Y124516D01*
X140438Y124984D01*
X140862D01*
Y127354D01*
X137795D01*
X134728D01*
Y124984D01*
X135152D01*
X135228Y124516D01*
X135228Y124484D01*
Y123067D01*
X130717D01*
Y124417D01*
X126567D01*
Y119677D01*
X130717D01*
Y121028D01*
X135228D01*
Y119776D01*
X140362D01*
Y121126D01*
X144263D01*
X147406Y117983D01*
Y111973D01*
X146944Y111782D01*
X143930Y114796D01*
X143599Y115017D01*
X143209Y115094D01*
X140362D01*
Y116445D01*
X135228D01*
Y115193D01*
X130717D01*
Y116543D01*
X126567D01*
Y111803D01*
X130717D01*
Y113154D01*
X135228D01*
Y111736D01*
X135228Y111705D01*
X135152Y111236D01*
X134728D01*
Y108866D01*
X140862D01*
Y111236D01*
X140438D01*
X140362Y111705D01*
X140362Y111736D01*
Y113055D01*
X142786D01*
X145831Y110011D01*
Y94418D01*
X141953Y90540D01*
X141453Y90747D01*
X141453Y90948D01*
Y93201D01*
X138295D01*
Y90535D01*
X141012D01*
X141241Y90535D01*
X141448Y90035D01*
X129105Y77693D01*
X113681D01*
X113291Y77615D01*
X112960Y77394D01*
X99584Y64018D01*
X99122Y64209D01*
Y67311D01*
X98461D01*
Y74106D01*
X108965D01*
Y83374D01*
X98461D01*
Y85335D01*
X98383Y85725D01*
X98162Y86056D01*
X96193Y88024D01*
X95863Y88245D01*
X95472Y88323D01*
X91466D01*
X89799Y89989D01*
Y92315D01*
X91051D01*
Y96661D01*
X87024D01*
Y97161D01*
X84850D01*
Y94488D01*
Y91815D01*
X87024D01*
Y92315D01*
X87760D01*
Y89567D01*
X87837Y89177D01*
X88059Y88846D01*
X90322Y86582D01*
X90653Y86361D01*
X91043Y86284D01*
X95050D01*
X96421Y84912D01*
Y83374D01*
X85917D01*
X85785Y83658D01*
X85563Y83989D01*
X81760Y87792D01*
Y91815D01*
X83850D01*
Y94488D01*
Y97161D01*
X83532D01*
X83303Y97441D01*
Y99282D01*
X83962Y99941D01*
X85661D01*
X86051Y100019D01*
X86382Y100240D01*
X89524Y103382D01*
X89745Y103713D01*
X89823Y104103D01*
Y121550D01*
X100622Y132350D01*
X100844Y132681D01*
X100921Y133071D01*
Y143409D01*
X101160Y143647D01*
X101386Y144193D01*
Y144783D01*
X101160Y145329D01*
X100742Y145747D01*
X100197Y145972D01*
X99606D01*
X99061Y145747D01*
X98643Y145329D01*
X98417Y144783D01*
Y144193D01*
X98643Y143647D01*
X98882Y143409D01*
Y133493D01*
X88082Y122693D01*
X87861Y122363D01*
X87784Y121972D01*
Y117068D01*
X87322Y116876D01*
X82811Y121387D01*
Y125787D01*
X82733Y126178D01*
X82512Y126508D01*
X80224Y128796D01*
Y129134D01*
X79998Y129679D01*
X79581Y130097D01*
X79035Y130323D01*
X78445D01*
X77899Y130097D01*
X77482Y129679D01*
X77256Y129134D01*
Y128543D01*
X77482Y127998D01*
X77899Y127580D01*
X78445Y127354D01*
X78672D01*
X78905Y127059D01*
X78694Y126583D01*
X78642D01*
X78096Y126357D01*
X77679Y125939D01*
X77453Y125394D01*
Y124803D01*
X77679Y124258D01*
X77917Y124019D01*
Y121555D01*
X77995Y121165D01*
X78216Y120834D01*
X84784Y114267D01*
Y106870D01*
X84631Y106767D01*
X84616Y106765D01*
X84044Y106977D01*
X83935Y107238D01*
X83518Y107656D01*
X82972Y107882D01*
X82382D01*
X81836Y107656D01*
X81598Y107417D01*
X79429D01*
X79039Y107340D01*
X78708Y107119D01*
X75854Y104264D01*
X75633Y103934D01*
X75555Y103543D01*
Y100582D01*
X75412Y100408D01*
X75339Y100357D01*
X74839Y100613D01*
Y104729D01*
X75023Y104913D01*
X75098D01*
X75644Y105139D01*
X76061Y105557D01*
X76287Y106102D01*
Y106693D01*
X76061Y107238D01*
X75644Y107656D01*
X75098Y107882D01*
X74508D01*
X73962Y107656D01*
X73545Y107238D01*
X73319Y106693D01*
Y106102D01*
X73322Y106096D01*
X73098Y105872D01*
X72877Y105542D01*
X72799Y105151D01*
Y98520D01*
X72561Y98282D01*
X72335Y97736D01*
Y97146D01*
X72561Y96600D01*
X72978Y96183D01*
X73524Y95957D01*
X73861D01*
X75221Y94597D01*
Y78926D01*
X72063Y75769D01*
X71563Y75976D01*
Y83374D01*
X60961D01*
Y92315D01*
X61894D01*
Y91815D01*
X64067D01*
Y94488D01*
Y97161D01*
X61894D01*
Y96661D01*
X57866D01*
Y92315D01*
X58921D01*
Y83374D01*
X48516D01*
Y74106D01*
X58921D01*
Y70304D01*
X54988Y66371D01*
X54767Y66040D01*
X54689Y65650D01*
Y63678D01*
X54450Y63439D01*
X54224Y62894D01*
Y62546D01*
X53724Y62339D01*
X52744Y63319D01*
X52413Y63540D01*
X52023Y63618D01*
X48060D01*
X47717Y63961D01*
X47925Y64461D01*
X48335D01*
Y69398D01*
X44185D01*
Y64461D01*
X45240D01*
Y63976D01*
X45318Y63586D01*
X45539Y63255D01*
X46917Y61878D01*
X47248Y61656D01*
X47638Y61579D01*
X51601D01*
X53566Y59614D01*
X53896Y59393D01*
X54287Y59315D01*
X58071D01*
X58461Y59393D01*
X58792Y59614D01*
X61750Y62572D01*
X62174Y62289D01*
X62098Y62106D01*
Y61516D01*
X62324Y60970D01*
X62563Y60732D01*
Y48917D01*
X62569Y48886D01*
X62108Y48640D01*
X50775Y59973D01*
X50445Y60194D01*
X50054Y60272D01*
X39202D01*
X22870Y76603D01*
Y84153D01*
X22792Y84544D01*
X22571Y84874D01*
X9976Y97470D01*
Y109125D01*
X13907Y113055D01*
X17118D01*
Y111736D01*
X17118Y111705D01*
X17042Y111236D01*
X16618D01*
Y108866D01*
X22752D01*
Y111236D01*
X22328D01*
X22252Y111705D01*
X22252Y111736D01*
Y113055D01*
X26764D01*
Y111803D01*
X30913D01*
Y116543D01*
X26764D01*
Y115094D01*
X22252D01*
Y116445D01*
X17118D01*
Y115094D01*
X13484D01*
X13094Y115017D01*
X12763Y114796D01*
X8705Y110737D01*
X8205Y110944D01*
Y117393D01*
X11938Y121126D01*
X17118D01*
Y119776D01*
X22252D01*
Y121126D01*
X26764D01*
Y119677D01*
X30913D01*
Y124417D01*
X26764D01*
Y123165D01*
X22252D01*
Y124484D01*
X22252Y124516D01*
X22328Y124984D01*
X22752D01*
Y127354D01*
X19685D01*
X16618D01*
Y124984D01*
X17042D01*
X17118Y124516D01*
X17118Y124484D01*
Y123165D01*
X11516D01*
X11126Y123088D01*
X10795Y122867D01*
X6464Y118536D01*
X6243Y118205D01*
X6165Y117815D01*
Y96555D01*
X6243Y96165D01*
X6464Y95834D01*
X16804Y85494D01*
X16485Y85106D01*
X15548Y85732D01*
X14112Y86327D01*
X12588Y86630D01*
X12311D01*
Y78740D01*
Y70850D01*
X12588D01*
X14112Y71154D01*
X15548Y71748D01*
X16840Y72612D01*
X17939Y73711D01*
X18803Y75003D01*
X18844Y75102D01*
X19064Y75146D01*
X19390Y75115D01*
X19555Y74870D01*
X30306Y64118D01*
X30023Y63694D01*
X29798Y63787D01*
X29208D01*
X28662Y63561D01*
X28245Y63144D01*
X28019Y62598D01*
Y62008D01*
X28245Y61462D01*
X28483Y61224D01*
Y60043D01*
X27503Y59063D01*
X27165D01*
X26620Y58837D01*
X26202Y58420D01*
X25976Y57874D01*
Y57284D01*
X25514Y57123D01*
X25236Y57795D01*
X24792Y58374D01*
X24213Y58819D01*
X23539Y59098D01*
X22815Y59193D01*
X20362D01*
Y56898D01*
X25545D01*
X25515Y57121D01*
X25977Y57282D01*
X26202Y56738D01*
X26620Y56321D01*
X26953Y56183D01*
Y53650D01*
X29323D01*
Y56217D01*
X28905D01*
X28697Y56717D01*
X28719Y56738D01*
X28945Y57284D01*
Y57621D01*
X30224Y58900D01*
X30445Y59231D01*
X30523Y59621D01*
Y61224D01*
X30761Y61462D01*
X30987Y62008D01*
Y62598D01*
X30894Y62823D01*
X31318Y63106D01*
X37665Y56759D01*
X37996Y56538D01*
X38386Y56461D01*
X49282D01*
X51226Y54517D01*
X51034Y54056D01*
X46929D01*
Y48307D01*
X48226D01*
Y46181D01*
X46929D01*
Y40433D01*
X51693D01*
Y42474D01*
X56619D01*
X56811Y42013D01*
X55677Y40878D01*
X55456Y40548D01*
X55378Y40157D01*
Y39115D01*
X51854D01*
X50987Y38943D01*
X50253Y38452D01*
X49762Y37718D01*
X49590Y36852D01*
Y36338D01*
X49762Y35471D01*
X50253Y34737D01*
X50987Y34246D01*
X51854Y34074D01*
X55378D01*
Y15942D01*
X55238Y15801D01*
X55012Y15256D01*
Y14665D01*
X55238Y14120D01*
X55378Y13980D01*
Y12895D01*
X54799Y12508D01*
X54309Y11775D01*
X54137Y10910D01*
Y10389D01*
X54309Y9525D01*
X54799Y8791D01*
X55378Y8405D01*
Y7173D01*
X55456Y6782D01*
X55677Y6452D01*
X56967Y5161D01*
X56760Y4661D01*
X53769D01*
X51216Y7214D01*
Y14272D01*
X51139Y14662D01*
X50918Y14993D01*
X46882Y19028D01*
X46552Y19249D01*
X46161Y19327D01*
X30737D01*
X30206Y19858D01*
X30413Y20358D01*
X33161D01*
Y23228D01*
Y26098D01*
X30004D01*
Y24619D01*
X29504Y24363D01*
X29134Y24516D01*
X28543D01*
X27998Y24290D01*
X27580Y23872D01*
X27354Y23327D01*
Y22736D01*
X27580Y22191D01*
X27819Y21952D01*
Y19783D01*
X27897Y19393D01*
X28118Y19062D01*
X29594Y17586D01*
X29925Y17365D01*
X30315Y17288D01*
X45739D01*
X49177Y13849D01*
Y12978D01*
X48677Y12710D01*
X48247Y12998D01*
X47382Y13170D01*
X46517Y12998D01*
X45784Y12508D01*
X45294Y11775D01*
X45272Y11664D01*
X38517D01*
X38283Y11898D01*
X37738Y12124D01*
X37662D01*
X37056Y12730D01*
Y12782D01*
X36979Y13172D01*
X36758Y13503D01*
X36051Y14210D01*
X35720Y14431D01*
X35330Y14509D01*
X32603D01*
Y15969D01*
X26452D01*
Y11250D01*
X26452Y11009D01*
X26060Y10751D01*
X25952D01*
Y8271D01*
X29528D01*
X33103D01*
Y10751D01*
X32996D01*
X32603Y11009D01*
X32603Y11250D01*
Y12470D01*
X34907D01*
X35017Y12360D01*
Y12307D01*
X35095Y11917D01*
X35316Y11586D01*
X35961Y10942D01*
X35958Y10935D01*
Y10345D01*
X36184Y9799D01*
X36601Y9381D01*
X37147Y9155D01*
X37738D01*
X38283Y9381D01*
X38527Y9625D01*
X45274D01*
X45294Y9525D01*
X45784Y8791D01*
X46517Y8301D01*
X47382Y8129D01*
X48247Y8301D01*
X48677Y8589D01*
X49177Y8322D01*
Y6791D01*
X49255Y6401D01*
X49476Y6070D01*
X52529Y3017D01*
X52427Y2640D01*
X52340Y2517D01*
X41226D01*
X41035Y2979D01*
X42674Y4618D01*
X43012D01*
X43557Y4844D01*
X43975Y5262D01*
X44201Y5807D01*
Y6398D01*
X43975Y6943D01*
X43557Y7361D01*
X43012Y7587D01*
X42421D01*
X41876Y7361D01*
X41458Y6943D01*
X41232Y6398D01*
Y6060D01*
X39160Y3988D01*
X15466D01*
X12634Y6820D01*
Y18650D01*
X13134Y18802D01*
X13157Y18767D01*
X16105Y15819D01*
X16436Y15598D01*
X16610Y15564D01*
Y11250D01*
X16610Y11009D01*
X16217Y10751D01*
X16110D01*
Y8271D01*
X19685D01*
X23260D01*
Y10751D01*
X23153D01*
X22760Y11009D01*
X22760Y11250D01*
Y15969D01*
X18202D01*
X17831Y16469D01*
X17845Y16540D01*
X17768Y16930D01*
X17547Y17261D01*
X15369Y19440D01*
X15652Y19863D01*
X16186Y19642D01*
X16909Y19547D01*
X19362D01*
Y22343D01*
X19862D01*
Y22842D01*
X25545D01*
X25515Y23066D01*
X25236Y23740D01*
X24792Y24319D01*
X24213Y24764D01*
X23937Y24878D01*
X24036Y25378D01*
X24174D01*
X25012Y25725D01*
X25653Y26366D01*
X25981Y27158D01*
X23720D01*
X21460D01*
X21788Y26366D01*
X22429Y25725D01*
X22639Y25638D01*
X22540Y25138D01*
X19586D01*
X19487Y25638D01*
X19697Y25725D01*
X20338Y26366D01*
X20666Y27158D01*
X18406D01*
Y28157D01*
X20666D01*
X20338Y28949D01*
X19697Y29590D01*
X19904Y29981D01*
X19914Y29996D01*
X19914Y29996D01*
X20185Y30650D01*
Y31358D01*
X19914Y32012D01*
X19563Y32363D01*
X19465Y32677D01*
X19563Y32992D01*
X19914Y33342D01*
X20185Y33996D01*
Y34704D01*
X19914Y35358D01*
X19563Y35709D01*
X19465Y36024D01*
X19563Y36338D01*
X19914Y36689D01*
X20185Y37343D01*
Y38034D01*
X22174Y40024D01*
X22223D01*
X22563Y39685D01*
X22661Y39370D01*
X22563Y39056D01*
X22212Y38705D01*
X21941Y38051D01*
Y37343D01*
X22212Y36689D01*
X22563Y36338D01*
X22661Y36024D01*
X22563Y35709D01*
X22212Y35358D01*
X21941Y34704D01*
Y33996D01*
X22212Y33342D01*
X22563Y32992D01*
X22661Y32677D01*
X22563Y32363D01*
X22212Y32012D01*
X21941Y31358D01*
Y30650D01*
X22212Y29996D01*
X22222Y29981D01*
X22360Y29564D01*
X22145Y29306D01*
X21788Y28949D01*
X21460Y28157D01*
X23720D01*
X25981D01*
X25653Y28949D01*
X25012Y29590D01*
X25219Y29981D01*
X25229Y29996D01*
X25229Y29996D01*
X25500Y30650D01*
Y31358D01*
X25229Y32012D01*
X24878Y32363D01*
X24780Y32677D01*
X24878Y32992D01*
X25229Y33342D01*
X25500Y33996D01*
Y34704D01*
X25229Y35358D01*
X24878Y35709D01*
X24780Y36024D01*
X24878Y36338D01*
X25229Y36689D01*
X25500Y37343D01*
Y38051D01*
X25229Y38705D01*
X24878Y39056D01*
X24780Y39370D01*
X24878Y39685D01*
X25229Y40035D01*
X25500Y40689D01*
Y41397D01*
X25229Y42051D01*
X24878Y42402D01*
X24780Y42717D01*
X24878Y43031D01*
X25229Y43382D01*
X25500Y44036D01*
Y44744D01*
X25229Y45398D01*
X24878Y45748D01*
X24780Y46063D01*
X24878Y46378D01*
X25229Y46728D01*
X25500Y47382D01*
Y48090D01*
X25412Y48303D01*
X25746Y48803D01*
X26000D01*
Y50583D01*
X23720D01*
Y51583D01*
X26000D01*
Y53362D01*
X24036D01*
X23937Y53862D01*
X24213Y53977D01*
X24792Y54421D01*
X25236Y55000D01*
X25515Y55674D01*
X25545Y55898D01*
X19862D01*
X14180D01*
X14209Y55674D01*
X14488Y55000D01*
X14933Y54421D01*
X15512Y53977D01*
X15805Y53855D01*
X15922Y53265D01*
X15405Y52748D01*
X15184Y52417D01*
X15106Y52027D01*
Y47260D01*
X14870Y46858D01*
X10721D01*
Y41921D01*
X14870D01*
Y43370D01*
X15354D01*
X15744Y43448D01*
X16075Y43669D01*
X16190Y43783D01*
X16779Y43666D01*
X16897Y43382D01*
X17248Y43031D01*
X17346Y42717D01*
X17248Y42402D01*
X16897Y42051D01*
X16626Y41397D01*
Y40689D01*
X16897Y40035D01*
X17248Y39685D01*
X17346Y39370D01*
X17248Y39056D01*
X16897Y38705D01*
X16626Y38051D01*
Y37343D01*
X16897Y36689D01*
X17248Y36338D01*
X17346Y36024D01*
X17248Y35709D01*
X16908Y35370D01*
X14870D01*
Y36819D01*
X10721D01*
Y31882D01*
X14870D01*
Y33331D01*
X16908D01*
X17248Y32992D01*
X17346Y32677D01*
X17248Y32363D01*
X16897Y32012D01*
X16626Y31358D01*
Y30666D01*
X13157Y27197D01*
X12936Y26867D01*
X12858Y26476D01*
Y25739D01*
X12358Y25588D01*
X12335Y25622D01*
X10870Y27087D01*
X10539Y27308D01*
X10149Y27386D01*
X5225D01*
X5172Y27439D01*
X4626Y27665D01*
X4036D01*
X3490Y27439D01*
X3072Y27022D01*
X3017Y26888D01*
X2517Y26987D01*
Y54234D01*
X2954Y54402D01*
X3017Y54411D01*
X3582Y53977D01*
X4257Y53697D01*
X4980Y53602D01*
X6055D01*
Y56398D01*
Y59193D01*
X4980D01*
X4257Y59098D01*
X3582Y58819D01*
X3017Y58385D01*
X2954Y58394D01*
X2517Y58561D01*
Y149106D01*
X2517Y149606D01*
X2537Y150098D01*
X2656Y151004D01*
X3196Y152307D01*
X4054Y153426D01*
X5173Y154284D01*
X6476Y154824D01*
X7382Y154943D01*
X7874Y154963D01*
X8374Y154963D01*
X149606D01*
X149606Y154963D01*
D02*
G37*
G36*
X71520Y65770D02*
X71411Y65662D01*
X71020Y65438D01*
X70768Y65488D01*
X62205D01*
X61814Y65411D01*
X61484Y65189D01*
X57679Y61384D01*
X57236Y61431D01*
X57012Y61867D01*
X57193Y62303D01*
Y62894D01*
X56967Y63439D01*
X56728Y63678D01*
Y65227D01*
X60662Y69161D01*
X60883Y69492D01*
X60961Y69882D01*
Y74106D01*
X71520D01*
Y65770D01*
D02*
G37*
G36*
X85917Y74714D02*
Y74106D01*
X96421D01*
Y67311D01*
X95760D01*
Y63161D01*
X98074D01*
X98265Y62700D01*
X91186Y55620D01*
X91093Y55639D01*
X90685Y56102D01*
Y59203D01*
X91185Y59373D01*
X91482Y59076D01*
X92028Y58850D01*
X92618D01*
X93164Y59076D01*
X93581Y59494D01*
X93807Y60039D01*
Y60630D01*
X93581Y61175D01*
X93342Y61414D01*
Y63161D01*
X94004D01*
Y67311D01*
X90668D01*
X90607Y67615D01*
X90386Y67945D01*
X86004Y72328D01*
Y72628D01*
X85926Y73018D01*
X85705Y73349D01*
X84848Y74206D01*
X84850Y74213D01*
Y74353D01*
X85417Y74920D01*
X85917Y74714D01*
D02*
G37*
G36*
X83697Y76625D02*
X83709Y76449D01*
X83278Y75992D01*
X83071D01*
X82525Y75766D01*
X82108Y75349D01*
X81882Y74803D01*
Y74213D01*
X82108Y73667D01*
X82525Y73250D01*
X83071Y73024D01*
X83146D01*
X83965Y72205D01*
Y71906D01*
X84042Y71515D01*
X84263Y71185D01*
X88646Y66802D01*
Y58531D01*
X88146Y58432D01*
X88069Y58616D01*
X87831Y58855D01*
Y59941D01*
X87753Y60331D01*
X87532Y60662D01*
X79563Y68631D01*
Y73582D01*
X82816Y76835D01*
X83153D01*
X83285Y76889D01*
X83697Y76625D01*
D02*
G37*
G36*
X77822Y67488D02*
X85791Y59519D01*
Y58855D01*
X85553Y58616D01*
X85327Y58071D01*
Y57480D01*
X85553Y56935D01*
X85970Y56517D01*
X86516Y56291D01*
X87106D01*
X87652Y56517D01*
X88069Y56935D01*
X88146Y57119D01*
X88646Y57020D01*
Y56525D01*
X78658Y46536D01*
X78158Y46744D01*
Y46850D01*
X77931Y47396D01*
X77693Y47635D01*
Y62239D01*
X78155Y62431D01*
X80392Y60194D01*
Y60108D01*
X80470Y59718D01*
X80690Y59387D01*
X81783Y58294D01*
Y57957D01*
X82009Y57411D01*
X82427Y56994D01*
X82973Y56768D01*
X83563D01*
X84109Y56994D01*
X84526Y57411D01*
X84752Y57957D01*
Y58547D01*
X84526Y59093D01*
X84109Y59510D01*
X83563Y59736D01*
X83225D01*
X82431Y60531D01*
Y60616D01*
X82353Y61006D01*
X82132Y61337D01*
X77201Y66269D01*
Y67518D01*
X77701Y67670D01*
X77822Y67488D01*
D02*
G37*
G36*
X60361Y45382D02*
X60078Y44958D01*
X60030Y44978D01*
X59439D01*
X58894Y44752D01*
X58655Y44514D01*
X51693D01*
Y46181D01*
X50265D01*
Y48307D01*
X51693D01*
Y53396D01*
X52155Y53588D01*
X60361Y45382D01*
D02*
G37*
G36*
X70709Y63086D02*
Y62080D01*
X70494Y61864D01*
X70268Y61319D01*
Y60728D01*
X70494Y60183D01*
X70911Y59765D01*
X71457Y59539D01*
X72047D01*
X72062Y59545D01*
X72345Y59122D01*
X70933Y57709D01*
X70712Y57378D01*
X70634Y56988D01*
Y42632D01*
X70134Y42380D01*
X69992Y42484D01*
Y43528D01*
X69914Y43918D01*
X69693Y44249D01*
X64602Y49340D01*
Y60732D01*
X64841Y60970D01*
X65067Y61516D01*
Y62106D01*
X64841Y62652D01*
X64544Y62949D01*
X64714Y63449D01*
X70345D01*
X70709Y63086D01*
D02*
G37*
G36*
X7055Y19547D02*
X8130D01*
X8854Y19642D01*
X9528Y19921D01*
X10095Y20357D01*
X10152Y20348D01*
X10595Y20180D01*
Y6398D01*
X10672Y6007D01*
X10893Y5677D01*
X13591Y2979D01*
X13400Y2517D01*
X7874D01*
X7739Y2490D01*
X6476Y2656D01*
X5173Y3196D01*
X4054Y4054D01*
X3196Y5173D01*
X2656Y6476D01*
X2490Y7739D01*
X2517Y7874D01*
Y20179D01*
X2954Y20347D01*
X3017Y20356D01*
X3582Y19921D01*
X4257Y19642D01*
X4980Y19547D01*
X6055D01*
Y22343D01*
X7055D01*
Y19547D01*
D02*
G37*
%LPC*%
G36*
X11311Y148252D02*
X7260D01*
Y145088D01*
X11311D01*
Y148252D01*
D02*
G37*
G36*
X117775Y151768D02*
X117508D01*
Y144476D01*
X124799D01*
Y144744D01*
X124500Y146249D01*
X123913Y147667D01*
X123060Y148943D01*
X121975Y150028D01*
X120698Y150881D01*
X119281Y151468D01*
X117775Y151768D01*
D02*
G37*
G36*
X41240D02*
X40972D01*
Y144476D01*
X48264D01*
Y144744D01*
X47964Y146249D01*
X47377Y147667D01*
X46524Y148943D01*
X45439Y150028D01*
X44163Y150881D01*
X42745Y151468D01*
X41240Y151768D01*
D02*
G37*
G36*
X39972D02*
X39705D01*
X38200Y151468D01*
X36782Y150881D01*
X35506Y150028D01*
X34420Y148943D01*
X33568Y147667D01*
X32980Y146249D01*
X32681Y144744D01*
Y144476D01*
X39972D01*
Y151768D01*
D02*
G37*
G36*
X116508D02*
X116241D01*
X114735Y151468D01*
X113317Y150881D01*
X112041Y150028D01*
X110956Y148943D01*
X110103Y147667D01*
X109516Y146249D01*
X109216Y144744D01*
Y144476D01*
X116508D01*
Y151768D01*
D02*
G37*
G36*
X30331Y145291D02*
X28059D01*
Y143217D01*
X30331D01*
Y145291D01*
D02*
G37*
G36*
X27059D02*
X24787D01*
Y143217D01*
X27059D01*
Y145291D01*
D02*
G37*
G36*
X23343Y145685D02*
X20185D01*
Y143020D01*
X23343D01*
Y145685D01*
D02*
G37*
G36*
X11311Y144088D02*
X7260D01*
Y140924D01*
X11311D01*
Y144088D01*
D02*
G37*
G36*
X30331Y142217D02*
X28059D01*
Y140142D01*
X30331D01*
Y142217D01*
D02*
G37*
G36*
X27059D02*
X24787D01*
Y140142D01*
X27059D01*
Y142217D01*
D02*
G37*
G36*
X16363Y148252D02*
X12311D01*
Y144588D01*
Y140924D01*
X16028D01*
Y139354D01*
X16528D01*
Y138028D01*
X15863D01*
Y138103D01*
X7760D01*
Y131775D01*
X15863D01*
Y135988D01*
X16528D01*
Y134343D01*
X22842D01*
Y135791D01*
X25287D01*
Y134736D01*
X29831D01*
Y135791D01*
X34027D01*
X38649Y131169D01*
X38860Y131028D01*
X38725Y130528D01*
X38370D01*
Y128453D01*
X41339D01*
X44307D01*
Y130370D01*
X44307Y130528D01*
X44665Y130870D01*
X48003D01*
X48071Y130618D01*
X48505Y129866D01*
X49118Y129253D01*
X49870Y128819D01*
X50708Y128595D01*
X51576D01*
X52414Y128819D01*
X53165Y129253D01*
X53779Y129866D01*
X54212Y130618D01*
X54437Y131456D01*
Y132324D01*
X54212Y133162D01*
X53779Y133913D01*
X53165Y134527D01*
X52414Y134960D01*
X51576Y135185D01*
X50708D01*
X49870Y134960D01*
X49118Y134527D01*
X48505Y133913D01*
X48071Y133162D01*
X48003Y132909D01*
X39792D01*
X35170Y137532D01*
X34839Y137753D01*
X34449Y137831D01*
X29831D01*
Y138886D01*
X25287D01*
Y137831D01*
X22842D01*
Y139354D01*
X23343D01*
Y142020D01*
X19685D01*
Y142520D01*
X19185D01*
Y145685D01*
X16363D01*
Y148252D01*
D02*
G37*
G36*
X124799Y143476D02*
X117508D01*
Y136185D01*
X117775D01*
X119281Y136485D01*
X120698Y137072D01*
X121975Y137925D01*
X123060Y139010D01*
X123913Y140286D01*
X124500Y141704D01*
X124799Y143209D01*
Y143476D01*
D02*
G37*
G36*
X116508D02*
X109216D01*
Y143209D01*
X109516Y141704D01*
X110103Y140286D01*
X110956Y139010D01*
X112041Y137925D01*
X113317Y137072D01*
X114735Y136485D01*
X116241Y136185D01*
X116508D01*
Y143476D01*
D02*
G37*
G36*
X48264D02*
X40972D01*
Y136185D01*
X41240D01*
X42745Y136485D01*
X44163Y137072D01*
X45439Y137925D01*
X46524Y139010D01*
X47377Y140286D01*
X47964Y141704D01*
X48264Y143209D01*
Y143476D01*
D02*
G37*
G36*
X39972D02*
X32681D01*
Y143209D01*
X32980Y141704D01*
X33568Y140286D01*
X34420Y139010D01*
X35506Y137925D01*
X36782Y137072D01*
X38200Y136485D01*
X39705Y136185D01*
X39972D01*
Y143476D01*
D02*
G37*
G36*
X106839Y135685D02*
Y132390D01*
X110134D01*
X109875Y133355D01*
X109376Y134220D01*
X108669Y134927D01*
X107803Y135426D01*
X106839Y135685D01*
D02*
G37*
G36*
X105839D02*
X104874Y135426D01*
X104008Y134927D01*
X103302Y134220D01*
X102802Y133355D01*
X102543Y132390D01*
X105839D01*
Y135685D01*
D02*
G37*
G36*
X119110Y130527D02*
X116642D01*
Y128453D01*
X119110D01*
Y130527D01*
D02*
G37*
G36*
X115642D02*
X113173D01*
Y128453D01*
X115642D01*
Y130527D01*
D02*
G37*
G36*
X140862Y130724D02*
X138295D01*
Y128354D01*
X140862D01*
Y130724D01*
D02*
G37*
G36*
X22752D02*
X20185D01*
Y128354D01*
X22752D01*
Y130724D01*
D02*
G37*
G36*
X137295D02*
X134728D01*
Y128354D01*
X137295D01*
Y130724D01*
D02*
G37*
G36*
X19185D02*
X16618D01*
Y128354D01*
X19185D01*
Y130724D01*
D02*
G37*
G36*
X110134Y131390D02*
X106839D01*
Y128095D01*
X107803Y128353D01*
X108669Y128853D01*
X109376Y129559D01*
X109875Y130425D01*
X110134Y131390D01*
D02*
G37*
G36*
X105839D02*
X102543D01*
X102802Y130425D01*
X103302Y129559D01*
X104008Y128853D01*
X104874Y128353D01*
X105839Y128095D01*
Y131390D01*
D02*
G37*
G36*
X58760Y145382D02*
X58169D01*
X57624Y145156D01*
X57206Y144738D01*
X56980Y144193D01*
Y143855D01*
X55874Y142748D01*
X55652Y142418D01*
X55575Y142028D01*
Y127950D01*
X55336Y127711D01*
X55110Y127165D01*
Y126575D01*
X55336Y126029D01*
X55754Y125612D01*
X56299Y125386D01*
X56890D01*
X57435Y125612D01*
X57853Y126029D01*
X58079Y126575D01*
Y127165D01*
X57853Y127711D01*
X57614Y127950D01*
Y141605D01*
X58422Y142413D01*
X58760D01*
X59305Y142639D01*
X59723Y143057D01*
X59949Y143602D01*
Y144193D01*
X59723Y144738D01*
X59305Y145156D01*
X58760Y145382D01*
D02*
G37*
G36*
X44307Y127453D02*
X41839D01*
Y125378D01*
X44307D01*
Y127453D01*
D02*
G37*
G36*
X40839D02*
X38370D01*
Y125378D01*
X40839D01*
Y127453D01*
D02*
G37*
G36*
X119110Y127453D02*
X116642D01*
Y125378D01*
X119110D01*
Y127453D01*
D02*
G37*
G36*
X115642D02*
X113173D01*
Y125378D01*
X115642D01*
Y127453D01*
D02*
G37*
G36*
X51576Y125343D02*
X50708D01*
X49870Y125118D01*
X49118Y124684D01*
X48505Y124071D01*
X48071Y123319D01*
X48003Y123067D01*
X43807D01*
Y124122D01*
X38870D01*
Y123067D01*
X36228D01*
Y124417D01*
X32079D01*
Y119677D01*
X36228D01*
Y121028D01*
X38870D01*
Y119973D01*
X43807D01*
Y121028D01*
X48003D01*
X48071Y120775D01*
X48505Y120024D01*
X49118Y119410D01*
X49870Y118976D01*
X50708Y118752D01*
X51576D01*
X52414Y118976D01*
X53165Y119410D01*
X53779Y120024D01*
X54212Y120775D01*
X54437Y121613D01*
Y122481D01*
X54212Y123319D01*
X53779Y124071D01*
X53165Y124684D01*
X52414Y125118D01*
X51576Y125343D01*
D02*
G37*
G36*
X106772D02*
X105905D01*
X105067Y125118D01*
X104315Y124684D01*
X103702Y124071D01*
X103268Y123319D01*
X103043Y122481D01*
Y121613D01*
X103268Y120775D01*
X103702Y120024D01*
X104315Y119410D01*
X105067Y118976D01*
X105905Y118752D01*
X106772D01*
X107610Y118976D01*
X108362Y119410D01*
X108976Y120024D01*
X109409Y120775D01*
X109477Y121028D01*
X113673D01*
Y119972D01*
X118610D01*
Y121028D01*
X121252D01*
Y119677D01*
X125402D01*
Y124417D01*
X121252D01*
Y123067D01*
X118610D01*
Y124122D01*
X113673D01*
Y123067D01*
X109477D01*
X109409Y123319D01*
X108976Y124071D01*
X108362Y124684D01*
X107610Y125118D01*
X106772Y125343D01*
D02*
G37*
G36*
X51576Y117469D02*
X50708D01*
X49870Y117244D01*
X49118Y116810D01*
X48505Y116197D01*
X48071Y115445D01*
X48003Y115193D01*
X43807D01*
Y116248D01*
X38870D01*
Y114996D01*
X36228D01*
Y116543D01*
X32079D01*
Y111803D01*
X36228D01*
Y112957D01*
X38870D01*
Y112098D01*
X43807D01*
Y113154D01*
X48003D01*
X48071Y112901D01*
X48505Y112150D01*
X49118Y111536D01*
X49870Y111102D01*
X50708Y110878D01*
X51576D01*
X52414Y111102D01*
X53165Y111536D01*
X53779Y112150D01*
X54212Y112901D01*
X54437Y113739D01*
Y114607D01*
X54212Y115445D01*
X53779Y116197D01*
X53165Y116810D01*
X52414Y117244D01*
X51576Y117469D01*
D02*
G37*
G36*
X106772D02*
X105905D01*
X105067Y117244D01*
X104315Y116810D01*
X103702Y116197D01*
X103268Y115445D01*
X103043Y114607D01*
Y113739D01*
X103268Y112901D01*
X103702Y112150D01*
X104315Y111536D01*
X105067Y111102D01*
X105905Y110878D01*
X106772D01*
X107610Y111102D01*
X108362Y111536D01*
X108976Y112150D01*
X109409Y112901D01*
X109477Y113154D01*
X113673D01*
Y112098D01*
X118610D01*
Y113154D01*
X121252D01*
Y111803D01*
X125402D01*
Y116543D01*
X121252D01*
Y115193D01*
X118610D01*
Y116248D01*
X113673D01*
Y115193D01*
X109477D01*
X109409Y115445D01*
X108976Y116197D01*
X108362Y116810D01*
X107610Y117244D01*
X106772Y117469D01*
D02*
G37*
G36*
X119110Y110843D02*
X116642D01*
Y108768D01*
X119110D01*
Y110843D01*
D02*
G37*
G36*
X115642D02*
X113173D01*
Y108768D01*
X115642D01*
Y110843D01*
D02*
G37*
G36*
X44307D02*
X41839D01*
Y108768D01*
X44307D01*
Y110843D01*
D02*
G37*
G36*
X40839D02*
X38370D01*
Y108768D01*
X40839D01*
Y110843D01*
D02*
G37*
G36*
X44307Y107768D02*
X41839D01*
Y105693D01*
X44307D01*
Y107768D01*
D02*
G37*
G36*
X40839D02*
X38370D01*
Y105693D01*
X40839D01*
Y107768D01*
D02*
G37*
G36*
X140862Y107866D02*
X138295D01*
Y105496D01*
X140862D01*
Y107866D01*
D02*
G37*
G36*
X137295D02*
X134728D01*
Y105496D01*
X137295D01*
Y107866D01*
D02*
G37*
G36*
X22752D02*
X20185D01*
Y105496D01*
X22752D01*
Y107866D01*
D02*
G37*
G36*
X19185D02*
X16618D01*
Y105496D01*
X19185D01*
Y107866D01*
D02*
G37*
G36*
X119110Y107768D02*
X113173D01*
Y105850D01*
X113173Y105693D01*
X112815Y105350D01*
X109477D01*
X109409Y105603D01*
X108976Y106354D01*
X108362Y106968D01*
X107610Y107401D01*
X106772Y107626D01*
X105905D01*
X105067Y107401D01*
X104315Y106968D01*
X103702Y106354D01*
X103268Y105603D01*
X103043Y104764D01*
Y103897D01*
X103268Y103059D01*
X103702Y102307D01*
X104315Y101694D01*
X105067Y101260D01*
X105319Y101192D01*
Y98540D01*
X103235D01*
Y90437D01*
X109423D01*
X109516Y89972D01*
X110103Y88554D01*
X110956Y87277D01*
X112041Y86192D01*
X113317Y85339D01*
X114735Y84752D01*
X116241Y84453D01*
X116508D01*
Y92244D01*
Y100035D01*
X116241D01*
X114735Y99736D01*
X113317Y99149D01*
X112041Y98296D01*
X110956Y97211D01*
X110103Y95935D01*
X110054Y95815D01*
X109563Y95912D01*
Y98540D01*
X107358D01*
Y101192D01*
X107610Y101260D01*
X108362Y101694D01*
X108976Y102307D01*
X109409Y103059D01*
X109477Y103311D01*
X117196D01*
X120934Y99573D01*
X120698Y99149D01*
X119281Y99736D01*
X117775Y100035D01*
X117508D01*
Y92744D01*
X124799D01*
Y93011D01*
X124500Y94517D01*
X123913Y95935D01*
X123060Y97211D01*
X122354Y97917D01*
X122495Y98277D01*
X122588Y98390D01*
X127650D01*
Y97335D01*
X132193D01*
Y98390D01*
X134638D01*
Y96866D01*
X134138D01*
Y94201D01*
X141453D01*
Y96866D01*
X140953D01*
Y101878D01*
X134638D01*
Y100429D01*
X132193D01*
Y101484D01*
X127650D01*
Y100429D01*
X122962D01*
X118339Y105052D01*
X118128Y105193D01*
X118263Y105693D01*
X119110D01*
Y107768D01*
D02*
G37*
G36*
X67224Y107882D02*
X66634D01*
X66088Y107656D01*
X65850Y107417D01*
X63681D01*
X63291Y107340D01*
X62960Y107119D01*
X59294Y103453D01*
X58957D01*
X58411Y103227D01*
X57994Y102809D01*
X57768Y102264D01*
Y101673D01*
X57994Y101128D01*
X58411Y100710D01*
X58957Y100484D01*
X59547D01*
X60093Y100710D01*
X60510Y101128D01*
X60736Y101673D01*
Y102011D01*
X64103Y105378D01*
X65850D01*
X66088Y105139D01*
X66634Y104913D01*
X67224D01*
X67770Y105139D01*
X68187Y105557D01*
X68413Y106102D01*
Y106693D01*
X68187Y107238D01*
X67770Y107656D01*
X67224Y107882D01*
D02*
G37*
G36*
X51642Y108126D02*
Y104831D01*
X54937D01*
X54678Y105796D01*
X54179Y106661D01*
X53472Y107368D01*
X52607Y107867D01*
X51642Y108126D01*
D02*
G37*
G36*
X50642D02*
X49677Y107867D01*
X48811Y107368D01*
X48105Y106661D01*
X47605Y105796D01*
X47347Y104831D01*
X50642D01*
Y108126D01*
D02*
G37*
G36*
Y103831D02*
X47347D01*
X47605Y102866D01*
X48105Y102000D01*
X48811Y101294D01*
X49677Y100794D01*
X50642Y100536D01*
Y103831D01*
D02*
G37*
G36*
X54937D02*
X51642D01*
Y100536D01*
X52607Y100794D01*
X53472Y101294D01*
X54179Y102000D01*
X54678Y102866D01*
X54937Y103831D01*
D02*
G37*
G36*
X100414Y99040D02*
X97250D01*
Y94988D01*
X100414D01*
Y99040D01*
D02*
G37*
G36*
X96250D02*
X93086D01*
Y94988D01*
X96250D01*
Y99040D01*
D02*
G37*
G36*
X67240Y97161D02*
X65067D01*
Y94988D01*
X67240D01*
Y97161D01*
D02*
G37*
G36*
X132693Y96079D02*
X130421D01*
Y94004D01*
X132693D01*
Y96079D01*
D02*
G37*
G36*
X129421D02*
X127150D01*
Y94004D01*
X129421D01*
Y96079D01*
D02*
G37*
G36*
X41240Y100035D02*
X40972D01*
Y92744D01*
X48264D01*
Y93011D01*
X47964Y94517D01*
X47377Y95935D01*
X46524Y97211D01*
X45439Y98296D01*
X44163Y99149D01*
X42745Y99736D01*
X41240Y100035D01*
D02*
G37*
G36*
X39972D02*
X39705D01*
X38200Y99736D01*
X36782Y99149D01*
X35506Y98296D01*
X34420Y97211D01*
X33568Y95935D01*
X32980Y94517D01*
X32681Y93011D01*
Y92744D01*
X39972D01*
Y100035D01*
D02*
G37*
G36*
X67240Y93988D02*
X65067D01*
Y91815D01*
X67240D01*
Y93988D01*
D02*
G37*
G36*
X132693Y93004D02*
X130421D01*
Y90929D01*
X132693D01*
Y93004D01*
D02*
G37*
G36*
X129421D02*
X127150D01*
Y90929D01*
X129421D01*
Y93004D01*
D02*
G37*
G36*
X137295Y93201D02*
X134138D01*
Y90535D01*
X137295D01*
Y93201D01*
D02*
G37*
G36*
X100414Y93988D02*
X97250D01*
Y89937D01*
X100414D01*
Y93988D01*
D02*
G37*
G36*
X96250D02*
X93086D01*
Y89937D01*
X96250D01*
Y93988D01*
D02*
G37*
G36*
X124799Y91744D02*
X117508D01*
Y84453D01*
X117775D01*
X119281Y84752D01*
X120698Y85339D01*
X121975Y86192D01*
X123060Y87277D01*
X123913Y88554D01*
X124500Y89972D01*
X124799Y91477D01*
Y91744D01*
D02*
G37*
G36*
X48264D02*
X40972D01*
Y84453D01*
X41240D01*
X42745Y84752D01*
X44163Y85339D01*
X45439Y86192D01*
X46524Y87277D01*
X47377Y88554D01*
X47964Y89972D01*
X48264Y91477D01*
Y91744D01*
D02*
G37*
G36*
X39972D02*
X32681D01*
Y91477D01*
X32980Y89972D01*
X33568Y88554D01*
X34420Y87277D01*
X35506Y86192D01*
X36782Y85339D01*
X38200Y84752D01*
X39705Y84453D01*
X39972D01*
Y91744D01*
D02*
G37*
G36*
X146446Y86630D02*
X146169D01*
Y79240D01*
X153559D01*
Y79517D01*
X153256Y81042D01*
X152661Y82477D01*
X151798Y83770D01*
X150699Y84869D01*
X149407Y85732D01*
X147971Y86327D01*
X146446Y86630D01*
D02*
G37*
G36*
X11311D02*
X11034D01*
X9510Y86327D01*
X8074Y85732D01*
X6782Y84869D01*
X5683Y83770D01*
X4819Y82477D01*
X4225Y81042D01*
X3921Y79517D01*
Y79240D01*
X11311D01*
Y86630D01*
D02*
G37*
G36*
X153559Y78240D02*
X146169D01*
Y70850D01*
X146446D01*
X147971Y71154D01*
X149407Y71748D01*
X150699Y72612D01*
X151798Y73711D01*
X152661Y75003D01*
X153256Y76439D01*
X153559Y77963D01*
Y78240D01*
D02*
G37*
G36*
X145169D02*
X137779D01*
Y77963D01*
X138083Y76439D01*
X138678Y75003D01*
X139541Y73711D01*
X140640Y72612D01*
X141932Y71748D01*
X143368Y71154D01*
X144892Y70850D01*
X145169D01*
Y78240D01*
D02*
G37*
G36*
X11311D02*
X3921D01*
Y77963D01*
X4225Y76439D01*
X4819Y75003D01*
X5683Y73711D01*
X6782Y72612D01*
X8074Y71748D01*
X9510Y71154D01*
X11034Y70850D01*
X11311D01*
Y78240D01*
D02*
G37*
G36*
X117775Y73028D02*
X117508D01*
Y65736D01*
X124799D01*
Y66004D01*
X124500Y67509D01*
X123913Y68927D01*
X123060Y70203D01*
X121975Y71288D01*
X120698Y72141D01*
X119281Y72728D01*
X117775Y73028D01*
D02*
G37*
G36*
X42429Y69398D02*
X38280D01*
Y64461D01*
X38918D01*
X39125Y63961D01*
X39096Y63931D01*
X38870Y63386D01*
Y62795D01*
X39096Y62250D01*
X39514Y61832D01*
X40059Y61606D01*
X40650D01*
X41195Y61832D01*
X41613Y62250D01*
X41839Y62795D01*
Y63386D01*
X41613Y63931D01*
X41583Y63961D01*
X41790Y64461D01*
X42429D01*
Y69398D01*
D02*
G37*
G36*
X8130Y59193D02*
X7055D01*
Y56898D01*
X10860D01*
X10830Y57121D01*
X10551Y57795D01*
X10107Y58374D01*
X9528Y58819D01*
X8854Y59098D01*
X8130Y59193D01*
D02*
G37*
G36*
X19362D02*
X16909D01*
X16186Y59098D01*
X15512Y58819D01*
X14933Y58374D01*
X14488Y57795D01*
X14209Y57121D01*
X14180Y56898D01*
X19362D01*
Y59193D01*
D02*
G37*
G36*
X10860Y55898D02*
X7055D01*
Y53602D01*
X8130D01*
X8854Y53697D01*
X9528Y53977D01*
X10107Y54421D01*
X10551Y55000D01*
X10830Y55674D01*
X10860Y55898D01*
D02*
G37*
G36*
X119110Y51787D02*
X116642D01*
Y49713D01*
X119110D01*
Y51787D01*
D02*
G37*
G36*
X115642D02*
X113173D01*
Y49713D01*
X115642D01*
Y51787D01*
D02*
G37*
G36*
X137295Y51984D02*
X134728D01*
Y49614D01*
X137295D01*
Y51984D01*
D02*
G37*
G36*
X110134Y52650D02*
X106839D01*
Y49354D01*
X107803Y49613D01*
X108669Y50113D01*
X109376Y50819D01*
X109875Y51685D01*
X110134Y52650D01*
D02*
G37*
G36*
X105839D02*
X102543D01*
X102802Y51685D01*
X103302Y50819D01*
X104008Y50113D01*
X104874Y49613D01*
X105839Y49354D01*
Y52650D01*
D02*
G37*
G36*
X119110Y48713D02*
X116642D01*
Y46638D01*
X119110D01*
Y48713D01*
D02*
G37*
G36*
X115642D02*
X113173D01*
Y46638D01*
X115642D01*
Y48713D01*
D02*
G37*
G36*
X32693Y56217D02*
X30323D01*
Y53150D01*
X29823D01*
Y52650D01*
X26953D01*
Y50083D01*
Y47744D01*
X29823D01*
Y47244D01*
X30323D01*
Y44177D01*
X32693D01*
Y44601D01*
X33161Y44677D01*
Y44677D01*
X37902D01*
Y44677D01*
X38358Y44572D01*
Y43807D01*
X41240D01*
X44122D01*
Y45546D01*
X44622Y45867D01*
X44882Y45760D01*
X45472D01*
X46018Y45986D01*
X46435Y46403D01*
X46661Y46949D01*
Y47539D01*
X46435Y48085D01*
X46018Y48502D01*
X45472Y48728D01*
X44882D01*
X44622Y48621D01*
X44122Y48942D01*
Y51388D01*
X44537Y51665D01*
X45128D01*
X45673Y51891D01*
X46091Y52309D01*
X46317Y52854D01*
Y53445D01*
X46091Y53990D01*
X45673Y54408D01*
X45128Y54634D01*
X44900D01*
X44258Y55277D01*
X43927Y55497D01*
X43537Y55575D01*
X37902D01*
Y55717D01*
X33161D01*
Y55717D01*
X32693Y55793D01*
Y56217D01*
D02*
G37*
G36*
X9465Y47358D02*
X7390D01*
Y44890D01*
X9465D01*
Y47358D01*
D02*
G37*
G36*
X6390D02*
X4315D01*
Y44890D01*
X6390D01*
Y47358D01*
D02*
G37*
G36*
X29323Y46744D02*
X26953D01*
Y44177D01*
X29323D01*
Y46744D01*
D02*
G37*
G36*
X9465Y43890D02*
X7390D01*
Y41421D01*
X9465D01*
Y43890D01*
D02*
G37*
G36*
X6390D02*
X4315D01*
Y41421D01*
X6390D01*
Y43890D01*
D02*
G37*
G36*
X106772Y46602D02*
X105905D01*
X105067Y46378D01*
X104315Y45944D01*
X103702Y45330D01*
X103268Y44579D01*
X103043Y43741D01*
Y42873D01*
X103268Y42035D01*
X103702Y41284D01*
X104315Y40670D01*
X105067Y40236D01*
X105905Y40012D01*
X106772D01*
X107610Y40236D01*
X108362Y40670D01*
X108976Y41284D01*
X109409Y42035D01*
X109477Y42287D01*
X113673D01*
Y41232D01*
X118610D01*
Y42287D01*
X121252D01*
Y40937D01*
X125402D01*
Y45677D01*
X121252D01*
Y44327D01*
X118610D01*
Y45382D01*
X113673D01*
Y44327D01*
X109477D01*
X109409Y44579D01*
X108976Y45330D01*
X108362Y45944D01*
X107610Y46378D01*
X106772Y46602D01*
D02*
G37*
G36*
X44122Y42807D02*
X41740D01*
Y39933D01*
X44122D01*
Y42807D01*
D02*
G37*
G36*
X40740D02*
X38358D01*
Y39933D01*
X40740D01*
Y42807D01*
D02*
G37*
G36*
X9465Y37319D02*
X7390D01*
Y34850D01*
X9465D01*
Y37319D01*
D02*
G37*
G36*
X6390D02*
X4315D01*
Y34850D01*
X6390D01*
Y37319D01*
D02*
G37*
G36*
X29339Y35799D02*
Y34358D01*
X30779D01*
X30521Y34982D01*
X29963Y35540D01*
X29339Y35799D01*
D02*
G37*
G36*
X28339D02*
X27715Y35540D01*
X27156Y34982D01*
X26898Y34358D01*
X28339D01*
Y35799D01*
D02*
G37*
G36*
X106772Y38728D02*
X105905D01*
X105067Y38504D01*
X104315Y38070D01*
X103702Y37456D01*
X103268Y36705D01*
X103043Y35867D01*
Y34999D01*
X103268Y34161D01*
X103702Y33410D01*
X104315Y32796D01*
X105067Y32362D01*
X105905Y32138D01*
X106772D01*
X107610Y32362D01*
X108362Y32796D01*
X108976Y33410D01*
X109409Y34161D01*
X109477Y34413D01*
X113673D01*
Y33358D01*
X118610D01*
Y34413D01*
X121252D01*
Y33063D01*
X125402D01*
Y37803D01*
X121252D01*
Y36453D01*
X118610D01*
Y37508D01*
X113673D01*
Y36453D01*
X109477D01*
X109409Y36705D01*
X108976Y37456D01*
X108362Y38070D01*
X107610Y38504D01*
X106772Y38728D01*
D02*
G37*
G36*
X30779Y33358D02*
X29339D01*
Y31918D01*
X29963Y32176D01*
X30521Y32734D01*
X30779Y33358D01*
D02*
G37*
G36*
X28339D02*
X26898D01*
X27156Y32734D01*
X27715Y32176D01*
X28339Y31918D01*
Y33358D01*
D02*
G37*
G36*
X9465Y33850D02*
X7390D01*
Y31382D01*
X9465D01*
Y33850D01*
D02*
G37*
G36*
X6390D02*
X4315D01*
Y31382D01*
X6390D01*
Y33850D01*
D02*
G37*
G36*
X119110Y32102D02*
X116642D01*
Y30028D01*
X119110D01*
Y32102D01*
D02*
G37*
G36*
X115642D02*
X113173D01*
Y30028D01*
X115642D01*
Y32102D01*
D02*
G37*
G36*
X33957Y40559D02*
X33366D01*
X32821Y40333D01*
X32403Y39916D01*
X32177Y39370D01*
Y38780D01*
X32403Y38234D01*
X32642Y37995D01*
Y31504D01*
X30504D01*
Y26764D01*
X36819D01*
Y31504D01*
X34681D01*
Y37995D01*
X34920Y38234D01*
X35146Y38780D01*
Y39370D01*
X34920Y39916D01*
X34502Y40333D01*
X33957Y40559D01*
D02*
G37*
G36*
X140862Y29126D02*
X138295D01*
Y26756D01*
X140862D01*
Y29126D01*
D02*
G37*
G36*
X137295D02*
X134728D01*
Y26756D01*
X137295D01*
Y29126D01*
D02*
G37*
G36*
X119110Y29028D02*
X113173D01*
Y27110D01*
X113173Y26953D01*
X112815Y26610D01*
X109477D01*
X109409Y26862D01*
X108976Y27614D01*
X108362Y28227D01*
X107610Y28661D01*
X106772Y28886D01*
X105905D01*
X105067Y28661D01*
X104315Y28227D01*
X103702Y27614D01*
X103268Y26862D01*
X103043Y26024D01*
Y25157D01*
X103268Y24319D01*
X103702Y23567D01*
X104315Y22954D01*
X105067Y22520D01*
X105905Y22295D01*
X106772D01*
X107610Y22520D01*
X108362Y22954D01*
X108976Y23567D01*
X109409Y24319D01*
X109477Y24571D01*
X117688D01*
X122310Y19948D01*
X122641Y19727D01*
X123031Y19650D01*
X127650D01*
Y18595D01*
X132193D01*
Y19453D01*
X134638D01*
Y18126D01*
X134138D01*
Y15461D01*
X137795D01*
Y14961D01*
X138295D01*
Y11795D01*
X141118D01*
Y9228D01*
X145169D01*
Y12892D01*
Y16556D01*
X141453D01*
Y18126D01*
X140953D01*
Y19453D01*
X141618D01*
Y19377D01*
X149721D01*
Y25705D01*
X141618D01*
Y21492D01*
X140953D01*
Y23138D01*
X134638D01*
Y21492D01*
X132193D01*
Y22744D01*
X127650D01*
Y21689D01*
X123454D01*
X118831Y26311D01*
X118620Y26453D01*
X118756Y26953D01*
X119110D01*
Y29028D01*
D02*
G37*
G36*
X37319Y26098D02*
X34161D01*
Y23728D01*
X37319D01*
Y26098D01*
D02*
G37*
G36*
Y22728D02*
X34161D01*
Y20358D01*
X37319D01*
Y22728D01*
D02*
G37*
G36*
X25545Y21843D02*
X20362D01*
Y19547D01*
X22815D01*
X23539Y19642D01*
X24213Y19921D01*
X24792Y20366D01*
X25236Y20945D01*
X25515Y21619D01*
X25545Y21843D01*
D02*
G37*
G36*
X78461Y19701D02*
X75303D01*
Y17035D01*
X78461D01*
Y19701D01*
D02*
G37*
G36*
X74303D02*
X71146D01*
Y17035D01*
X74303D01*
Y19701D01*
D02*
G37*
G36*
X132693Y17339D02*
X130421D01*
Y15264D01*
X132693D01*
Y17339D01*
D02*
G37*
G36*
X129421D02*
X127150D01*
Y15264D01*
X129421D01*
Y17339D01*
D02*
G37*
G36*
X117775Y21295D02*
X117508D01*
Y14004D01*
X124799D01*
Y14271D01*
X124500Y15777D01*
X123913Y17195D01*
X123060Y18471D01*
X121975Y19556D01*
X120698Y20409D01*
X119281Y20996D01*
X117775Y21295D01*
D02*
G37*
G36*
X150221Y16556D02*
X146169D01*
Y13392D01*
X150221D01*
Y16556D01*
D02*
G37*
G36*
X132693Y14264D02*
X130421D01*
Y12189D01*
X132693D01*
Y14264D01*
D02*
G37*
G36*
X129421D02*
X127150D01*
Y12189D01*
X129421D01*
Y14264D01*
D02*
G37*
G36*
X137295Y14461D02*
X134138D01*
Y11795D01*
X137295D01*
Y14461D01*
D02*
G37*
G36*
X105799Y13402D02*
X103331D01*
Y11327D01*
X105799D01*
Y13402D01*
D02*
G37*
G36*
X68130Y13627D02*
X65913D01*
Y11150D01*
X68130D01*
Y13627D01*
D02*
G37*
G36*
X64913D02*
X62697D01*
Y11150D01*
X64913D01*
Y13627D01*
D02*
G37*
G36*
X150221Y12392D02*
X146169D01*
Y9228D01*
X150221D01*
Y12392D01*
D02*
G37*
G36*
X105799Y10327D02*
X103331D01*
Y8252D01*
X105799D01*
Y10327D01*
D02*
G37*
G36*
X68130Y10150D02*
X65913D01*
Y7673D01*
X68130D01*
Y10150D01*
D02*
G37*
G36*
X64913D02*
X62697D01*
Y7673D01*
X64913D01*
Y10150D01*
D02*
G37*
G36*
X124799Y13004D02*
X117508D01*
Y5713D01*
X117775D01*
X119281Y6012D01*
X120698Y6599D01*
X121975Y7452D01*
X123060Y8537D01*
X123913Y9813D01*
X124500Y11231D01*
X124799Y12737D01*
Y13004D01*
D02*
G37*
G36*
X116508Y21295D02*
X116241D01*
X114735Y20996D01*
X113317Y20409D01*
X112041Y19556D01*
X110956Y18471D01*
X110103Y17195D01*
X109516Y15777D01*
X109216Y14271D01*
Y13402D01*
X106799D01*
Y10827D01*
Y8252D01*
X109268D01*
Y10524D01*
X109768Y10623D01*
X110103Y9813D01*
X110956Y8537D01*
X112041Y7452D01*
X113317Y6599D01*
X114735Y6012D01*
X116241Y5713D01*
X116508D01*
Y13504D01*
Y21295D01*
D02*
G37*
G36*
X33103Y7271D02*
X30028D01*
Y4791D01*
X33103D01*
Y7271D01*
D02*
G37*
G36*
X29028D02*
X25952D01*
Y4791D01*
X29028D01*
Y7271D01*
D02*
G37*
G36*
X23260D02*
X20185D01*
Y4791D01*
X23260D01*
Y7271D01*
D02*
G37*
G36*
X19185D02*
X16110D01*
Y4791D01*
X19185D01*
Y7271D01*
D02*
G37*
%LPD*%
D13*
X81411Y60108D02*
Y60616D01*
Y60108D02*
X83268Y58252D01*
X98474Y16683D02*
Y32234D01*
X56398Y10650D02*
Y36595D01*
X76181Y65847D02*
X81411Y60616D01*
X80118Y3642D02*
X82185Y5709D01*
X90551Y23425D02*
X92716Y25591D01*
X90551Y16732D02*
Y23425D01*
Y16732D02*
Y16732D01*
X35531Y47244D02*
X35531Y47244D01*
X45177D01*
X35433Y53087D02*
X36902Y54555D01*
X43537D01*
X44833Y53150D02*
Y53259D01*
X35433Y53051D02*
Y53087D01*
X43537Y54555D02*
X44833Y53259D01*
X35433Y53051D02*
X35531Y53150D01*
X27461Y57579D02*
X29503Y59621D01*
Y62303D01*
X39583Y2968D02*
X42717Y6102D01*
X15043Y2968D02*
X39583D01*
X105413Y16732D02*
X106299D01*
X98524Y16634D02*
X105315D01*
X105413Y16732D01*
X98425Y16732D02*
X98524Y16634D01*
X100787Y22736D02*
X101673Y21850D01*
X96949Y36811D02*
X100787Y32972D01*
Y22736D02*
Y32972D01*
X86811Y57776D02*
Y59941D01*
X89665Y56102D02*
Y67224D01*
X78543Y68209D02*
X86811Y59941D01*
X78543Y68209D02*
Y74004D01*
X82858Y78319D01*
X83366Y74508D02*
X83563D01*
X84984Y71906D02*
X89665Y67224D01*
X83366Y74246D02*
Y74508D01*
X84984Y71906D02*
Y72628D01*
X83366Y74246D02*
X84984Y72628D01*
X84842Y75787D02*
Y83268D01*
X83563Y74508D02*
X84842Y75787D01*
X99902Y133071D02*
Y144488D01*
X88803Y121972D02*
X99902Y133071D01*
X88803Y104103D02*
Y121972D01*
X81791Y120965D02*
X87303Y115453D01*
Y104724D02*
Y115453D01*
X81791Y120965D02*
Y125787D01*
X85661Y100961D02*
X88803Y104103D01*
X82284Y99705D02*
X83539Y100961D01*
X85661D01*
X82284Y97441D02*
Y99705D01*
X80740Y95898D02*
X82284Y97441D01*
X79240Y96519D02*
X80709Y97988D01*
X79240Y86606D02*
Y96519D01*
X80709Y97988D02*
Y100787D01*
X80740Y87370D02*
Y95898D01*
Y87370D02*
X84842Y83268D01*
X83044Y80766D02*
X83214Y80937D01*
X82858Y78319D02*
X83044Y78504D01*
X79240Y86606D02*
X83214Y82632D01*
Y80937D02*
Y82632D01*
X83044Y78504D02*
Y80766D01*
X85039Y102461D02*
X87303Y104724D01*
X82382Y102461D02*
X85039D01*
X80709Y100787D02*
X82382Y102461D01*
X83760Y104035D02*
X85803Y106079D01*
X80807Y104035D02*
X83760D01*
X79035Y102264D02*
X80807Y104035D01*
X79035Y98524D02*
Y102264D01*
X77740Y97228D02*
X79035Y98524D01*
X76575Y103543D02*
X79429Y106398D01*
X82677D01*
X76575Y99311D02*
Y103543D01*
X76240Y78504D02*
Y95020D01*
X73819Y97441D02*
Y105151D01*
Y97441D02*
X76240Y95020D01*
X73819Y105151D02*
X74803Y106136D01*
Y106398D01*
X56595Y126870D02*
Y142028D01*
X58465Y143898D01*
X59252Y101969D02*
X63681Y106398D01*
X78740Y128839D02*
X81791Y125787D01*
X78937Y121555D02*
Y125098D01*
Y121555D02*
X85803Y114689D01*
Y106079D02*
Y114689D01*
X33661Y29134D02*
Y39075D01*
X28839Y19783D02*
Y23031D01*
Y19783D02*
X30315Y18307D01*
X46161D01*
X50197Y14272D01*
X77740Y85843D02*
Y97228D01*
Y85843D02*
X81004Y82579D01*
X76181Y74202D02*
X81004Y79025D01*
Y82579D01*
X78543Y78686D02*
Y81693D01*
X76181Y65847D02*
Y74202D01*
X76673Y46555D02*
Y63189D01*
X74410Y65453D02*
X76673Y63189D01*
X63681Y106398D02*
X66929D01*
X12795Y44094D02*
X13091Y44390D01*
X15354D02*
X16126Y45161D01*
Y52027D01*
X17461Y53362D02*
X19350D01*
X21311Y51401D01*
X16126Y52027D02*
X17461Y53362D01*
X21311Y46799D02*
X23720Y44390D01*
X21311Y46799D02*
Y51401D01*
X13091Y44390D02*
X15354D01*
X12795Y44094D02*
Y44390D01*
Y44094D02*
X12795Y44094D01*
X12795Y34350D02*
X18406D01*
X10149Y26366D02*
X11614Y24902D01*
X4516Y26366D02*
X10149D01*
X4331Y26181D02*
X4516Y26366D01*
X74410Y74552D02*
X78543Y78686D01*
X72539Y74803D02*
X76240Y78504D01*
X72539Y64862D02*
Y74803D01*
X74410Y65453D02*
Y74552D01*
X74213Y59547D02*
Y63189D01*
X72539Y64862D02*
X74213Y63189D01*
X63583Y48917D02*
Y61811D01*
X54287Y60335D02*
X58071D01*
X52023Y62598D02*
X54287Y60335D01*
X47638Y62598D02*
X52023D01*
X50054Y59252D02*
X66437Y42869D01*
X21850Y76181D02*
X38780Y59252D01*
X50054D01*
X63583Y48917D02*
X68972Y43528D01*
Y41067D02*
X68996Y41043D01*
X68972Y41067D02*
Y43528D01*
X62205Y28248D02*
Y31742D01*
X93602Y33957D02*
X96752D01*
X98474Y32234D01*
X95369Y11028D02*
X98224D01*
X98425Y10827D01*
X94784Y11614D02*
X95369Y11028D01*
X94784Y11614D02*
Y12598D01*
X93602Y13780D02*
X94784Y12598D01*
X87894Y13780D02*
X93602D01*
X86614Y12500D02*
X87894Y13780D01*
X86614Y11713D02*
Y12500D01*
X85728Y10827D02*
X86614Y11713D01*
X82677Y10827D02*
X85728D01*
X82480Y11024D02*
X82677Y10827D01*
X74803Y11024D02*
X82480D01*
X74803Y7579D02*
Y11024D01*
X72866Y5642D02*
X74803Y7579D01*
X82776Y41142D02*
X89468Y47835D01*
X93701D01*
X75787Y42224D02*
X89665Y56102D01*
X71653Y56988D02*
X74213Y59547D01*
X71653Y31988D02*
Y56988D01*
X92323Y60335D02*
Y65236D01*
X92323Y65236D01*
X92323Y60335D02*
X92323Y60335D01*
X71728Y61047D02*
X71752Y61024D01*
X71728Y61047D02*
Y63508D01*
X70768Y64468D02*
X71728Y63508D01*
X62205Y64468D02*
X70768D01*
X58071Y60335D02*
X62205Y64468D01*
X55709Y62598D02*
Y65650D01*
X59941Y69882D01*
Y94390D01*
X46260Y63976D02*
Y66929D01*
Y63976D02*
X47638Y62598D01*
X40354Y63090D02*
Y66929D01*
X47377Y10645D02*
X47382Y10650D01*
X37442Y10640D02*
X37447Y10645D01*
X47377D01*
X35330Y13489D02*
X36037Y12782D01*
Y12307D02*
X37442Y10902D01*
Y10640D02*
Y10902D01*
X36037Y12307D02*
Y12782D01*
X29528Y13489D02*
X35330D01*
X97441Y65236D02*
Y78740D01*
Y85335D01*
X95472Y87303D02*
X97441Y85335D01*
X91043Y87303D02*
X95472D01*
X88779Y89567D02*
X91043Y87303D01*
X88779Y89567D02*
Y93996D01*
X88878Y94095D01*
Y94488D01*
X59941Y94390D02*
X60039Y94488D01*
X41339Y114173D02*
X51142D01*
X41339Y114173D02*
X41339Y114173D01*
X41339Y122047D02*
X51142D01*
X41142Y113976D02*
X41339Y114173D01*
X34350Y113976D02*
X41142D01*
X34154Y114173D02*
X34350Y113976D01*
X34154Y122047D02*
X41339D01*
X34154Y122047D02*
X34154Y122047D01*
X19685Y114075D02*
X28740D01*
X28839Y114173D01*
X28740Y122146D02*
X28839Y122047D01*
X19685Y122146D02*
X28740D01*
X11516D02*
X19685D01*
X7185Y117815D02*
X11516Y122146D01*
X7185Y96555D02*
Y117815D01*
Y96555D02*
X20276Y83465D01*
X13484Y114075D02*
X19685D01*
X8957Y109547D02*
X13484Y114075D01*
X8957Y97047D02*
Y109547D01*
Y97047D02*
X21850Y84153D01*
Y76181D02*
Y84153D01*
X20276Y75590D02*
Y83465D01*
Y75590D02*
X38386Y57480D01*
X49705D02*
X64567Y42618D01*
Y34104D02*
Y42618D01*
X38386Y57480D02*
X49705D01*
X62205Y31742D02*
X64567Y34104D01*
X66437Y32874D02*
Y42869D01*
X65453Y31890D02*
X66437Y32874D01*
X65453Y28346D02*
Y31890D01*
X65354Y28248D02*
X65453Y28346D01*
X49498Y43494D02*
X59734D01*
X49311Y43307D02*
X49498Y43494D01*
X49245Y43373D02*
Y51116D01*
X49311Y51181D01*
X49245Y43373D02*
X49311Y43307D01*
X13880Y137008D02*
X19685D01*
X11811Y134939D02*
X13880Y137008D01*
X19882Y136811D02*
X27559D01*
X19685Y137008D02*
X19882Y136811D01*
X34449D02*
X39370Y131890D01*
X27559Y136811D02*
X34449D01*
X39370Y131890D02*
X50886D01*
X50984Y131988D01*
X51083Y131890D01*
X51142D01*
X56398Y7173D02*
Y10650D01*
X11614Y6398D02*
X15043Y2968D01*
X11614Y6398D02*
Y24902D01*
X148425Y93405D02*
Y118405D01*
X146850Y93996D02*
Y110433D01*
X129528Y76673D02*
X146850Y93996D01*
X130020Y75000D02*
X148425Y93405D01*
X137598Y99410D02*
X137795Y99213D01*
X129921Y99410D02*
X137598D01*
X122539D02*
X129921D01*
X117618Y104331D02*
X122539Y99410D01*
X106339Y104331D02*
X117618D01*
X106339Y94549D02*
X106399Y94488D01*
X106339Y102894D02*
X106398Y102953D01*
X106339Y94549D02*
Y102894D01*
Y103012D02*
Y104331D01*
Y103012D02*
X106398Y102953D01*
X143601Y20472D02*
X145669Y22541D01*
X137795Y20472D02*
X143601D01*
X130118D02*
X137795D01*
X129921Y20669D02*
X130118Y20472D01*
X106496Y25787D02*
X106693Y25591D01*
X123031Y20669D02*
X129921D01*
X106693Y25591D02*
X118110D01*
X123031Y20669D01*
X106339Y25591D02*
Y25630D01*
X106496Y25787D01*
X137795Y35335D02*
X143701D01*
X147244Y38878D01*
Y50098D01*
X141339Y56004D02*
X147244Y50098D01*
X137795Y43406D02*
X143701D01*
X145472Y45177D01*
Y49213D01*
X140354Y54331D02*
X145472Y49213D01*
X114370Y56004D02*
X141339D01*
X112894Y54331D02*
X140354D01*
X109449Y57776D02*
X112894Y54331D01*
X109646Y60728D02*
X114370Y56004D01*
X103051Y57776D02*
X109449D01*
X99705Y54429D02*
X103051Y57776D01*
X103150Y60728D02*
X109646D01*
X98032Y55610D02*
X103150Y60728D01*
X98032Y47146D02*
Y55610D01*
X93701Y37795D02*
X99705Y43799D01*
Y54429D01*
X93701Y37697D02*
Y37795D01*
X89272Y36417D02*
Y38386D01*
X98032Y47146D01*
X89260Y36406D02*
X89272Y36417D01*
X89075Y34646D02*
X89260Y34831D01*
Y36406D01*
X128642Y35433D02*
X137697D01*
X137795Y35335D01*
X137697Y43307D02*
X137795Y43406D01*
X128642Y43307D02*
X137697D01*
X116142D02*
X123327D01*
X116142Y35433D02*
X123327D01*
X106339D02*
X116142D01*
X106339Y43307D02*
X116142D01*
X137795Y122146D02*
X144685D01*
X148425Y118405D01*
X137795Y114075D02*
X143209D01*
X146850Y110433D01*
X137697Y114173D02*
X137795Y114075D01*
X128642Y114173D02*
X137697D01*
X137697Y122047D02*
X137795Y122146D01*
X128642Y122047D02*
X137697D01*
X116142D02*
X123327D01*
X116142Y122047D02*
X116142Y122047D01*
X116142Y122047D02*
X116142Y122047D01*
X106339Y122047D02*
X116142D01*
X106339Y114173D02*
X116142D01*
X116142Y114173D01*
X116142Y114173D02*
X123327D01*
X116142Y114173D02*
X116142Y114173D01*
X113681Y76673D02*
X129528D01*
X74803Y37795D02*
X113681Y76673D01*
X74803Y28248D02*
Y37795D01*
X114469Y75000D02*
X130020D01*
X77953Y38484D02*
X114469Y75000D01*
X77854Y28445D02*
X77953Y28543D01*
Y38484D01*
Y28248D02*
Y28346D01*
X77854Y28445D02*
X77953Y28346D01*
X84646Y16732D02*
X90551D01*
X53347Y3642D02*
X80118D01*
X56398Y7173D02*
X57929Y5642D01*
X72866D01*
X50197Y6791D02*
X53347Y3642D01*
X50197Y6791D02*
Y14272D01*
X82776Y30906D02*
Y41142D01*
Y30906D02*
X85335Y28346D01*
X89075D01*
X56398Y40157D02*
X59734Y43494D01*
X56398Y36595D02*
Y40157D01*
X13878Y19488D02*
X16826Y16540D01*
X13878Y26476D02*
X18406Y31004D01*
X13878Y19488D02*
Y26476D01*
X21752Y41043D02*
X23720D01*
X18406Y37697D02*
X21752Y41043D01*
X18406Y37697D02*
Y37697D01*
D31*
Y51083D02*
D03*
Y47736D02*
D03*
Y44390D02*
D03*
Y41043D02*
D03*
Y37697D02*
D03*
Y34350D02*
D03*
Y31004D02*
D03*
Y27657D02*
D03*
X23720D02*
D03*
Y31004D02*
D03*
Y34350D02*
D03*
Y37697D02*
D03*
Y41043D02*
D03*
Y44390D02*
D03*
Y47736D02*
D03*
D32*
Y51083D02*
D03*
D33*
X19862Y22343D02*
D03*
Y56398D02*
D03*
D34*
X6555Y22343D02*
D03*
Y56398D02*
D03*
D39*
X98425Y10827D02*
D03*
Y16732D02*
D03*
X106299Y16732D02*
D03*
Y10827D02*
D03*
X41339Y108268D02*
D03*
Y114173D02*
D03*
Y127953D02*
D03*
Y122047D02*
D03*
X116142Y35433D02*
D03*
Y29528D02*
D03*
X116142Y43307D02*
D03*
Y49213D02*
D03*
Y122047D02*
D03*
Y127953D02*
D03*
Y114173D02*
D03*
Y108268D02*
D03*
X82677Y16732D02*
D03*
Y10827D02*
D03*
D43*
X34154Y122047D02*
D03*
X28839D02*
D03*
X34154Y114173D02*
D03*
X28839D02*
D03*
X128642Y35433D02*
D03*
X123327D02*
D03*
X128642Y43307D02*
D03*
X123327D02*
D03*
X128642Y122047D02*
D03*
X123327D02*
D03*
X128642Y114173D02*
D03*
X123327D02*
D03*
D46*
X145669Y78740D02*
D03*
X11811D02*
D03*
D47*
X51142Y114173D02*
D03*
Y122047D02*
D03*
Y104331D02*
D03*
Y131890D02*
D03*
X106339Y122047D02*
D03*
Y114173D02*
D03*
Y131890D02*
D03*
Y104331D02*
D03*
Y43307D02*
D03*
Y35433D02*
D03*
Y53150D02*
D03*
Y25591D02*
D03*
D48*
X40472Y143976D02*
D03*
Y92244D02*
D03*
X117008D02*
D03*
Y143976D02*
D03*
Y13504D02*
D03*
Y65236D02*
D03*
D49*
X83268Y58252D02*
D03*
X28839Y33858D02*
D03*
X82185Y5709D02*
D03*
X92716Y25591D02*
D03*
X27461Y57579D02*
D03*
X45177Y47244D02*
D03*
X44833Y53150D02*
D03*
X42717Y6102D02*
D03*
X101673Y21850D02*
D03*
X96949Y36811D02*
D03*
X86811Y57776D02*
D03*
X83366Y74508D02*
D03*
X99902Y144488D02*
D03*
X82858Y78319D02*
D03*
X76575Y99311D02*
D03*
X73819Y97441D02*
D03*
X58465Y143898D02*
D03*
X56595Y126870D02*
D03*
X59252Y101969D02*
D03*
X78740Y128839D02*
D03*
X78937Y125098D02*
D03*
X28839Y23031D02*
D03*
X33661Y39075D02*
D03*
X78543Y81693D02*
D03*
X82677Y106398D02*
D03*
X74803D02*
D03*
X66929D02*
D03*
X4331Y26181D02*
D03*
X68996Y41043D02*
D03*
X76673Y46555D02*
D03*
X62205Y28248D02*
D03*
X93602Y33957D02*
D03*
X93701Y47835D02*
D03*
X71653Y31988D02*
D03*
X63583Y61811D02*
D03*
X92323Y60335D02*
D03*
X71752Y61024D02*
D03*
X75787Y42224D02*
D03*
X55709Y62598D02*
D03*
X40354Y63090D02*
D03*
X29503Y62303D02*
D03*
X37442Y10640D02*
D03*
X56496Y14961D02*
D03*
X93701Y37795D02*
D03*
X89075Y28346D02*
D03*
X59734Y43494D02*
D03*
X74803Y28248D02*
D03*
X77953D02*
D03*
X65354D02*
D03*
X89075Y34646D02*
D03*
D50*
X35531Y53150D02*
D03*
X29823D02*
D03*
X35531Y47244D02*
D03*
X29823D02*
D03*
D51*
X84350Y94488D02*
D03*
X88878D02*
D03*
X64567D02*
D03*
X60039D02*
D03*
D52*
X33661Y29134D02*
D03*
Y23228D02*
D03*
D53*
X12795Y44390D02*
D03*
X6890D02*
D03*
X12795Y34350D02*
D03*
X6890D02*
D03*
X46260Y66929D02*
D03*
X40354D02*
D03*
D54*
X92323Y65236D02*
D03*
X97441D02*
D03*
D55*
X49311Y51181D02*
D03*
X41240D02*
D03*
X49311Y43307D02*
D03*
X41240D02*
D03*
D56*
X11811Y134939D02*
D03*
Y144588D02*
D03*
X145669Y22541D02*
D03*
Y12892D02*
D03*
D57*
X19685Y142520D02*
D03*
Y137008D02*
D03*
X137795Y93701D02*
D03*
Y99213D02*
D03*
Y14961D02*
D03*
Y20472D02*
D03*
X74803Y11024D02*
D03*
Y16535D02*
D03*
D58*
X27559Y136811D02*
D03*
Y142717D02*
D03*
X129921Y99410D02*
D03*
Y93504D02*
D03*
X129921Y20669D02*
D03*
Y14764D02*
D03*
X90551Y10827D02*
D03*
Y16732D02*
D03*
D59*
X19685Y114075D02*
D03*
Y108366D02*
D03*
Y122146D02*
D03*
Y127854D02*
D03*
X137795Y29626D02*
D03*
Y35335D02*
D03*
Y49114D02*
D03*
Y43406D02*
D03*
Y127854D02*
D03*
Y122146D02*
D03*
Y108366D02*
D03*
Y114075D02*
D03*
D60*
X106399Y94488D02*
D03*
X96750D02*
D03*
D61*
X97441Y78740D02*
D03*
X60039D02*
D03*
D62*
X29528Y7771D02*
D03*
Y13489D02*
D03*
X19685Y7771D02*
D03*
Y13489D02*
D03*
D63*
X56398Y36595D02*
D03*
D64*
X47382Y10650D02*
D03*
X56398D02*
D03*
D65*
X65413D02*
D03*
D66*
X30020Y50588D02*
Y52953D01*
Y50588D02*
X30313Y50295D01*
X40354D01*
X29823Y53150D02*
X30020Y52953D01*
X40354Y50295D02*
X41240Y51181D01*
M02*
