G04*
G04 #@! TF.GenerationSoftware,Altium Limited,Altium Designer,21.0.9 (235)*
G04*
G04 Layer_Physical_Order=1*
G04 Layer_Color=255*
%FSLAX25Y25*%
%MOIN*%
G70*
G04*
G04 #@! TF.SameCoordinates,0779874B-5586-4D04-955F-C3DAA35446A4*
G04*
G04*
G04 #@! TF.FilePolarity,Positive*
G04*
G01*
G75*
%ADD13C,0.01000*%
%ADD15R,0.04749X0.03765*%
%ADD16R,0.05906X0.05512*%
%ADD17R,0.02559X0.04331*%
%ADD18R,0.02756X0.03543*%
%ADD19R,0.03937X0.03150*%
%ADD20R,0.03150X0.03543*%
%ADD21R,0.03543X0.03150*%
%ADD22R,0.05512X0.05906*%
G04:AMPARAMS|DCode=23|XSize=25.59mil|YSize=64.96mil|CornerRadius=1.92mil|HoleSize=0mil|Usage=FLASHONLY|Rotation=180.000|XOffset=0mil|YOffset=0mil|HoleType=Round|Shape=RoundedRectangle|*
%AMROUNDEDRECTD23*
21,1,0.02559,0.06112,0,0,180.0*
21,1,0.02175,0.06496,0,0,180.0*
1,1,0.00384,-0.01088,0.03056*
1,1,0.00384,0.01088,0.03056*
1,1,0.00384,0.01088,-0.03056*
1,1,0.00384,-0.01088,-0.03056*
%
%ADD23ROUNDEDRECTD23*%
%ADD24R,0.03150X0.03740*%
%ADD25R,0.07700X0.12400*%
G04:AMPARAMS|DCode=26|XSize=21.65mil|YSize=57.09mil|CornerRadius=1.95mil|HoleSize=0mil|Usage=FLASHONLY|Rotation=0.000|XOffset=0mil|YOffset=0mil|HoleType=Round|Shape=RoundedRectangle|*
%AMROUNDEDRECTD26*
21,1,0.02165,0.05319,0,0,0.0*
21,1,0.01776,0.05709,0,0,0.0*
1,1,0.00390,0.00888,-0.02659*
1,1,0.00390,-0.00888,-0.02659*
1,1,0.00390,-0.00888,0.02659*
1,1,0.00390,0.00888,0.02659*
%
%ADD26ROUNDEDRECTD26*%
G04:AMPARAMS|DCode=27|XSize=21.65mil|YSize=57.09mil|CornerRadius=1.95mil|HoleSize=0mil|Usage=FLASHONLY|Rotation=90.000|XOffset=0mil|YOffset=0mil|HoleType=Round|Shape=RoundedRectangle|*
%AMROUNDEDRECTD27*
21,1,0.02165,0.05319,0,0,90.0*
21,1,0.01776,0.05709,0,0,90.0*
1,1,0.00390,0.02659,0.00888*
1,1,0.00390,0.02659,-0.00888*
1,1,0.00390,-0.02659,-0.00888*
1,1,0.00390,-0.02659,0.00888*
%
%ADD27ROUNDEDRECTD27*%
%ADD41C,0.02559*%
%ADD42R,0.02559X0.02559*%
G04:AMPARAMS|DCode=43|XSize=35.43mil|YSize=94.49mil|CornerRadius=17.72mil|HoleSize=0mil|Usage=FLASHONLY|Rotation=270.000|XOffset=0mil|YOffset=0mil|HoleType=Round|Shape=RoundedRectangle|*
%AMROUNDEDRECTD43*
21,1,0.03543,0.05906,0,0,270.0*
21,1,0.00000,0.09449,0,0,270.0*
1,1,0.03543,-0.02953,0.00000*
1,1,0.03543,-0.02953,0.00000*
1,1,0.03543,0.02953,0.00000*
1,1,0.03543,0.02953,0.00000*
%
%ADD43ROUNDEDRECTD43*%
G04:AMPARAMS|DCode=44|XSize=35.43mil|YSize=66.93mil|CornerRadius=17.72mil|HoleSize=0mil|Usage=FLASHONLY|Rotation=270.000|XOffset=0mil|YOffset=0mil|HoleType=Round|Shape=RoundedRectangle|*
%AMROUNDEDRECTD44*
21,1,0.03543,0.03150,0,0,270.0*
21,1,0.00000,0.06693,0,0,270.0*
1,1,0.03543,-0.01575,0.00000*
1,1,0.03543,-0.01575,0.00000*
1,1,0.03543,0.01575,0.00000*
1,1,0.03543,0.01575,0.00000*
%
%ADD44ROUNDEDRECTD44*%
%ADD46C,0.13780*%
%ADD47C,0.05591*%
%ADD48C,0.13583*%
%ADD49C,0.02000*%
G36*
X142413Y152693D02*
X141142D01*
X140752Y152615D01*
X140421Y152394D01*
X137960Y149934D01*
X137739Y149603D01*
X137662Y149213D01*
Y145599D01*
X128416Y136354D01*
X120273D01*
X120173Y136854D01*
X120698Y137072D01*
X121975Y137925D01*
X123060Y139010D01*
X123913Y140286D01*
X124500Y141704D01*
X124799Y143209D01*
Y143476D01*
X117008D01*
X109216D01*
Y143209D01*
X109497Y141797D01*
X109305Y141601D01*
X109066Y141484D01*
X109052Y141493D01*
X108661Y141571D01*
X98454D01*
X96886Y143139D01*
Y146063D01*
X96808Y146453D01*
X96587Y146784D01*
X93339Y150032D01*
X93008Y150253D01*
X92618Y150331D01*
X68012D01*
X67622Y150253D01*
X67291Y150032D01*
X60257Y142998D01*
X59833Y143281D01*
X59965Y143599D01*
Y144196D01*
X59736Y144747D01*
X59484Y144999D01*
Y147531D01*
X60736D01*
Y151681D01*
X56193D01*
Y147531D01*
X57445D01*
Y144999D01*
X57193Y144747D01*
X56965Y144196D01*
Y143599D01*
X57193Y143048D01*
X57615Y142626D01*
X58166Y142398D01*
X58763D01*
X59081Y142529D01*
X59364Y142106D01*
X58830Y141571D01*
X51772D01*
X51381Y141493D01*
X51051Y141272D01*
X44952Y135173D01*
X37725D01*
X35716Y137183D01*
X36035Y137571D01*
X36782Y137072D01*
X38200Y136485D01*
X39705Y136185D01*
X39972D01*
Y143476D01*
X32681D01*
Y143209D01*
X32980Y141704D01*
X33568Y140286D01*
X34067Y139539D01*
X33679Y139220D01*
X33201Y139697D01*
X32871Y139918D01*
X32480Y139996D01*
X24340D01*
X19720Y144615D01*
Y149606D01*
X19643Y149996D01*
X19422Y150327D01*
X17453Y152296D01*
X17122Y152517D01*
X16732Y152594D01*
X15067D01*
Y154963D01*
X20366D01*
Y148122D01*
X26878D01*
Y150555D01*
X31299D01*
X31689Y150633D01*
X32020Y150854D01*
X33099Y151933D01*
X38064D01*
X38200Y151468D01*
X36782Y150881D01*
X35506Y150028D01*
X34420Y148943D01*
X33568Y147667D01*
X32980Y146249D01*
X32681Y144744D01*
Y144476D01*
X40472D01*
X48264D01*
Y144744D01*
X47964Y146249D01*
X47377Y147667D01*
X47051Y148154D01*
X47352Y148604D01*
X47441Y148587D01*
X49500D01*
Y147531D01*
X54043D01*
Y151681D01*
X49500D01*
Y150626D01*
X47863D01*
X44815Y153674D01*
X44485Y153895D01*
X44094Y153972D01*
X32677D01*
X32287Y153895D01*
X31956Y153674D01*
X30877Y152594D01*
X26878D01*
Y154963D01*
X130602D01*
Y152693D01*
X123552D01*
X122571Y153674D01*
X122241Y153895D01*
X121850Y153972D01*
X113484D01*
X113094Y153895D01*
X112763Y153674D01*
X109715Y150626D01*
X107980D01*
Y151681D01*
X103437D01*
Y147531D01*
X107980D01*
Y148587D01*
X110117D01*
X110170Y148533D01*
X110414Y148132D01*
X110103Y147667D01*
X109516Y146249D01*
X109216Y144744D01*
Y144476D01*
X117008D01*
X124799D01*
Y144744D01*
X124500Y146249D01*
X123913Y147667D01*
X123060Y148943D01*
X121975Y150028D01*
X120698Y150881D01*
X119281Y151468D01*
X119416Y151933D01*
X121428D01*
X122409Y150952D01*
X122740Y150731D01*
X123130Y150654D01*
X130602D01*
Y148122D01*
X137114D01*
Y154963D01*
X142413D01*
Y152693D01*
D02*
G37*
G36*
Y148122D02*
X148925D01*
Y150555D01*
X150365D01*
X152819Y148101D01*
Y142323D01*
Y83141D01*
X152319Y82989D01*
X151798Y83770D01*
X150699Y84869D01*
X149407Y85732D01*
X147971Y86327D01*
X146446Y86630D01*
X146169D01*
Y78740D01*
Y70850D01*
X146446D01*
X147971Y71154D01*
X149407Y71748D01*
X150699Y72612D01*
X151798Y73711D01*
X152319Y74491D01*
X152819Y74339D01*
Y7411D01*
X152334Y6925D01*
X148925D01*
Y9358D01*
X142413D01*
Y2517D01*
X137114D01*
Y9358D01*
X130602D01*
Y6925D01*
X126181D01*
X125791Y6848D01*
X125460Y6627D01*
X124578Y5744D01*
X119940D01*
X119841Y6244D01*
X120698Y6599D01*
X121975Y7452D01*
X123060Y8537D01*
X123913Y9813D01*
X124500Y11231D01*
X124799Y12737D01*
Y13004D01*
X117008D01*
X109216D01*
Y12737D01*
X109516Y11231D01*
X110103Y9813D01*
X110414Y9348D01*
X110170Y8947D01*
X110117Y8894D01*
X107980D01*
Y9949D01*
X103480D01*
Y16535D01*
X103403Y16926D01*
X103182Y17256D01*
X102693Y17745D01*
Y20749D01*
X102945Y21001D01*
X103173Y21552D01*
Y22149D01*
X102945Y22700D01*
X102523Y23122D01*
X101972Y23350D01*
X101375D01*
X100824Y23122D01*
X100535Y22834D01*
X100035Y23023D01*
Y24311D01*
X99958Y24701D01*
X99737Y25032D01*
X95701Y29067D01*
X95371Y29288D01*
X94980Y29366D01*
X90176D01*
X89925Y29618D01*
X89373Y29847D01*
X88776D01*
X88225Y29618D01*
X87973Y29366D01*
X86905D01*
X86877Y29505D01*
X86723Y29735D01*
Y30052D01*
X87039Y30476D01*
X98721D01*
X99111Y30554D01*
X99441Y30775D01*
X101902Y33236D01*
X102123Y33566D01*
X102201Y33957D01*
Y51997D01*
X102701Y52063D01*
X102802Y51685D01*
X103302Y50819D01*
X104008Y50113D01*
X104874Y49613D01*
X105839Y49354D01*
Y53150D01*
Y56945D01*
X104874Y56686D01*
X104008Y56187D01*
X103302Y55480D01*
X102802Y54615D01*
X102701Y54237D01*
X102201Y54302D01*
Y70177D01*
X102123Y70567D01*
X101902Y70898D01*
X93109Y79691D01*
X93151Y79899D01*
X93326Y80181D01*
X120345D01*
X125358Y75168D01*
Y31033D01*
X120936Y26610D01*
X109477D01*
X109409Y26862D01*
X108976Y27614D01*
X108362Y28227D01*
X107610Y28661D01*
X106772Y28886D01*
X105905D01*
X105067Y28661D01*
X104315Y28227D01*
X103702Y27614D01*
X103268Y26862D01*
X103043Y26024D01*
Y25157D01*
X103268Y24319D01*
X103702Y23567D01*
X104315Y22954D01*
X105067Y22520D01*
X105905Y22295D01*
X106772D01*
X107610Y22520D01*
X108362Y22954D01*
X108976Y23567D01*
X109409Y24319D01*
X109477Y24571D01*
X121358D01*
X121748Y24649D01*
X122079Y24870D01*
X127099Y29889D01*
X127320Y30220D01*
X127398Y30610D01*
Y75590D01*
X127320Y75981D01*
X127099Y76311D01*
X121489Y81922D01*
X121158Y82143D01*
X120768Y82220D01*
X93631D01*
X92260Y83592D01*
Y86101D01*
X92328D01*
X92598Y86154D01*
X92827Y86307D01*
X92980Y86536D01*
X93033Y86806D01*
Y92918D01*
X92980Y93188D01*
X92827Y93417D01*
X92598Y93570D01*
X92328Y93624D01*
X90153D01*
X89883Y93570D01*
X89654Y93417D01*
X89501Y93188D01*
X89447Y92918D01*
Y90882D01*
X88033D01*
Y92918D01*
X87980Y93188D01*
X87827Y93417D01*
X87598Y93570D01*
X87328Y93624D01*
X85153D01*
X84883Y93570D01*
X84654Y93417D01*
X84501Y93188D01*
X84447Y92918D01*
Y86806D01*
X84501Y86536D01*
X84654Y86307D01*
X84883Y86154D01*
X85153Y86101D01*
X87328D01*
X87598Y86154D01*
X87827Y86307D01*
X87980Y86536D01*
X88033Y86806D01*
Y88843D01*
X89447D01*
Y86806D01*
X89501Y86536D01*
X89654Y86307D01*
X89883Y86154D01*
X90153Y86101D01*
X90221D01*
Y83169D01*
X90298Y82779D01*
X90357Y82690D01*
X90246Y82428D01*
X90070Y82220D01*
X84379D01*
X82260Y84340D01*
Y86101D01*
X82328D01*
X82598Y86154D01*
X82827Y86307D01*
X82980Y86536D01*
X83033Y86806D01*
Y92918D01*
X82980Y93188D01*
X82827Y93417D01*
X82598Y93570D01*
X82328Y93624D01*
X82260D01*
Y94794D01*
X83198Y95732D01*
X94164D01*
X95221Y94676D01*
Y93624D01*
X95153D01*
X94883Y93570D01*
X94654Y93417D01*
X94501Y93188D01*
X94447Y92918D01*
Y86806D01*
X94501Y86536D01*
X94654Y86307D01*
X94883Y86154D01*
X95153Y86101D01*
X97328D01*
X97598Y86154D01*
X97827Y86307D01*
X97979Y86536D01*
X98033Y86806D01*
Y92918D01*
X97979Y93188D01*
X97827Y93417D01*
X97598Y93570D01*
X97328Y93624D01*
X97260D01*
Y95098D01*
X97182Y95489D01*
X96961Y95819D01*
X95308Y97473D01*
X94977Y97694D01*
X94587Y97772D01*
X82776D01*
X82677Y97752D01*
X82370Y97706D01*
X81961Y98008D01*
X79937Y100032D01*
X79903Y100055D01*
X80054Y100555D01*
X96949D01*
X97339Y100633D01*
X97670Y100854D01*
X100127Y103311D01*
X103200D01*
X103268Y103059D01*
X103702Y102307D01*
X104315Y101694D01*
X105067Y101260D01*
X105905Y101035D01*
X106772D01*
X107610Y101260D01*
X108362Y101694D01*
X108976Y102307D01*
X109409Y103059D01*
X109634Y103897D01*
Y104764D01*
X109409Y105603D01*
X108976Y106354D01*
X108362Y106968D01*
X107610Y107401D01*
X106772Y107626D01*
X105905D01*
X105067Y107401D01*
X104315Y106968D01*
X103702Y106354D01*
X103268Y105603D01*
X103200Y105350D01*
X99705D01*
X99314Y105273D01*
X98984Y105052D01*
X96526Y102594D01*
X73524D01*
X73133Y102517D01*
X72803Y102296D01*
X70519Y100012D01*
X70298Y99682D01*
X70221Y99291D01*
Y93624D01*
X70153D01*
X69883Y93570D01*
X69654Y93417D01*
X69501Y93188D01*
X69447Y92918D01*
Y86806D01*
X69501Y86536D01*
X69654Y86307D01*
X69883Y86154D01*
X70153Y86101D01*
X72328D01*
X72598Y86154D01*
X72827Y86307D01*
X72979Y86536D01*
X73033Y86806D01*
Y92918D01*
X72979Y93188D01*
X72827Y93417D01*
X72598Y93570D01*
X72328Y93624D01*
X72260D01*
Y96172D01*
X72760Y96379D01*
X72969Y96169D01*
X73520Y95941D01*
X73877D01*
X75221Y94597D01*
Y93624D01*
X75153D01*
X74883Y93570D01*
X74654Y93417D01*
X74501Y93188D01*
X74447Y92918D01*
Y86806D01*
X74501Y86536D01*
X74654Y86307D01*
X74883Y86154D01*
X75153Y86101D01*
X77328D01*
X77598Y86154D01*
X77827Y86307D01*
X77979Y86536D01*
X78033Y86806D01*
Y92918D01*
X77979Y93188D01*
X77827Y93417D01*
X77598Y93570D01*
X77328Y93624D01*
X77260D01*
Y95020D01*
X77182Y95410D01*
X76961Y95741D01*
X75421Y97281D01*
X75415Y97310D01*
X75435Y97684D01*
X75883Y97974D01*
X76276Y97811D01*
X76873D01*
X77425Y98039D01*
X77676Y98291D01*
X78794D01*
X80221Y96865D01*
Y93624D01*
X80153D01*
X79883Y93570D01*
X79654Y93417D01*
X79501Y93188D01*
X79447Y92918D01*
Y86806D01*
X79501Y86536D01*
X79654Y86307D01*
X79883Y86154D01*
X80153Y86101D01*
X80221D01*
Y83917D01*
X80298Y83527D01*
X80519Y83196D01*
X83236Y80480D01*
X83566Y80259D01*
X83957Y80181D01*
X89735D01*
X100162Y69755D01*
Y40078D01*
X99661Y39871D01*
X93698Y45835D01*
X93905Y46335D01*
X93999D01*
X94551Y46563D01*
X94972Y46985D01*
X95201Y47536D01*
Y47893D01*
X96961Y49653D01*
X97182Y49984D01*
X97260Y50374D01*
Y63857D01*
X97328D01*
X97598Y63910D01*
X97827Y64063D01*
X97979Y64292D01*
X98033Y64562D01*
Y70674D01*
X97979Y70944D01*
X97827Y71173D01*
X97598Y71326D01*
X97328Y71380D01*
X95153D01*
X94883Y71326D01*
X94654Y71173D01*
X94501Y70944D01*
X94447Y70674D01*
Y68638D01*
X93033D01*
Y70674D01*
X92980Y70944D01*
X92827Y71173D01*
X92598Y71326D01*
X92328Y71380D01*
X90153D01*
X89883Y71326D01*
X89654Y71173D01*
X89501Y70944D01*
X89447Y70674D01*
Y64562D01*
X89501Y64292D01*
X89654Y64063D01*
X89883Y63910D01*
X90153Y63857D01*
X92328D01*
X92598Y63910D01*
X92827Y64063D01*
X92980Y64292D01*
X93033Y64562D01*
Y66598D01*
X94447D01*
Y64562D01*
X94501Y64292D01*
X94654Y64063D01*
X94883Y63910D01*
X95153Y63857D01*
X95221D01*
Y50796D01*
X93759Y49335D01*
X93402D01*
X93055Y49191D01*
X92555Y49463D01*
Y57677D01*
X92477Y58067D01*
X92299Y58335D01*
X92362Y58569D01*
X92527Y58835D01*
X92621D01*
X93173Y59063D01*
X93594Y59485D01*
X93823Y60036D01*
Y60633D01*
X93594Y61184D01*
X93173Y61606D01*
X92621Y61835D01*
X92265D01*
X91124Y62975D01*
X90794Y63196D01*
X90403Y63274D01*
X83445D01*
X83315Y63490D01*
X83234Y63774D01*
X83451Y64097D01*
X83543Y64562D01*
Y67118D01*
X81240D01*
X78937D01*
Y64562D01*
X79030Y64097D01*
X79246Y63774D01*
X79165Y63490D01*
X79036Y63274D01*
X78129D01*
X77895Y63507D01*
X77827Y64063D01*
X77979Y64292D01*
X78033Y64562D01*
Y70674D01*
X77979Y70944D01*
X77827Y71173D01*
X77598Y71326D01*
X77328Y71380D01*
X77201D01*
Y71944D01*
X78745Y73488D01*
X82264D01*
X82516Y73236D01*
X83068Y73008D01*
X83665D01*
X84216Y73236D01*
X84638Y73658D01*
X84721Y73858D01*
X85221Y73759D01*
Y71380D01*
X85153D01*
X84883Y71326D01*
X84654Y71173D01*
X84501Y70944D01*
X84447Y70674D01*
Y64562D01*
X84501Y64292D01*
X84654Y64063D01*
X84883Y63910D01*
X85153Y63857D01*
X87328D01*
X87598Y63910D01*
X87827Y64063D01*
X87980Y64292D01*
X88033Y64562D01*
Y70674D01*
X87980Y70944D01*
X87827Y71173D01*
X87598Y71326D01*
X87328Y71380D01*
X87260D01*
Y75571D01*
X87182Y75961D01*
X86961Y76292D01*
X84162Y79091D01*
X84130Y79169D01*
X83708Y79590D01*
X83157Y79819D01*
X82560D01*
X82009Y79590D01*
X81883Y79465D01*
X71949D01*
X71559Y79387D01*
X71228Y79166D01*
X65519Y73457D01*
X65298Y73126D01*
X65221Y72736D01*
Y71889D01*
X65102Y71825D01*
X64602Y72122D01*
Y80020D01*
X64566Y80203D01*
X64625Y80343D01*
X64860Y80621D01*
X64943Y80673D01*
X77442D01*
X77694Y80421D01*
X78245Y80193D01*
X78842D01*
X79393Y80421D01*
X79815Y80843D01*
X80043Y81394D01*
Y81991D01*
X79815Y82543D01*
X79393Y82964D01*
X78842Y83193D01*
X78245D01*
X77694Y82964D01*
X77442Y82713D01*
X65186D01*
X62298Y85601D01*
X62328Y86101D01*
X62598Y86154D01*
X62827Y86307D01*
X62980Y86536D01*
X63033Y86806D01*
Y92918D01*
X62980Y93188D01*
X62827Y93417D01*
X62598Y93570D01*
X62328Y93624D01*
X62260D01*
Y99980D01*
X62182Y100371D01*
X61961Y100701D01*
X60752Y101910D01*
Y102267D01*
X60524Y102818D01*
X60102Y103240D01*
X59550Y103469D01*
X58954D01*
X58402Y103240D01*
X58114Y102952D01*
X57614Y103141D01*
Y125255D01*
X57634Y125268D01*
X58134Y125001D01*
Y108071D01*
X58212Y107681D01*
X58433Y107350D01*
X65221Y100562D01*
Y93624D01*
X65153D01*
X64883Y93570D01*
X64654Y93417D01*
X64501Y93188D01*
X64447Y92918D01*
Y86806D01*
X64501Y86536D01*
X64654Y86307D01*
X64883Y86154D01*
X65153Y86101D01*
X67328D01*
X67598Y86154D01*
X67827Y86307D01*
X67980Y86536D01*
X68033Y86806D01*
Y92918D01*
X67980Y93188D01*
X67827Y93417D01*
X67598Y93570D01*
X67328Y93624D01*
X67260D01*
Y100984D01*
X67182Y101374D01*
X66961Y101705D01*
X60173Y108493D01*
Y128937D01*
X60096Y129327D01*
X59874Y129658D01*
X56922Y132611D01*
X56591Y132832D01*
X56201Y132909D01*
X54280D01*
X54212Y133162D01*
X53779Y133913D01*
X53165Y134527D01*
X52414Y134960D01*
X51576Y135185D01*
X50708D01*
X49870Y134960D01*
X49118Y134527D01*
X48505Y133913D01*
X48071Y133162D01*
X47846Y132324D01*
Y131456D01*
X48071Y130618D01*
X48505Y129866D01*
X49118Y129253D01*
X49870Y128819D01*
X50708Y128595D01*
X51576D01*
X52414Y128819D01*
X53165Y129253D01*
X53779Y129866D01*
X54212Y130618D01*
X54280Y130870D01*
X55778D01*
X58028Y128621D01*
X57987Y128305D01*
X57474Y128112D01*
X57444Y128142D01*
X56893Y128370D01*
X56296D01*
X55745Y128142D01*
X55323Y127720D01*
X55094Y127169D01*
Y126572D01*
X55323Y126020D01*
X55575Y125768D01*
Y87008D01*
X55652Y86618D01*
X55874Y86287D01*
X62563Y79597D01*
Y72083D01*
X62328Y71890D01*
X61740D01*
Y67618D01*
Y63347D01*
X62328D01*
X62370Y63312D01*
X62406Y62756D01*
X62311Y62661D01*
X62170Y62321D01*
X61757Y62177D01*
X61651Y62160D01*
X61606Y62165D01*
X61315Y62359D01*
X60925Y62437D01*
X57312D01*
X57209Y62540D01*
Y62897D01*
X56980Y63448D01*
X56558Y63870D01*
X56007Y64098D01*
X55410D01*
X54859Y63870D01*
X54437Y63448D01*
X54209Y62897D01*
Y62300D01*
X54437Y61749D01*
X54859Y61327D01*
X55410Y61098D01*
X55767D01*
X56169Y60696D01*
X56500Y60475D01*
X56890Y60398D01*
X60246D01*
X60282Y60324D01*
X59943Y59882D01*
X59943Y59882D01*
X59555D01*
Y56004D01*
Y52126D01*
X59943D01*
X60409Y52219D01*
X60804Y52483D01*
X60975Y52738D01*
X61046Y52690D01*
X61317Y52636D01*
X63092D01*
X63364Y52690D01*
X63594Y52843D01*
X63966D01*
X64195Y52690D01*
X64467Y52636D01*
X66242D01*
X66513Y52690D01*
X66585Y52738D01*
X66755Y52483D01*
X67150Y52219D01*
X67616Y52126D01*
X68004D01*
Y56004D01*
X69004D01*
Y52126D01*
X69392D01*
X69858Y52219D01*
X70253Y52483D01*
X70423Y52738D01*
X70495Y52690D01*
X70766Y52636D01*
X72541D01*
X72812Y52690D01*
X73042Y52843D01*
X73414D01*
X73644Y52690D01*
X73915Y52636D01*
X75691D01*
X75962Y52690D01*
X76192Y52843D01*
X76508D01*
X76933Y52528D01*
Y51210D01*
X70237Y44514D01*
X60836D01*
X60584Y44766D01*
X60033Y44994D01*
X59436D01*
X58885Y44766D01*
X58632Y44514D01*
X57027D01*
X56725Y44815D01*
X56394Y45037D01*
X56004Y45114D01*
X53637D01*
X53609Y45253D01*
X53456Y45483D01*
Y45855D01*
X53609Y46085D01*
X53663Y46356D01*
Y48132D01*
X53609Y48403D01*
X53456Y48633D01*
Y49005D01*
X53609Y49235D01*
X53663Y49506D01*
Y51281D01*
X53609Y51553D01*
X53456Y51783D01*
X53226Y51936D01*
X52955Y51990D01*
X51315D01*
Y52461D01*
X51237Y52851D01*
X51016Y53182D01*
X50327Y53871D01*
X49997Y54092D01*
X49606Y54169D01*
X45934D01*
X45682Y54421D01*
X45530Y54484D01*
X45630Y54984D01*
X54309D01*
Y53345D01*
X54363Y53073D01*
X54517Y52843D01*
X54747Y52690D01*
X55018Y52636D01*
X56793D01*
X57064Y52690D01*
X57136Y52738D01*
X57306Y52483D01*
X57701Y52219D01*
X58167Y52126D01*
X58555D01*
Y56004D01*
Y59882D01*
X58167D01*
X57701Y59789D01*
X57306Y59525D01*
X57136Y59270D01*
X57064Y59318D01*
X56793Y59372D01*
X55018D01*
X54747Y59318D01*
X54517Y59164D01*
X54363Y58934D01*
X54309Y58663D01*
Y57024D01*
X45206D01*
X41764Y60465D01*
X41434Y60686D01*
X41043Y60764D01*
X31372D01*
X31104Y61264D01*
X31118Y61284D01*
X39567D01*
X39957Y61361D01*
X40288Y61582D01*
X40296Y61590D01*
X40653D01*
X41204Y61819D01*
X41626Y62241D01*
X41854Y62792D01*
Y63389D01*
X41626Y63940D01*
X41204Y64362D01*
X40653Y64591D01*
X40056D01*
X39505Y64362D01*
X39083Y63940D01*
X38854Y63389D01*
Y63323D01*
X30605D01*
X30353Y63575D01*
X29801Y63803D01*
X29476D01*
X29190Y64275D01*
X29268Y64665D01*
Y64854D01*
X30520D01*
Y69004D01*
X25976D01*
Y67949D01*
X24909D01*
Y70382D01*
X19086D01*
X18879Y70882D01*
X20725Y72728D01*
X23827D01*
Y76878D01*
X19879D01*
X19562Y77264D01*
X19701Y77963D01*
Y78240D01*
X11811D01*
Y78740D01*
X11311D01*
Y86630D01*
X11034D01*
X9510Y86327D01*
X8074Y85732D01*
X6782Y84869D01*
X5683Y83770D01*
X4819Y82477D01*
X4669Y82115D01*
X4169Y82215D01*
Y83436D01*
X8592Y87858D01*
X22708D01*
X27228Y83337D01*
Y76878D01*
X25976D01*
Y72728D01*
X30520D01*
Y73784D01*
X32747D01*
X36484Y70047D01*
X36814Y69826D01*
X37205Y69748D01*
X47904D01*
X48095Y69558D01*
Y67815D01*
X48172Y67425D01*
X48393Y67094D01*
X49279Y66208D01*
X49610Y65987D01*
X50000Y65910D01*
X50878D01*
Y64657D01*
X55028D01*
Y69201D01*
X50878D01*
Y68383D01*
X50378Y68163D01*
X50134Y68386D01*
Y69980D01*
X50056Y70371D01*
X49835Y70701D01*
X49048Y71489D01*
X48717Y71710D01*
X48327Y71787D01*
X37627D01*
X36131Y73284D01*
X36338Y73784D01*
X47138D01*
Y72531D01*
X51287D01*
Y77075D01*
X47138D01*
Y75823D01*
X36446D01*
X31531Y80737D01*
Y84153D01*
X31454Y84544D01*
X31233Y84874D01*
X24835Y91272D01*
X24504Y91493D01*
X24114Y91571D01*
X7017D01*
X3988Y94599D01*
Y147527D01*
X7017Y150555D01*
X8555D01*
Y148122D01*
X15067D01*
Y150555D01*
X16310D01*
X17681Y149184D01*
Y144193D01*
X17759Y143803D01*
X17980Y143472D01*
X23196Y138255D01*
X23527Y138034D01*
X23917Y137957D01*
X32058D01*
X36582Y133433D01*
X36913Y133212D01*
X37303Y133134D01*
X45374D01*
X45764Y133212D01*
X46095Y133433D01*
X52194Y139532D01*
X59252D01*
X59642Y139609D01*
X59973Y139830D01*
X68434Y148291D01*
X92196D01*
X94847Y145641D01*
Y142717D01*
X94924Y142326D01*
X95145Y141996D01*
X97311Y139830D01*
X97641Y139609D01*
X98032Y139532D01*
X108239D01*
X113157Y134614D01*
X113488Y134393D01*
X113878Y134315D01*
X128839D01*
X129229Y134393D01*
X129560Y134614D01*
X139402Y144456D01*
X139623Y144787D01*
X139701Y145177D01*
Y148790D01*
X141564Y150654D01*
X142413D01*
Y148122D01*
D02*
G37*
G36*
X58402Y100697D02*
X58954Y100469D01*
X59310D01*
X60221Y99558D01*
Y93624D01*
X60153D01*
X59883Y93570D01*
X59654Y93417D01*
X59501Y93188D01*
X59447Y92918D01*
Y86806D01*
X59501Y86536D01*
X59654Y86307D01*
X59883Y86154D01*
X60153Y86101D01*
X60221D01*
Y85531D01*
X59721Y85324D01*
X57614Y87430D01*
Y100796D01*
X58114Y100985D01*
X58402Y100697D01*
D02*
G37*
G36*
X82009Y77047D02*
X82560Y76819D01*
X83157D01*
X83435Y76934D01*
X83930Y76439D01*
X83683Y76038D01*
X83654Y76008D01*
X83068D01*
X82516Y75779D01*
X82264Y75528D01*
X78323D01*
X77933Y75450D01*
X77602Y75229D01*
X75460Y73087D01*
X75239Y72756D01*
X75161Y72366D01*
Y71380D01*
X75153D01*
X74883Y71326D01*
X74654Y71173D01*
X74501Y70944D01*
X74447Y70674D01*
Y64562D01*
X74067Y64110D01*
X73414D01*
X73033Y64562D01*
Y70674D01*
X72979Y70944D01*
X72827Y71173D01*
X72598Y71326D01*
X72328Y71380D01*
X70153D01*
X69883Y71326D01*
X69654Y71173D01*
X69501Y70944D01*
X69447Y70674D01*
Y65821D01*
X69401Y65812D01*
X69070Y65591D01*
X68533Y65054D01*
X68033Y65261D01*
Y70674D01*
X67980Y70944D01*
X67827Y71173D01*
X67598Y71326D01*
X67328Y71380D01*
X67260D01*
Y72314D01*
X72371Y77425D01*
X81630D01*
X82009Y77047D01*
D02*
G37*
G36*
X7055Y53602D02*
X7457D01*
X7664Y53102D01*
X3610Y49048D01*
X3389Y48717D01*
X3311Y48327D01*
Y27288D01*
X3000Y26988D01*
X2517Y27099D01*
Y54234D01*
X2954Y54402D01*
X3017Y54411D01*
X3582Y53977D01*
X4257Y53697D01*
X4980Y53602D01*
X6055D01*
Y56398D01*
X7055D01*
Y53602D01*
D02*
G37*
G36*
X72110Y42796D02*
Y39792D01*
X65030Y32713D01*
X61141D01*
X60966Y32995D01*
X60924Y33202D01*
X67745Y40024D01*
X67894D01*
X68146Y39772D01*
X68698Y39543D01*
X69294D01*
X69846Y39772D01*
X70268Y40194D01*
X70496Y40745D01*
Y41342D01*
X70268Y41893D01*
X70186Y41974D01*
X70393Y42474D01*
X70659D01*
X71050Y42552D01*
X71380Y42773D01*
X71610Y43003D01*
X72110Y42796D01*
D02*
G37*
G36*
X4819Y75003D02*
X5683Y73711D01*
X6782Y72612D01*
X8074Y71748D01*
X9510Y71154D01*
X10876Y70882D01*
X10826Y70382D01*
X6587D01*
Y63476D01*
X13098D01*
Y66008D01*
X14862D01*
X15252Y66086D01*
X15583Y66307D01*
X16764Y67488D01*
X16985Y67818D01*
X17063Y68209D01*
Y69066D01*
X17898Y69901D01*
X18398Y69693D01*
Y63476D01*
X24909D01*
Y65909D01*
X25976D01*
Y64854D01*
X26342D01*
X26533Y64392D01*
X26051Y63910D01*
X25830Y63579D01*
X25752Y63189D01*
Y60827D01*
X25830Y60437D01*
X26051Y60106D01*
X26784Y59372D01*
X26687Y58882D01*
X26611Y58850D01*
X26189Y58428D01*
X25961Y57877D01*
Y57280D01*
X25499Y57161D01*
X25236Y57795D01*
X24792Y58374D01*
X24213Y58819D01*
X23539Y59098D01*
X22815Y59193D01*
X20362D01*
Y56898D01*
X25545D01*
X25529Y57015D01*
X26016Y57146D01*
X26189Y56729D01*
X26611Y56307D01*
X27162Y56079D01*
X27519D01*
X27626Y55972D01*
X27956Y55751D01*
X28346Y55673D01*
X31429D01*
X31819Y55751D01*
X32150Y55972D01*
X32836Y56658D01*
X38062D01*
X38547Y56172D01*
Y55520D01*
X37984D01*
Y50779D01*
X42134D01*
Y52130D01*
X43731D01*
X43983Y51878D01*
X44534Y51650D01*
X45131D01*
X45682Y51878D01*
X45934Y52130D01*
X46812D01*
X46833Y52106D01*
X47033Y51630D01*
X46981Y51553D01*
X46927Y51281D01*
Y49506D01*
X46981Y49235D01*
X47135Y49005D01*
Y48689D01*
X46819Y48264D01*
X46279D01*
X46027Y48516D01*
X45476Y48744D01*
X44879D01*
X44328Y48516D01*
X44075Y48264D01*
X42134D01*
Y49614D01*
X37984D01*
Y44874D01*
X42134D01*
Y46224D01*
X44075D01*
X44328Y45972D01*
X44879Y45744D01*
X45476D01*
X46027Y45972D01*
X46279Y46224D01*
X46954D01*
X46981Y46085D01*
X47135Y45855D01*
Y45539D01*
X46819Y45114D01*
X44685D01*
X44295Y45037D01*
X43964Y44815D01*
X43279Y44130D01*
X37697D01*
X37307Y44052D01*
X36976Y43831D01*
X33720Y40575D01*
X33363D01*
X32812Y40346D01*
X32390Y39924D01*
X32161Y39373D01*
Y38776D01*
X32390Y38225D01*
X32642Y37973D01*
Y36917D01*
X31882D01*
Y31587D01*
X35441D01*
Y31587D01*
X35622D01*
Y31587D01*
X36284D01*
Y30934D01*
X35897Y30547D01*
X30020D01*
X29629Y30470D01*
X29299Y30248D01*
X28118Y29067D01*
X27897Y28737D01*
X27819Y28346D01*
Y24133D01*
X27567Y23881D01*
X27339Y23330D01*
Y22733D01*
X27567Y22182D01*
X27989Y21760D01*
X28540Y21531D01*
X29137D01*
X29688Y21760D01*
X30110Y22182D01*
X30339Y22733D01*
Y23330D01*
X30110Y23881D01*
X29858Y24133D01*
Y27924D01*
X30442Y28508D01*
X36319D01*
X36709Y28586D01*
X37040Y28807D01*
X38024Y29791D01*
X38245Y30122D01*
X38323Y30512D01*
Y31587D01*
X39181D01*
Y31587D01*
X39362D01*
Y31587D01*
X42090D01*
X42281Y31125D01*
X40421Y29264D01*
X40200Y28934D01*
X40122Y28543D01*
Y28111D01*
X39681Y27968D01*
Y27968D01*
X37902D01*
Y24803D01*
Y21638D01*
X39681D01*
Y22138D01*
X42921D01*
X43075Y21701D01*
Y19988D01*
X42217D01*
Y15445D01*
X45972D01*
Y19988D01*
X45114D01*
Y23720D01*
X45037Y24111D01*
X44815Y24441D01*
X44028Y25229D01*
X43697Y25450D01*
X43307Y25528D01*
X42921D01*
Y27468D01*
X42161D01*
Y28121D01*
X45209Y31169D01*
X45430Y31500D01*
X45508Y31890D01*
Y33338D01*
X45796Y33626D01*
X46473D01*
X46546Y33533D01*
X46695Y33126D01*
X46510Y32850D01*
X46417Y32384D01*
Y31996D01*
X50295D01*
X54173D01*
Y32384D01*
X54080Y32850D01*
X53816Y33245D01*
X53562Y33415D01*
X53609Y33487D01*
X53663Y33758D01*
Y35533D01*
X53609Y35805D01*
X53456Y36034D01*
Y36406D01*
X53609Y36636D01*
X53663Y36908D01*
Y38683D01*
X53609Y38954D01*
X53456Y39184D01*
Y39556D01*
X53609Y39786D01*
X53663Y40057D01*
Y41833D01*
X53609Y42104D01*
X53456Y42334D01*
Y42650D01*
X53772Y43075D01*
X55582D01*
X55883Y42773D01*
X56214Y42552D01*
X56604Y42474D01*
X58632D01*
X58885Y42222D01*
X59436Y41994D01*
X60033D01*
X60584Y42222D01*
X60836Y42474D01*
X66833D01*
X66926Y42018D01*
X66917Y41974D01*
X66602Y41764D01*
X55185Y30347D01*
X54963Y30016D01*
X54886Y29626D01*
Y26078D01*
X54747Y26050D01*
X54517Y25897D01*
X54363Y25667D01*
X54309Y25396D01*
Y20077D01*
X54363Y19806D01*
X54517Y19576D01*
X54747Y19422D01*
X55018Y19368D01*
X56793D01*
X57064Y19422D01*
X57294Y19576D01*
X57666D01*
X57896Y19422D01*
X58167Y19368D01*
X59943D01*
X60214Y19422D01*
X60444Y19576D01*
X60816D01*
X61046Y19422D01*
X61317Y19368D01*
X63092D01*
X63364Y19422D01*
X63594Y19576D01*
X63966D01*
X64195Y19422D01*
X64467Y19368D01*
X66242D01*
X66513Y19422D01*
X66743Y19576D01*
X67115D01*
X67345Y19422D01*
X67616Y19368D01*
X69392D01*
X69663Y19422D01*
X69893Y19576D01*
X70265D01*
X70495Y19422D01*
X70766Y19368D01*
X72541D01*
X72812Y19422D01*
X73042Y19576D01*
X73414D01*
X73644Y19422D01*
X73915Y19368D01*
X75691D01*
X75962Y19422D01*
X76192Y19576D01*
X76564D01*
X76794Y19422D01*
X77065Y19368D01*
X78841D01*
X79112Y19422D01*
X79342Y19576D01*
X79495Y19806D01*
X79549Y20077D01*
Y25396D01*
X79495Y25667D01*
X79342Y25897D01*
X79112Y26050D01*
X78972Y26078D01*
Y27146D01*
X79224Y27398D01*
X79453Y27950D01*
Y28546D01*
X79224Y29098D01*
X78802Y29520D01*
X78251Y29748D01*
X77654D01*
X77103Y29520D01*
X76681Y29098D01*
X76635Y28986D01*
X76109Y28949D01*
X75687Y29371D01*
X75135Y29600D01*
X74539D01*
X73987Y29371D01*
X73565Y28949D01*
X73337Y28398D01*
Y27801D01*
X73565Y27250D01*
X73784Y27032D01*
Y26078D01*
X73644Y26050D01*
X73414Y25897D01*
X73098D01*
X72673Y26212D01*
Y30887D01*
X72925Y31139D01*
X73154Y31690D01*
Y32287D01*
X72925Y32838D01*
X72503Y33260D01*
X72091Y33430D01*
X71888Y33846D01*
X71862Y33988D01*
X71883Y34020D01*
X74016D01*
X74406Y34097D01*
X74737Y34318D01*
X76508Y36090D01*
X76729Y36421D01*
X76807Y36811D01*
Y41123D01*
X77059Y41375D01*
X77287Y41926D01*
Y42523D01*
X77059Y43074D01*
X76637Y43496D01*
X76086Y43724D01*
X75991D01*
X75784Y44224D01*
X76615Y45055D01*
X76972D01*
X77523Y45283D01*
X77945Y45705D01*
X78173Y46257D01*
Y46854D01*
X77945Y47405D01*
X77523Y47827D01*
X77253Y47939D01*
X77124Y48517D01*
X78674Y50066D01*
X78895Y50397D01*
X78972Y50787D01*
Y52662D01*
X79112Y52690D01*
X79342Y52843D01*
X79495Y53073D01*
X79549Y53345D01*
Y54984D01*
X81020D01*
X81410Y55062D01*
X81741Y55283D01*
X83210Y56752D01*
X83566D01*
X84117Y56980D01*
X84539Y57402D01*
X84768Y57954D01*
Y58550D01*
X84539Y59102D01*
X84432Y59209D01*
X84639Y59709D01*
X86252D01*
X86351Y59209D01*
X85961Y59047D01*
X85539Y58625D01*
X85311Y58074D01*
Y57477D01*
X85539Y56926D01*
X85961Y56504D01*
X86513Y56276D01*
X86869D01*
X88547Y54597D01*
Y45472D01*
X88625Y45082D01*
X88846Y44752D01*
X93802Y39795D01*
X93595Y39295D01*
X93402D01*
X92851Y39067D01*
X92599Y38815D01*
X87385D01*
X87312Y38908D01*
X87164Y39315D01*
X87348Y39591D01*
X87441Y40057D01*
Y40445D01*
X83563D01*
X79685D01*
Y40057D01*
X79778Y39591D01*
X80042Y39196D01*
X80297Y39026D01*
X80249Y38954D01*
X80195Y38683D01*
Y36908D01*
X80249Y36636D01*
X80403Y36406D01*
Y36034D01*
X80249Y35805D01*
X80195Y35533D01*
Y33758D01*
X80249Y33487D01*
X80403Y33257D01*
Y32885D01*
X80249Y32655D01*
X80195Y32384D01*
Y30608D01*
X80249Y30337D01*
X80403Y30107D01*
Y29735D01*
X80249Y29505D01*
X80195Y29234D01*
Y27459D01*
X80249Y27187D01*
X80403Y26958D01*
X80632Y26804D01*
X80904Y26750D01*
X86222D01*
X86494Y26804D01*
X86723Y26958D01*
X86877Y27187D01*
X86905Y27327D01*
X87973D01*
X88225Y27075D01*
X88776Y26847D01*
X89373D01*
X89925Y27075D01*
X90176Y27327D01*
X91682D01*
X91815Y26993D01*
X91831Y26827D01*
X91445Y26440D01*
X91216Y25889D01*
Y25292D01*
X91445Y24741D01*
X91867Y24319D01*
X92418Y24091D01*
X92775D01*
X94453Y22412D01*
Y8100D01*
X93082Y6728D01*
X83287D01*
X83035Y6980D01*
X82483Y7209D01*
X81887D01*
X81335Y6980D01*
X80913Y6558D01*
X80685Y6007D01*
Y5410D01*
X80870Y4964D01*
X80655Y4465D01*
X54940D01*
X54733Y4964D01*
X57217Y7448D01*
X57438Y7779D01*
X57516Y8169D01*
Y13859D01*
X57768Y14111D01*
X57996Y14662D01*
Y15259D01*
X57768Y15810D01*
X57346Y16232D01*
X56794Y16461D01*
X56198D01*
X55646Y16232D01*
X55224Y15810D01*
X54996Y15259D01*
Y14662D01*
X55224Y14111D01*
X55476Y13859D01*
Y8592D01*
X53121Y6236D01*
X50660D01*
X50072Y6823D01*
X49742Y7044D01*
X49352Y7122D01*
X43818D01*
X43566Y7374D01*
X43015Y7602D01*
X42418D01*
X41867Y7374D01*
X41445Y6952D01*
X41216Y6401D01*
Y5804D01*
X41445Y5253D01*
X41733Y4964D01*
X41544Y4465D01*
X40481D01*
X38462Y6484D01*
Y9538D01*
X38714Y9790D01*
X38942Y10341D01*
Y10938D01*
X38714Y11489D01*
X38292Y11911D01*
X37741Y12140D01*
X37144D01*
X36593Y11911D01*
X36341Y11659D01*
X33685D01*
Y17315D01*
X34049Y17659D01*
X34712Y16996D01*
X35043Y16775D01*
X35433Y16697D01*
X36705D01*
Y15445D01*
X40461D01*
Y19988D01*
X36705D01*
Y18736D01*
X35855D01*
X34681Y19910D01*
Y21495D01*
X35122Y21638D01*
Y21638D01*
X36902D01*
Y24803D01*
Y27968D01*
X35122D01*
Y27468D01*
X31882D01*
Y22138D01*
X32642D01*
Y19488D01*
X32719Y19098D01*
X32940Y18767D01*
X34014Y17694D01*
X33671Y17330D01*
X24985D01*
Y3930D01*
X33685D01*
Y9620D01*
X36341D01*
X36423Y9538D01*
Y6062D01*
X36500Y5672D01*
X36721Y5341D01*
X39045Y3017D01*
X38838Y2517D01*
X7874D01*
X7739Y2490D01*
X6476Y2656D01*
X5173Y3196D01*
X4054Y4054D01*
X3196Y5173D01*
X2656Y6476D01*
X2490Y7739D01*
X2517Y7874D01*
Y20179D01*
X2954Y20347D01*
X3017Y20356D01*
X3582Y19921D01*
X4257Y19642D01*
X4980Y19547D01*
X6055D01*
Y22343D01*
Y25149D01*
X5729Y25638D01*
X5831Y25883D01*
Y26480D01*
X5602Y27031D01*
X5350Y27283D01*
Y47904D01*
X11646Y54200D01*
X11867Y54531D01*
X11945Y54921D01*
Y59350D01*
X11867Y59741D01*
X11646Y60071D01*
X10170Y61548D01*
X9839Y61769D01*
X9449Y61846D01*
X6525D01*
X4169Y64202D01*
Y75266D01*
X4669Y75365D01*
X4819Y75003D01*
D02*
G37*
G36*
X97996Y23889D02*
Y9949D01*
X96744D01*
X96492Y10344D01*
Y22835D01*
X96414Y23225D01*
X96193Y23556D01*
X94217Y25532D01*
Y25889D01*
X93988Y26440D01*
X93602Y26827D01*
X93618Y26993D01*
X93751Y27327D01*
X94558D01*
X97996Y23889D01*
D02*
G37*
G36*
X112566Y4003D02*
X112897Y3782D01*
X113287Y3705D01*
X125000D01*
X125390Y3782D01*
X125721Y4003D01*
X126603Y4886D01*
X130602D01*
Y2517D01*
X101418D01*
X101211Y3017D01*
X103182Y4988D01*
X103403Y5319D01*
X103480Y5709D01*
Y5799D01*
X107980D01*
Y6854D01*
X109715D01*
X112566Y4003D01*
D02*
G37*
%LPC*%
G36*
X101287Y151681D02*
X96744D01*
Y147531D01*
X97996D01*
Y145636D01*
X98074Y145246D01*
X98295Y144915D01*
X98408Y144802D01*
X98402Y144787D01*
Y144190D01*
X98630Y143639D01*
X99052Y143217D01*
X99603Y142988D01*
X100200D01*
X100751Y143217D01*
X101173Y143639D01*
X101402Y144190D01*
Y144787D01*
X101173Y145338D01*
X100751Y145760D01*
X100200Y145988D01*
X100106D01*
X100035Y146058D01*
Y147531D01*
X101287D01*
Y151681D01*
D02*
G37*
G36*
X48264Y143476D02*
X40972D01*
Y136185D01*
X41240D01*
X42745Y136485D01*
X44163Y137072D01*
X45439Y137925D01*
X46524Y139010D01*
X47377Y140286D01*
X47964Y141704D01*
X48264Y143209D01*
Y143476D01*
D02*
G37*
G36*
X82115Y144713D02*
X79240D01*
Y142331D01*
X82115D01*
Y144713D01*
D02*
G37*
G36*
X78240D02*
X75366D01*
Y142331D01*
X78240D01*
Y144713D01*
D02*
G37*
G36*
X92535Y145291D02*
X89083D01*
Y142035D01*
X92535D01*
Y145291D01*
D02*
G37*
G36*
X88083D02*
X84630D01*
Y142035D01*
X88083D01*
Y145291D01*
D02*
G37*
G36*
X82115Y141331D02*
X79240D01*
Y138948D01*
X82115D01*
Y141331D01*
D02*
G37*
G36*
X78240D02*
X75366D01*
Y138948D01*
X78240D01*
Y141331D01*
D02*
G37*
G36*
X92535Y141035D02*
X84630D01*
Y137779D01*
X85054D01*
X85130Y137311D01*
X85130Y137279D01*
Y134681D01*
X81615D01*
Y136142D01*
X75866D01*
Y131378D01*
X77819D01*
Y130039D01*
X77469Y129688D01*
X77240Y129137D01*
Y128540D01*
X77469Y127989D01*
X77890Y127567D01*
X78442Y127339D01*
X79039D01*
X79590Y127567D01*
X80012Y127989D01*
X80240Y128540D01*
Y129137D01*
X80012Y129688D01*
X79858Y129842D01*
Y131378D01*
X81615D01*
Y132642D01*
X85130D01*
Y130799D01*
X92035D01*
Y137279D01*
X92035Y137311D01*
X92111Y137779D01*
X92535D01*
Y141035D01*
D02*
G37*
G36*
X106839Y135685D02*
Y132390D01*
X110134D01*
X109875Y133355D01*
X109376Y134220D01*
X108669Y134927D01*
X107803Y135426D01*
X106839Y135685D01*
D02*
G37*
G36*
X105839D02*
X104874Y135426D01*
X104008Y134927D01*
X103302Y134220D01*
X102802Y133355D01*
X102543Y132390D01*
X105839D01*
Y135685D01*
D02*
G37*
G36*
X110134Y131390D02*
X106839D01*
Y128095D01*
X107803Y128353D01*
X108669Y128853D01*
X109376Y129559D01*
X109875Y130425D01*
X110134Y131390D01*
D02*
G37*
G36*
X105839D02*
X102543D01*
X102802Y130425D01*
X103302Y129559D01*
X104008Y128853D01*
X104874Y128353D01*
X105839Y128095D01*
Y131390D01*
D02*
G37*
G36*
X106772Y125343D02*
X105905D01*
X105067Y125118D01*
X104315Y124684D01*
X103702Y124071D01*
X103268Y123319D01*
X103043Y122481D01*
Y121613D01*
X103268Y120775D01*
X103702Y120024D01*
X104315Y119410D01*
X105067Y118976D01*
X105905Y118752D01*
X106772D01*
X107610Y118976D01*
X108362Y119410D01*
X108976Y120024D01*
X109409Y120775D01*
X109634Y121613D01*
Y122481D01*
X109409Y123319D01*
X108976Y124071D01*
X108362Y124684D01*
X107610Y125118D01*
X106772Y125343D01*
D02*
G37*
G36*
X51576D02*
X50708D01*
X49870Y125118D01*
X49118Y124684D01*
X48505Y124071D01*
X48071Y123319D01*
X47846Y122481D01*
Y121613D01*
X48071Y120775D01*
X48505Y120024D01*
X49118Y119410D01*
X49870Y118976D01*
X50708Y118752D01*
X51576D01*
X52414Y118976D01*
X53165Y119410D01*
X53779Y120024D01*
X54212Y120775D01*
X54437Y121613D01*
Y122481D01*
X54212Y123319D01*
X53779Y124071D01*
X53165Y124684D01*
X52414Y125118D01*
X51576Y125343D01*
D02*
G37*
G36*
X79235Y126598D02*
X78639D01*
X78087Y126370D01*
X77665Y125948D01*
X77437Y125397D01*
Y124800D01*
X77665Y124249D01*
X78087Y123827D01*
X78639Y123598D01*
X78995D01*
X81658Y120936D01*
Y119201D01*
X80209D01*
Y118146D01*
X77272D01*
Y119201D01*
X72335D01*
Y118146D01*
X69398D01*
Y119201D01*
X64461D01*
Y115051D01*
X69398D01*
Y116106D01*
X72335D01*
Y115051D01*
X77272D01*
Y116106D01*
X80209D01*
Y115051D01*
X85146D01*
Y119201D01*
X83697D01*
Y121358D01*
X83619Y121748D01*
X83398Y122079D01*
X80437Y125040D01*
Y125397D01*
X80209Y125948D01*
X79787Y126370D01*
X79235Y126598D01*
D02*
G37*
G36*
X106772Y117469D02*
X105905D01*
X105067Y117244D01*
X104315Y116810D01*
X103702Y116197D01*
X103268Y115445D01*
X103043Y114607D01*
Y113739D01*
X103268Y112901D01*
X103702Y112150D01*
X104315Y111536D01*
X105067Y111102D01*
X105905Y110878D01*
X106772D01*
X107610Y111102D01*
X108362Y111536D01*
X108976Y112150D01*
X109409Y112901D01*
X109634Y113739D01*
Y114607D01*
X109409Y115445D01*
X108976Y116197D01*
X108362Y116810D01*
X107610Y117244D01*
X106772Y117469D01*
D02*
G37*
G36*
X51576D02*
X50708D01*
X49870Y117244D01*
X49118Y116810D01*
X48505Y116197D01*
X48071Y115445D01*
X47846Y114607D01*
Y113739D01*
X48071Y112901D01*
X48505Y112150D01*
X49118Y111536D01*
X49870Y111102D01*
X50708Y110878D01*
X51576D01*
X52414Y111102D01*
X53165Y111536D01*
X53779Y112150D01*
X54212Y112901D01*
X54437Y113739D01*
Y114607D01*
X54212Y115445D01*
X53779Y116197D01*
X53165Y116810D01*
X52414Y117244D01*
X51576Y117469D01*
D02*
G37*
G36*
X85146Y113295D02*
X80209D01*
Y109146D01*
X81658D01*
Y107499D01*
X81406Y107247D01*
X81177Y106696D01*
Y106099D01*
X81406Y105548D01*
X81827Y105126D01*
X82379Y104898D01*
X82976D01*
X83527Y105126D01*
X83949Y105548D01*
X84177Y106099D01*
Y106696D01*
X83949Y107247D01*
X83697Y107499D01*
Y109146D01*
X85146D01*
Y113295D01*
D02*
G37*
G36*
X77272D02*
X72335D01*
Y109146D01*
X73784D01*
Y107499D01*
X73532Y107247D01*
X73303Y106696D01*
Y106099D01*
X73532Y105548D01*
X73953Y105126D01*
X74505Y104898D01*
X75102D01*
X75653Y105126D01*
X76075Y105548D01*
X76303Y106099D01*
Y106696D01*
X76075Y107247D01*
X75823Y107499D01*
Y109146D01*
X77272D01*
Y113295D01*
D02*
G37*
G36*
X69398D02*
X64461D01*
Y109146D01*
X65909D01*
Y107499D01*
X65658Y107247D01*
X65429Y106696D01*
Y106099D01*
X65658Y105548D01*
X66079Y105126D01*
X66631Y104898D01*
X67228D01*
X67779Y105126D01*
X68201Y105548D01*
X68429Y106099D01*
Y106696D01*
X68201Y107247D01*
X67949Y107499D01*
Y109146D01*
X69398D01*
Y113295D01*
D02*
G37*
G36*
X51642Y108126D02*
Y104831D01*
X54937D01*
X54678Y105796D01*
X54179Y106661D01*
X53472Y107368D01*
X52607Y107867D01*
X51642Y108126D01*
D02*
G37*
G36*
X50642D02*
X49677Y107867D01*
X48811Y107368D01*
X48105Y106661D01*
X47605Y105796D01*
X47347Y104831D01*
X50642D01*
Y108126D01*
D02*
G37*
G36*
Y103831D02*
X47347D01*
X47605Y102866D01*
X48105Y102000D01*
X48811Y101294D01*
X49677Y100794D01*
X50642Y100536D01*
Y103831D01*
D02*
G37*
G36*
X54937D02*
X51642D01*
Y100536D01*
X52607Y100794D01*
X53472Y101294D01*
X54179Y102000D01*
X54678Y102866D01*
X54937Y103831D01*
D02*
G37*
G36*
X117775Y100035D02*
X117508D01*
Y92744D01*
X124799D01*
Y93011D01*
X124500Y94517D01*
X123913Y95935D01*
X123060Y97211D01*
X121975Y98296D01*
X120698Y99149D01*
X119281Y99736D01*
X117775Y100035D01*
D02*
G37*
G36*
X41240D02*
X40972D01*
Y92744D01*
X48264D01*
Y93011D01*
X47964Y94517D01*
X47377Y95935D01*
X46524Y97211D01*
X45439Y98296D01*
X44163Y99149D01*
X42745Y99736D01*
X41240Y100035D01*
D02*
G37*
G36*
X39972D02*
X39705D01*
X38200Y99736D01*
X36782Y99149D01*
X35506Y98296D01*
X34420Y97211D01*
X33568Y95935D01*
X32980Y94517D01*
X32681Y93011D01*
Y92744D01*
X39972D01*
Y100035D01*
D02*
G37*
G36*
X116508D02*
X116241D01*
X114735Y99736D01*
X113317Y99149D01*
X112041Y98296D01*
X110956Y97211D01*
X110103Y95935D01*
X109516Y94517D01*
X109216Y93011D01*
Y92744D01*
X116508D01*
Y100035D01*
D02*
G37*
G36*
X124799Y91744D02*
X117508D01*
Y84453D01*
X117775D01*
X119281Y84752D01*
X120698Y85339D01*
X121975Y86192D01*
X123060Y87277D01*
X123913Y88554D01*
X124500Y89972D01*
X124799Y91477D01*
Y91744D01*
D02*
G37*
G36*
X116508D02*
X109216D01*
Y91477D01*
X109516Y89972D01*
X110103Y88554D01*
X110956Y87277D01*
X112041Y86192D01*
X113317Y85339D01*
X114735Y84752D01*
X116241Y84453D01*
X116508D01*
Y91744D01*
D02*
G37*
G36*
X48264D02*
X40972D01*
Y84453D01*
X41240D01*
X42745Y84752D01*
X44163Y85339D01*
X45439Y86192D01*
X46524Y87277D01*
X47377Y88554D01*
X47964Y89972D01*
X48264Y91477D01*
Y91744D01*
D02*
G37*
G36*
X39972D02*
X32681D01*
Y91477D01*
X32980Y89972D01*
X33568Y88554D01*
X34420Y87277D01*
X35506Y86192D01*
X36782Y85339D01*
X38200Y84752D01*
X39705Y84453D01*
X39972D01*
Y91744D01*
D02*
G37*
G36*
X145169Y86630D02*
X144892D01*
X143368Y86327D01*
X141932Y85732D01*
X140640Y84869D01*
X139541Y83770D01*
X138678Y82477D01*
X138083Y81042D01*
X137779Y79517D01*
Y79240D01*
X145169D01*
Y86630D01*
D02*
G37*
G36*
X12588D02*
X12311D01*
Y79240D01*
X19701D01*
Y79517D01*
X19398Y81042D01*
X18803Y82477D01*
X17939Y83770D01*
X16840Y84869D01*
X15548Y85732D01*
X14112Y86327D01*
X12588Y86630D01*
D02*
G37*
G36*
X145169Y78240D02*
X137779D01*
Y77963D01*
X138083Y76439D01*
X138678Y75003D01*
X139541Y73711D01*
X140640Y72612D01*
X141932Y71748D01*
X143368Y71154D01*
X144892Y70850D01*
X145169D01*
Y78240D01*
D02*
G37*
G36*
X82328Y71890D02*
X81740D01*
Y68118D01*
X83543D01*
Y70674D01*
X83451Y71139D01*
X83187Y71534D01*
X82793Y71797D01*
X82328Y71890D01*
D02*
G37*
G36*
X80740D02*
X80153D01*
X79688Y71797D01*
X79293Y71534D01*
X79030Y71139D01*
X78937Y70674D01*
Y68118D01*
X80740D01*
Y71890D01*
D02*
G37*
G36*
X60740D02*
X60153D01*
X59688Y71797D01*
X59293Y71534D01*
X59030Y71139D01*
X58937Y70674D01*
Y68118D01*
X60740D01*
Y71890D01*
D02*
G37*
G36*
X47547Y69201D02*
X43398D01*
Y67949D01*
X37213D01*
Y69004D01*
X32669D01*
Y64854D01*
X37213D01*
Y65909D01*
X43398D01*
Y64657D01*
X47547D01*
Y69201D01*
D02*
G37*
G36*
X117775Y73028D02*
X117508D01*
Y65736D01*
X124799D01*
Y66004D01*
X124500Y67509D01*
X123913Y68927D01*
X123060Y70203D01*
X121975Y71288D01*
X120698Y72141D01*
X119281Y72728D01*
X117775Y73028D01*
D02*
G37*
G36*
X116508D02*
X116241D01*
X114735Y72728D01*
X113317Y72141D01*
X112041Y71288D01*
X110956Y70203D01*
X110103Y68927D01*
X109516Y67509D01*
X109216Y66004D01*
Y65736D01*
X116508D01*
Y73028D01*
D02*
G37*
G36*
X60740Y67118D02*
X58937D01*
Y64562D01*
X59030Y64097D01*
X59293Y63703D01*
X59688Y63439D01*
X60153Y63347D01*
X60740D01*
Y67118D01*
D02*
G37*
G36*
X124799Y64736D02*
X117508D01*
Y57445D01*
X117775D01*
X119281Y57744D01*
X120698Y58332D01*
X121975Y59184D01*
X123060Y60269D01*
X123913Y61546D01*
X124500Y62964D01*
X124799Y64469D01*
Y64736D01*
D02*
G37*
G36*
X116508D02*
X109216D01*
Y64469D01*
X109516Y62964D01*
X110103Y61546D01*
X110956Y60269D01*
X112041Y59184D01*
X113317Y58332D01*
X114735Y57744D01*
X116241Y57445D01*
X116508D01*
Y64736D01*
D02*
G37*
G36*
X106839Y56945D02*
Y53650D01*
X110134D01*
X109875Y54615D01*
X109376Y55480D01*
X108669Y56187D01*
X107803Y56686D01*
X106839Y56945D01*
D02*
G37*
G36*
X110134Y52650D02*
X106839D01*
Y49354D01*
X107803Y49613D01*
X108669Y50113D01*
X109376Y50819D01*
X109875Y51685D01*
X110134Y52650D01*
D02*
G37*
G36*
X106772Y46602D02*
X105905D01*
X105067Y46378D01*
X104315Y45944D01*
X103702Y45330D01*
X103268Y44579D01*
X103043Y43741D01*
Y42873D01*
X103268Y42035D01*
X103702Y41284D01*
X104315Y40670D01*
X105067Y40236D01*
X105905Y40012D01*
X106772D01*
X107610Y40236D01*
X108362Y40670D01*
X108976Y41284D01*
X109409Y42035D01*
X109634Y42873D01*
Y43741D01*
X109409Y44579D01*
X108976Y45330D01*
X108362Y45944D01*
X107610Y46378D01*
X106772Y46602D01*
D02*
G37*
G36*
Y38728D02*
X105905D01*
X105067Y38504D01*
X104315Y38070D01*
X103702Y37456D01*
X103268Y36705D01*
X103043Y35867D01*
Y34999D01*
X103268Y34161D01*
X103702Y33410D01*
X104315Y32796D01*
X105067Y32362D01*
X105905Y32138D01*
X106772D01*
X107610Y32362D01*
X108362Y32796D01*
X108976Y33410D01*
X109409Y34161D01*
X109634Y34999D01*
Y35867D01*
X109409Y36705D01*
X108976Y37456D01*
X108362Y38070D01*
X107610Y38504D01*
X106772Y38728D01*
D02*
G37*
G36*
X117775Y21295D02*
X117508D01*
Y14004D01*
X124799D01*
Y14271D01*
X124500Y15777D01*
X123913Y17195D01*
X123060Y18471D01*
X121975Y19556D01*
X120698Y20409D01*
X119281Y20996D01*
X117775Y21295D01*
D02*
G37*
G36*
X116508D02*
X116241D01*
X114735Y20996D01*
X113317Y20409D01*
X112041Y19556D01*
X110956Y18471D01*
X110103Y17195D01*
X109516Y15777D01*
X109216Y14271D01*
Y14004D01*
X116508D01*
Y21295D01*
D02*
G37*
G36*
X19362Y59193D02*
X16909D01*
X16186Y59098D01*
X15512Y58819D01*
X14933Y58374D01*
X14488Y57795D01*
X14209Y57121D01*
X14180Y56898D01*
X19362D01*
Y59193D01*
D02*
G37*
G36*
X86222Y52500D02*
X84063D01*
Y50894D01*
X87441D01*
Y51281D01*
X87348Y51748D01*
X87084Y52143D01*
X86689Y52407D01*
X86222Y52500D01*
D02*
G37*
G36*
X83063D02*
X80904D01*
X80437Y52407D01*
X80042Y52143D01*
X79778Y51748D01*
X79685Y51281D01*
Y50894D01*
X83063D01*
Y52500D01*
D02*
G37*
G36*
X25545Y55898D02*
X19862D01*
X14180D01*
X14209Y55674D01*
X14488Y55000D01*
X14933Y54421D01*
X15512Y53977D01*
X16186Y53697D01*
X16909Y53602D01*
X17225D01*
X17324Y53102D01*
X17114Y53015D01*
X16473Y52374D01*
X16145Y51583D01*
X18406D01*
Y50583D01*
X16145D01*
X16473Y49791D01*
X17079Y49185D01*
X16873Y48783D01*
X16855Y48756D01*
X14862D01*
X14472Y48678D01*
X14141Y48457D01*
X10893Y45209D01*
X10672Y44878D01*
X10595Y44488D01*
Y28346D01*
Y24505D01*
X10152Y24337D01*
X10095Y24329D01*
X9528Y24764D01*
X8854Y25043D01*
X8130Y25138D01*
X7055D01*
Y22343D01*
Y19547D01*
X8130D01*
X8398Y19582D01*
X8688Y19116D01*
X8605Y18993D01*
X8528Y18602D01*
Y17330D01*
X5685D01*
Y3930D01*
X14385D01*
Y17330D01*
X10567D01*
Y18180D01*
X12335Y19948D01*
X12556Y20279D01*
X12634Y20669D01*
Y27924D01*
X14694Y29984D01*
X16855D01*
X16873Y29957D01*
X17079Y29555D01*
X16473Y28949D01*
X16145Y28157D01*
X18406D01*
Y27158D01*
X16145D01*
X16473Y26366D01*
X17114Y25725D01*
X17324Y25638D01*
X17225Y25138D01*
X16909D01*
X16186Y25043D01*
X15512Y24764D01*
X14933Y24319D01*
X14488Y23740D01*
X14209Y23066D01*
X14180Y22842D01*
X19862D01*
X25545D01*
X25515Y23066D01*
X25236Y23740D01*
X24792Y24319D01*
X24213Y24764D01*
X23937Y24878D01*
X24036Y25378D01*
X24174D01*
X25012Y25725D01*
X25653Y26366D01*
X25981Y27158D01*
X23720D01*
Y28157D01*
X25981D01*
X25653Y28949D01*
X25012Y29590D01*
X25219Y29981D01*
X25229Y29996D01*
X25229Y29996D01*
X25500Y30650D01*
Y31358D01*
X25229Y32012D01*
X24878Y32363D01*
X24780Y32677D01*
X24878Y32992D01*
X25229Y33342D01*
X25500Y33996D01*
Y34704D01*
X25229Y35358D01*
X24878Y35709D01*
X24780Y36024D01*
X24878Y36338D01*
X25218Y36677D01*
X27264D01*
X27654Y36755D01*
X27985Y36976D01*
X31430Y40421D01*
X31651Y40751D01*
X31728Y41142D01*
Y45444D01*
X32169Y45885D01*
X32669Y45678D01*
Y44874D01*
X36819D01*
Y49614D01*
X32669D01*
Y48264D01*
X32087D01*
X31696Y48186D01*
X31366Y47965D01*
X30161Y46761D01*
X29661Y46968D01*
Y50660D01*
X31131Y52130D01*
X32669D01*
Y50779D01*
X36819D01*
Y55520D01*
X32669D01*
Y54169D01*
X30709D01*
X30318Y54092D01*
X29988Y53871D01*
X27921Y51804D01*
X27700Y51473D01*
X27622Y51083D01*
Y42548D01*
X27137Y42063D01*
X25218D01*
X24878Y42402D01*
X24780Y42717D01*
X24878Y43031D01*
X25229Y43382D01*
X25500Y44036D01*
Y44744D01*
X25229Y45398D01*
X24878Y45748D01*
X24780Y46063D01*
X24878Y46378D01*
X25229Y46728D01*
X25500Y47382D01*
Y48090D01*
X25412Y48303D01*
X25746Y48803D01*
X26000D01*
Y50583D01*
X23720D01*
Y51583D01*
X26000D01*
Y53362D01*
X24036D01*
X23937Y53862D01*
X24213Y53977D01*
X24792Y54421D01*
X25236Y55000D01*
X25515Y55674D01*
X25545Y55898D01*
D02*
G37*
G36*
X87441Y49894D02*
X83563D01*
X79685D01*
Y49506D01*
X79778Y49040D01*
X79926Y48819D01*
X79778Y48598D01*
X79685Y48132D01*
Y47744D01*
X83563D01*
X87441D01*
Y48132D01*
X87348Y48598D01*
X87200Y48819D01*
X87348Y49040D01*
X87441Y49506D01*
Y49894D01*
D02*
G37*
G36*
Y46744D02*
X83563D01*
X79685D01*
Y46356D01*
X79778Y45890D01*
X79926Y45669D01*
X79778Y45448D01*
X79685Y44982D01*
Y44594D01*
X83563D01*
X87441D01*
Y44982D01*
X87348Y45448D01*
X87200Y45669D01*
X87348Y45890D01*
X87441Y46356D01*
Y46744D01*
D02*
G37*
G36*
Y43595D02*
X83563D01*
X79685D01*
Y43207D01*
X79778Y42740D01*
X79926Y42520D01*
X79778Y42299D01*
X79685Y41833D01*
Y41445D01*
X83563D01*
X87441D01*
Y41833D01*
X87348Y42299D01*
X87200Y42520D01*
X87348Y42740D01*
X87441Y43207D01*
Y43595D01*
D02*
G37*
G36*
X29339Y35816D02*
Y34358D01*
X30796D01*
X30534Y34991D01*
X29972Y35554D01*
X29339Y35816D01*
D02*
G37*
G36*
X28339D02*
X27706Y35554D01*
X27143Y34991D01*
X26881Y34358D01*
X28339D01*
Y35816D01*
D02*
G37*
G36*
X30796Y33358D02*
X29339D01*
Y31901D01*
X29972Y32163D01*
X30534Y32725D01*
X30796Y33358D01*
D02*
G37*
G36*
X28339D02*
X26881D01*
X27143Y32725D01*
X27706Y32163D01*
X28339Y31901D01*
Y33358D01*
D02*
G37*
G36*
X54173Y30996D02*
X50295D01*
X46417D01*
Y30608D01*
X46510Y30142D01*
X46658Y29921D01*
X46510Y29700D01*
X46417Y29234D01*
Y28846D01*
X50295D01*
Y28346D01*
D01*
Y28846D01*
X54173D01*
Y29234D01*
X54080Y29700D01*
X53933Y29921D01*
X54080Y30142D01*
X54173Y30608D01*
Y30996D01*
D02*
G37*
G36*
Y27847D02*
X50795D01*
Y26240D01*
X52955D01*
X53421Y26333D01*
X53816Y26597D01*
X54080Y26992D01*
X54173Y27459D01*
Y27847D01*
D02*
G37*
G36*
X49795D02*
X46417D01*
Y27459D01*
X46510Y26992D01*
X46774Y26597D01*
X47170Y26333D01*
X47636Y26240D01*
X49795D01*
Y27847D01*
D02*
G37*
G36*
X25545Y21843D02*
X20362D01*
Y19547D01*
X22815D01*
X23539Y19642D01*
X24213Y19921D01*
X24792Y20366D01*
X25236Y20945D01*
X25515Y21619D01*
X25545Y21843D01*
D02*
G37*
G36*
X19362D02*
X14180D01*
X14209Y21619D01*
X14488Y20945D01*
X14933Y20366D01*
X15512Y19921D01*
X16186Y19642D01*
X16909Y19547D01*
X19362D01*
Y21843D01*
D02*
G37*
%LPD*%
G36*
X17248Y46378D02*
X17346Y46063D01*
X17248Y45748D01*
X16897Y45398D01*
X16626Y44744D01*
Y44036D01*
X16897Y43382D01*
X17248Y43031D01*
X17346Y42717D01*
X17248Y42402D01*
X16897Y42051D01*
X16626Y41397D01*
Y40689D01*
X16897Y40035D01*
X17248Y39685D01*
X17346Y39370D01*
X17248Y39056D01*
X16897Y38705D01*
X16626Y38051D01*
Y37343D01*
X16897Y36689D01*
X17248Y36338D01*
X17346Y36024D01*
X17248Y35709D01*
X16897Y35358D01*
X16626Y34704D01*
Y33996D01*
X16897Y33342D01*
X17248Y32992D01*
X17346Y32677D01*
X17248Y32363D01*
X16908Y32024D01*
X14272D01*
X13882Y31946D01*
X13551Y31725D01*
X13096Y31270D01*
X12634Y31461D01*
Y44066D01*
X15284Y46717D01*
X16908D01*
X17248Y46378D01*
D02*
G37*
D13*
X71949Y78445D02*
X82732D01*
X82858Y78319D01*
X76179Y60728D02*
X88484D01*
X29503Y62303D02*
X39567D01*
X40354Y63090D01*
X70177D02*
X76870D01*
X90403Y62254D02*
X92323Y60335D01*
X76870Y63090D02*
X77707Y62254D01*
X90403D01*
X75101Y59650D02*
X76179Y60728D01*
X75101Y56302D02*
Y59650D01*
X81020Y56004D02*
X83268Y58252D01*
X88484Y60728D02*
X91535Y57677D01*
X77953Y56004D02*
X81020D01*
X74803D02*
X75101Y56302D01*
X41437Y24508D02*
X43307D01*
X41142Y24803D02*
X41437Y24508D01*
X43307D02*
X44094Y23720D01*
Y17717D02*
Y23720D01*
X92716Y25591D02*
X95472Y22835D01*
Y7677D02*
Y22835D01*
X82185Y5709D02*
X93504D01*
X95472Y7677D01*
X45177Y47244D02*
X50295D01*
X40059D02*
X45177D01*
X32413Y57677D02*
X38484D01*
X39567Y53642D02*
Y56595D01*
Y53642D02*
X40059Y53150D01*
X38484Y57677D02*
X39567Y56595D01*
X40059Y53150D02*
X44833D01*
X31429Y56693D02*
X32413Y57677D01*
X28346Y56693D02*
X31429D01*
X27461Y57579D02*
X28346Y56693D01*
X44833Y53150D02*
X49606D01*
X49352Y6102D02*
X50237Y5217D01*
X42717Y6102D02*
X49352D01*
X37442Y6062D02*
Y10640D01*
Y6062D02*
X40059Y3445D01*
X50237Y5217D02*
X53543D01*
X40059Y3445D02*
X100197D01*
X102461Y5709D01*
Y16535D01*
X101673Y17323D02*
X102461Y16535D01*
X101673Y17323D02*
Y21850D01*
X82858Y78445D02*
X83366D01*
X96949Y36811D02*
Y38091D01*
X89567Y45472D02*
X96949Y38091D01*
X89567Y45472D02*
Y55020D01*
X86811Y57776D02*
X89567Y55020D01*
X78323Y74508D02*
X83366D01*
X95866Y142717D02*
X98032Y140551D01*
X108661D01*
X95866Y142717D02*
Y146063D01*
X92618Y149311D02*
X95866Y146063D01*
X68012Y149311D02*
X92618D01*
X59252Y140551D02*
X68012Y149311D01*
X51772Y140551D02*
X59252D01*
X45374Y134153D02*
X51772Y140551D01*
X37303Y134153D02*
X45374D01*
X32480Y138976D02*
X37303Y134153D01*
X23917Y138976D02*
X32480D01*
X18701Y144193D02*
X23917Y138976D01*
X18701Y144193D02*
Y149606D01*
X16732Y151575D02*
X18701Y149606D01*
X11811Y151575D02*
X16732D01*
X99902Y144488D02*
Y144750D01*
X99016Y145636D02*
Y149606D01*
Y145636D02*
X99902Y144750D01*
X79216Y99311D02*
X81240Y97287D01*
X76575Y99311D02*
X79216D01*
X73819Y97441D02*
X76240Y95020D01*
Y89862D02*
Y95020D01*
X58465Y143898D02*
Y149606D01*
X56595Y87008D02*
Y126870D01*
X61240Y85216D02*
Y89862D01*
Y99980D01*
X59252Y101969D02*
X61240Y99980D01*
X63583Y61811D02*
Y80020D01*
X56595Y87008D02*
X63583Y80020D01*
X78839Y133661D02*
X88189D01*
X88583Y134055D01*
X78839Y128937D02*
Y133661D01*
X78740Y133760D02*
X78839Y133661D01*
X78740Y128839D02*
X78839Y128937D01*
X78937Y125098D02*
X82677Y121358D01*
X81240Y95217D02*
Y97287D01*
X83366Y78445D02*
X86240Y75571D01*
X28839Y23031D02*
Y28346D01*
X33661Y19488D02*
Y24803D01*
X35433Y17717D02*
X38583D01*
X33661Y19488D02*
X35433Y17717D01*
X82677Y117126D02*
Y121358D01*
X74803Y117126D02*
X82677D01*
X66929D02*
X74803D01*
X64764Y81693D02*
X78543D01*
X76181Y67677D02*
Y72366D01*
X78323Y74508D01*
X76181Y67677D02*
X76240Y67618D01*
X81240Y95217D02*
X82776Y96752D01*
X94587D01*
X73524Y101575D02*
X96949D01*
X99705Y104331D01*
X71240Y99291D02*
X73524Y101575D01*
X99705Y104331D02*
X106339D01*
X82677Y106398D02*
Y111221D01*
X74803Y106398D02*
Y111221D01*
X66929Y106398D02*
Y111221D01*
X59153Y108071D02*
Y128937D01*
Y108071D02*
X66240Y100984D01*
X56201Y131890D02*
X59153Y128937D01*
X51142Y131890D02*
X56201D01*
X4331Y26181D02*
Y48327D01*
X61240Y85216D02*
X64764Y81693D01*
X55905Y29626D02*
X67323Y41043D01*
X68996D01*
X55905Y22736D02*
Y29626D01*
X73130Y43012D02*
X76673Y46555D01*
X73130Y39370D02*
Y43012D01*
X65453Y31693D02*
X73130Y39370D01*
X61024Y31693D02*
X65453D01*
X59055Y29724D02*
X61024Y31693D01*
X59055Y22736D02*
Y29724D01*
X62205Y22736D02*
Y28248D01*
X93602Y33957D02*
X98327D01*
X99311Y34941D01*
Y38780D01*
X91535Y46555D02*
X99311Y38780D01*
X91535Y46555D02*
Y57677D01*
X96240Y50374D02*
Y67618D01*
X93701Y47835D02*
X96240Y50374D01*
X74016Y35039D02*
X75787Y36811D01*
X70965Y35039D02*
X74016D01*
X68504Y32579D02*
X70965Y35039D01*
X63583Y61811D02*
X65059Y63287D01*
X68209D01*
X66535Y61713D02*
X68799D01*
X65256Y60433D02*
X66535Y61713D01*
X68799D02*
X70177Y63090D01*
X69791Y64870D02*
X70461D01*
X71240Y65650D02*
Y67618D01*
X70461Y64870D02*
X71240Y65650D01*
X68209Y63287D02*
X69791Y64870D01*
X65256Y56102D02*
Y60433D01*
Y56102D02*
X65354Y56004D01*
X71653D02*
X71703Y56053D01*
Y60974D02*
X71752Y61024D01*
X71703Y56053D02*
Y60974D01*
X75787Y36811D02*
Y42224D01*
X71653Y22736D02*
Y31988D01*
X55709Y62598D02*
X56890Y61417D01*
X26772Y60827D02*
Y63189D01*
X28248Y64665D01*
X26772Y60827D02*
X27854Y59744D01*
X41043D01*
X44783Y56004D01*
X55905D01*
X29345Y10640D02*
X37442D01*
X29335Y10630D02*
X29345Y10640D01*
X56890Y61417D02*
X60925D01*
X62205Y60138D01*
Y56004D02*
Y60138D01*
X28248Y74803D02*
X33169D01*
X37205Y70768D01*
X48327D01*
X49114Y69980D01*
Y67815D02*
Y69980D01*
Y67815D02*
X50000Y66929D01*
X52953D01*
X6594Y151575D02*
X11811D01*
X2968Y147949D02*
X6594Y151575D01*
X2968Y94177D02*
Y147949D01*
Y94177D02*
X6594Y90551D01*
X24114D01*
X30512Y84153D01*
X23130Y88878D02*
X28248Y83760D01*
X8169Y88878D02*
X23130D01*
X28248Y74803D02*
Y83760D01*
X30512Y80315D02*
X36024Y74803D01*
X30512Y80315D02*
Y84153D01*
X36024Y74803D02*
X49213D01*
X45472Y66929D02*
X45472Y66929D01*
X34941Y66929D02*
X45472D01*
X68504Y22736D02*
Y32579D01*
X56496Y8169D02*
Y14961D01*
X53543Y5217D02*
X56496Y8169D01*
X4331Y48327D02*
X10925Y54921D01*
Y59350D01*
X9449Y60827D02*
X10925Y59350D01*
X6102Y60827D02*
X9449D01*
X3150Y63779D02*
Y83858D01*
Y63779D02*
X6102Y60827D01*
X3150Y83858D02*
X8169Y88878D01*
X28248Y64665D02*
Y66929D01*
X21654D02*
X28248D01*
X16043Y69488D02*
X21358Y74803D01*
X16043Y68209D02*
Y69488D01*
X21358Y74803D02*
X21555D01*
X10531Y67028D02*
X14862D01*
X16043Y68209D01*
X9843Y66929D02*
X10433D01*
X10531Y67028D01*
X83563Y37795D02*
X93701D01*
X70659Y43494D02*
X77953Y50787D01*
Y56004D01*
X59734Y43494D02*
X70659D01*
X86240Y67618D02*
Y75571D01*
X66240Y72736D02*
X71949Y78445D01*
X66240Y67618D02*
Y72736D01*
X28839Y28346D02*
X30020Y29528D01*
X36319D01*
X37303Y30512D02*
Y33169D01*
X36319Y29528D02*
X37303Y30512D01*
Y33169D02*
X37402Y33268D01*
Y34252D01*
X99016Y7874D02*
Y24311D01*
X94980Y28346D02*
X99016Y24311D01*
X89075Y28346D02*
X94980D01*
X105709Y7874D02*
X110138D01*
X113287Y4724D01*
X105709Y149606D02*
X110138D01*
X113484Y152953D01*
X47441Y149606D02*
X51772D01*
X44094Y152953D02*
X47441Y149606D01*
X108661Y140551D02*
X113878Y135335D01*
X128839D01*
X138681Y145177D01*
Y149213D01*
X141142Y151673D01*
X144587D01*
X144685Y151575D02*
X145669D01*
X144587Y151673D02*
X144685Y151575D01*
X153839Y142323D02*
Y148524D01*
X150787Y151575D02*
X153839Y148524D01*
Y142323D02*
X153839Y6988D01*
X152756Y5906D02*
X153839Y6988D01*
X145669Y5906D02*
X152756D01*
X11614Y44488D02*
X14862Y47736D01*
X18406D01*
X11614Y28346D02*
Y44488D01*
X14272Y31004D02*
X18406D01*
X11614Y28346D02*
X14272Y31004D01*
X9547Y18602D02*
X11614Y20669D01*
Y28346D01*
X9547Y11713D02*
Y18602D01*
Y11713D02*
X10035Y11225D01*
Y10630D02*
Y11225D01*
X145669Y151575D02*
X150787D01*
X123130Y151673D02*
X133760D01*
X133858Y151575D01*
X121850Y152953D02*
X123130Y151673D01*
X113484Y152953D02*
X121850D01*
X32677D02*
X44094D01*
X23622Y151575D02*
X31299D01*
X32677Y152953D01*
X125000Y4724D02*
X126181Y5906D01*
X133858D01*
X113287Y4724D02*
X125000D01*
X83563Y28346D02*
X89075D01*
X83563Y31496D02*
X98721D01*
X101181Y33957D01*
Y70177D01*
X90158Y81201D02*
X101181Y70177D01*
X83957Y81201D02*
X90158D01*
X81240Y83917D02*
Y89862D01*
Y83917D02*
X83957Y81201D01*
X106339Y25591D02*
X121358D01*
X126378Y30610D01*
Y75590D01*
X120768Y81201D02*
X126378Y75590D01*
X93209Y81201D02*
X120768D01*
X91240Y83169D02*
X93209Y81201D01*
X91240Y83169D02*
Y89862D01*
X71240D02*
Y99291D01*
X66240Y89862D02*
Y100984D01*
X94587Y96752D02*
X96240Y95098D01*
Y89862D02*
Y95098D01*
X81240Y89862D02*
Y95217D01*
X91240Y67618D02*
X96240D01*
X86240Y89862D02*
X91240D01*
X56604Y43494D02*
X59734D01*
X56004Y44094D02*
X56604Y43494D01*
X50295Y44094D02*
X56004D01*
X44685D02*
X50295D01*
X43701Y43110D02*
X44685Y44094D01*
X33661Y39075D02*
X37697Y43110D01*
X43701D01*
X40551Y40945D02*
X50295D01*
X37402Y37795D02*
X40551Y40945D01*
X33661Y34252D02*
Y39075D01*
X37402Y34252D02*
Y37795D01*
X50098Y37992D02*
X50295Y37795D01*
X41732Y37992D02*
X50098D01*
X41142Y34252D02*
Y37402D01*
X41732Y37992D01*
X41142Y28543D02*
X44488Y31890D01*
Y33760D02*
X45374Y34646D01*
X41142Y24803D02*
Y28543D01*
X45374Y34646D02*
X50295D01*
X44488Y31890D02*
Y33760D01*
X74803Y22736D02*
Y28248D01*
X77953Y22736D02*
Y28248D01*
X65354Y22736D02*
Y28248D01*
X83563Y34646D02*
X89075D01*
X40059Y47244D02*
X40059Y47244D01*
X50295Y50394D02*
Y52461D01*
X49606Y53150D02*
X50295Y52461D01*
X32087Y47244D02*
X34744D01*
X30709Y45866D02*
X32087Y47244D01*
X30709Y41142D02*
Y45866D01*
X27264Y37697D02*
X30709Y41142D01*
X28642Y42126D02*
Y51083D01*
X27559Y41043D02*
X28642Y42126D01*
Y51083D02*
X30709Y53150D01*
X23720Y37697D02*
X27264D01*
X21752D02*
X23720D01*
Y41043D02*
X27559D01*
X30709Y53150D02*
X34744D01*
X18406Y41043D02*
X21752Y37697D01*
X18406Y47736D02*
X23720D01*
X18406Y31004D02*
X23720D01*
D15*
X78740Y133760D02*
D03*
Y141831D02*
D03*
D16*
X88583Y141535D02*
D03*
Y134055D02*
D03*
D17*
X33661Y24803D02*
D03*
X37402D02*
D03*
X41142D02*
D03*
Y34252D02*
D03*
X37402D02*
D03*
X33661D02*
D03*
D18*
X38583Y17717D02*
D03*
X44094D02*
D03*
D19*
X82677Y111221D02*
D03*
Y117126D02*
D03*
X74803Y111221D02*
D03*
Y117126D02*
D03*
X66929Y111221D02*
D03*
Y117126D02*
D03*
D20*
X49213Y74803D02*
D03*
X52953Y66929D02*
D03*
X45472D02*
D03*
D21*
X28248Y66929D02*
D03*
X34941D02*
D03*
X21555Y74803D02*
D03*
X28248D02*
D03*
X105709Y149606D02*
D03*
X99016D02*
D03*
X51772D02*
D03*
X58465D02*
D03*
X105709Y7874D02*
D03*
X99016D02*
D03*
D22*
X9843Y66929D02*
D03*
X21654D02*
D03*
X133858Y151575D02*
D03*
X145669D02*
D03*
X23622D02*
D03*
X11811D02*
D03*
X133858Y5906D02*
D03*
X145669D02*
D03*
D23*
X96240Y89862D02*
D03*
X91240D02*
D03*
X86240D02*
D03*
X81240D02*
D03*
X76240D02*
D03*
X71240D02*
D03*
X66240D02*
D03*
X61240D02*
D03*
X96240Y67618D02*
D03*
X91240D02*
D03*
X86240D02*
D03*
X81240D02*
D03*
X76240D02*
D03*
X71240D02*
D03*
X66240D02*
D03*
X61240D02*
D03*
D24*
X34744Y53150D02*
D03*
X40059D02*
D03*
X34744Y47244D02*
D03*
X40059D02*
D03*
D25*
X29335Y10630D02*
D03*
X10035D02*
D03*
D26*
X55905Y56004D02*
D03*
X59055D02*
D03*
X62205D02*
D03*
X65354D02*
D03*
X68504D02*
D03*
X71653D02*
D03*
X74803D02*
D03*
X77953D02*
D03*
Y22736D02*
D03*
X74803D02*
D03*
X71653D02*
D03*
X68504D02*
D03*
X65354D02*
D03*
X62205D02*
D03*
X59055D02*
D03*
X55905D02*
D03*
D27*
X83563Y50394D02*
D03*
Y47244D02*
D03*
Y44094D02*
D03*
Y40945D02*
D03*
Y37795D02*
D03*
Y34646D02*
D03*
Y31496D02*
D03*
Y28346D02*
D03*
X50295D02*
D03*
Y31496D02*
D03*
Y34646D02*
D03*
Y37795D02*
D03*
Y40945D02*
D03*
Y44094D02*
D03*
Y47244D02*
D03*
Y50394D02*
D03*
D41*
X18406Y51083D02*
D03*
Y47736D02*
D03*
Y44390D02*
D03*
Y41043D02*
D03*
Y37697D02*
D03*
Y34350D02*
D03*
Y31004D02*
D03*
Y27657D02*
D03*
X23720D02*
D03*
Y31004D02*
D03*
Y34350D02*
D03*
Y37697D02*
D03*
Y41043D02*
D03*
Y44390D02*
D03*
Y47736D02*
D03*
D42*
Y51083D02*
D03*
D43*
X19862Y22343D02*
D03*
Y56398D02*
D03*
D44*
X6555Y22343D02*
D03*
Y56398D02*
D03*
D46*
X145669Y78740D02*
D03*
X11811D02*
D03*
D47*
X51142Y114173D02*
D03*
Y122047D02*
D03*
Y104331D02*
D03*
Y131890D02*
D03*
X106339Y122047D02*
D03*
Y114173D02*
D03*
Y131890D02*
D03*
Y104331D02*
D03*
Y43307D02*
D03*
Y35433D02*
D03*
Y53150D02*
D03*
Y25591D02*
D03*
D48*
X40472Y143976D02*
D03*
Y92244D02*
D03*
X117008D02*
D03*
Y143976D02*
D03*
Y13504D02*
D03*
Y65236D02*
D03*
D49*
X82858Y78319D02*
D03*
X62205Y28248D02*
D03*
X65354D02*
D03*
X77953D02*
D03*
X74837Y28100D02*
D03*
X71653Y31988D02*
D03*
X76673Y46555D02*
D03*
X75787Y42224D02*
D03*
X68996Y41043D02*
D03*
X59734Y43494D02*
D03*
X37442Y10640D02*
D03*
X42717Y6102D02*
D03*
X56496Y14961D02*
D03*
X82185Y5709D02*
D03*
X101673Y21850D02*
D03*
X92716Y25591D02*
D03*
X89075Y28346D02*
D03*
X93602Y33957D02*
D03*
X89075Y34646D02*
D03*
X93701Y37795D02*
D03*
X96949Y36811D02*
D03*
X93701Y47835D02*
D03*
X92323Y60335D02*
D03*
X86811Y57776D02*
D03*
X83268Y58252D02*
D03*
X71703Y60974D02*
D03*
X63583Y61811D02*
D03*
X55709Y62598D02*
D03*
X40354Y63090D02*
D03*
X29503Y62303D02*
D03*
X27461Y57579D02*
D03*
X45177Y47244D02*
D03*
X44833Y53150D02*
D03*
X33661Y39075D02*
D03*
X28839Y33858D02*
D03*
Y23031D02*
D03*
X4331Y26181D02*
D03*
X83366Y74508D02*
D03*
X78543Y81693D02*
D03*
X76575Y99311D02*
D03*
X73819Y97441D02*
D03*
X59252Y101969D02*
D03*
X82677Y106398D02*
D03*
X74803D02*
D03*
X66929D02*
D03*
X78937Y125098D02*
D03*
X78740Y128839D02*
D03*
X99902Y144488D02*
D03*
X58465Y143898D02*
D03*
X56595Y126870D02*
D03*
M02*
