M48
;Layer_Color=9474304
;FILE_FORMAT=2:4
INCH,TZ
;TYPE=PLATED
T1F00S00C0.0100
T2F00S00C0.0157
T4F00S00C0.0362
T5F00S00C0.0906
T6F00S00C0.0984
%
T01
X433Y2618
X2884Y2303
Y3386
X3366Y3907
X4518Y4724
X4483Y5315
X4272Y610
X3744Y1064
X5650Y1496
X6220Y2825
X6535
X7484Y2810
X7795Y2825
X7165Y3199
X6900Y4104
X7579Y4222
X7667Y4656
X9370Y4783
Y3780
X9360Y3396
X8907Y3465
Y2835
X9272Y2559
X10167Y2185
X9695Y3681
X5973Y4349
X8219Y571
X8327Y5825
X8681Y5778
X9232Y6033
X7170Y6097
X6358Y6181
X8337Y7451
X8286Y7832
X7854Y8169
X7657Y9931
X7382Y9744
X7480Y10640
X8268
X6693
X5925Y10197
X5659Y12687
X5846Y14390
X7874Y12884
X7894Y12510
X9990Y14449
X5571Y6260
X4035Y6309
X2950Y6230
X2746Y5758
T02
X1841Y2766
Y3100
Y3435
Y3770
Y4104
Y4439
Y4774
Y5108
X2372
Y4774
Y4439
Y4104
Y3770
Y3435
Y3100
Y2766
T04
X10634Y2559
Y3543
Y4331
Y5315
Y10433
Y11417
Y12205
Y13189
X5114
Y12205
Y11417
Y10433
T05
X11701Y1350
Y6524
Y9224
Y14398
X4047
Y9224
T06
X14567Y7874
X1181
M30
